**ABCDEFGHIJKLMNOPQRSTUVWXYZabcdefghijklmnopqrstuvwxyz**************************
**PARASOLID !"#$%&'()*+,-./:;<=>?@[\]^_`{|}~0123456789**************************
**PART1;
MC=x64/Windows NT;
MC_MODEL=genuineintel family 6 model 10 stepping 5, intel(r) xeon(r) cpu           w3550  @ 3.07ghz;
MC_ID=pc1401;
OS=windows nt (x64);
OS_RELEASE=6.3 windows 10 enterprise (build 17763) ;
FRU=mdc_ugii_v7.0_djl_can_vrh;
APPL=unigraphics;
SITE=unknown;
USER=huge;
FORMAT=text;
GUISE=transmit;
KEY=32-GPT_flange_d;
FILE=D:\Daten-Huge\PLM_Export\A_Internet_Modelle\Getriebe\32-x\32-GPT\32-GPT_flange_d.x_t;
DATE=23-jul-2019;
**PART2;
SCH=SCH_3001232_30100;
USFLD_SIZE=0;
**PART3;
**END_OF_HEADER*****************************************************************
T51 : TRANSMIT FILE created by modeller version 300123223 SCH_3001232_30100_1300
6214 0 12 34 CCCCCCI4 mesh1006 0 I8 polyline1008 0 CCCCCCCDI5 owner1040 0 CCCCCC
I13 boundary_mesh1006 0 I17 boundary_polyline1008 0 CCCA16 index_map_offset0 0 1
 dA9 index_map82 0 A17 node_id_index_map82 0 A20 schema_embedding_map82 0 A5 chi
ld12 0 A14 lowest_node_id0 0 1 dA16 mesh_offset_data206 0 Z1 1582 2 3 0 0 0 0 0
 0 1e3 1e-8 0 0 0 1 0 1 1 4 5 6 7 0 0 8 9 10 0 0 0 0 0 0 0 81 255 1 2 1582 11 1
 12 0 0 0 13 70 11 CI9 list_type0 0 1 uI10 notransmit0 0 1 lCCCDCCDI12 finger_in
dex0 0 1 dI12 finger_block1012 0 CZ3 0 4 T1 0 0 6 20 1 14 14 13 255 4 3 0 1 0 15
 0 0 16 0 52 255 5 1387 0 17 18 0 0 -0 0 .00225 0 0 -1 .004 .5 .866025403784439
 -1 0 0 31 255 6 1424 0 19 20 0 0 -0 0 .0018 0 0 1 1 0 0 .016 29 255 7 1074 0 10
 21 0 .00897170454545455 .00071310416424965 .0056 19 8 CCCCCCCA5 owner12 0 Z8 1
 0 1 16 0 22 V0 16 255 9 1368 23 ?24 0 25 20 0 0 1 18 255 10 1070 0 26 0 27 7 ?1
 17 255 26 0 28 29 30 10 31 32 0 33 -18 27 857 0 34 10 35 21 ?1 17 34 0 36 37 38
 27 39 40 0 41 -18 35 644 0 42 27 43 44 ?1 29 21 861 0 27 44 7 .0007131041642496
84 -.00897170454545455 .0056 29 44 648 0 35 45 21 -.00897170454545455 -.00071310
4164249673 .0056 29 45 447 0 43 46 44 -.000713104164249684 .00897170454545455 .0
056 18 43 443 0 47 35 48 45 ?1 29 46 580 0 48 49 45 .000713104164249686 .0089717
0454545455 .0047 18 48 524 0 50 43 51 46 ?1 29 49 581 0 51 52 46 -.0007131041642
49685 .00897170454545455 .0047 18 51 522 0 53 48 54 49 ?1 29 52 582 0 54 55 49 .
000713104164249684 .00897170454545455 .0056 18 54 525 0 56 51 57 52 ?1 29 55 790
 0 57 58 52 -.00897170454545455 .000713104164249696 .0047 18 57 734 0 59 54 60 5
5 ?1 29 58 791 0 60 61 55 -.00897170454545455 -.000713104164249674 .0047 18 60 7
32 0 62 57 63 58 ?1 29 61 792 0 63 64 58 -.00897170454545455 .000713104164249694
 .0056 18 63 735 0 65 60 66 61 ?1 29 64 1003 0 66 67 61 -.000713104164249686 -.0
0897170454545455 .0047 18 66 947 0 68 63 69 64 ?1 29 67 1004 0 69 70 64 .0007131
0416424969 -.00897170454545455 .0047 18 69 945 0 71 66 72 67 ?1 29 70 1005 0 72
 73 67 -.000713104164249684 -.00897170454545455 .0056 18 72 948 0 37 69 74 70 ?1
 29 73 1216 0 74 75 70 .00897170454545455 -.000713104164249715 .0047 18 74 1160
 0 76 72 77 73 ?1 29 75 1217 0 77 78 73 .00897170454545455 .000713104164249653 .
0047 18 77 1158 0 30 74 79 75 ?1 29 78 1218 0 79 0 75 .00897170454545454 -.00071
3104164249717 .0056 18 79 1161 0 29 77 0 78 ?1 17 29 0 28 76 26 79 33 80 0 81 -1
5 255 28 1200 0 30 82 83 17 76 0 28 30 29 74 81 84 0 85 -17 33 0 86 56 87 10 29
 80 0 88 +16 80 1075 89 ?33 90 91 92 0 0 1 17 81 0 93 94 95 79 76 84 0 87 +15 93
 1099 0 95 96 0 17 94 0 93 39 81 27 87 97 0 0 -17 95 0 93 81 39 74 71 98 0 0 -16
 84 1152 99 ?81 100 32 101 0 0 1 17 87 0 86 33 41 79 94 97 0 0 +15 86 1076 0 33
 102 103 17 41 0 86 87 104 27 37 91 0 94 +16 97 858 105 ?87 106 107 108 106 107
 1 81 1 105 1243 109 97 0 0 110 111 112 16 106 645 113 ?104 114 97 108 114 97 1
 16 107 1071 111 ?56 97 115 108 97 114 1 31 108 195 0 114 116 117 0 +0 0 .0056 0
 0 1 1 0 0 .009 16 114 148 118 ?119 120 106 108 107 106 1 31 116 573 0 121 122 1
08 0 +0 .011 .0047 0 0 1 1 0 0 .00215 31 117 193 0 115 108 123 0 -0 0 .0047 0 0
 1 1 0 0 .009 16 115 155 124 ?125 107 98 117 98 126 1 31 123 16 0 120 117 127 0
 +0 0 .0029 0 0 -1 -1 0 0 .016 16 120 12 128 ?129 130 114 123 0 0 1 31 127 44 0
 130 123 131 0 +0 0 .0029 0 0 1 1 0 0 .0149 16 130 41 132 ?133 134 120 127 0 0 1
 31 131 333 0 134 127 135 0 -0 0 .0044 0 0 1 1 0 0 .0149 16 134 330 136 ?137 138
 130 131 0 0 1 31 135 341 0 138 131 139 0 +0 0 .0047 0 0 1 1 0 0 .01472679491924
31 16 138 338 140 ?141 142 134 135 0 0 1 31 139 379 0 142 135 143 0 +0 0 3e-4 0
 0 -1 -1 0 0 .008 16 142 376 144 ?145 146 138 139 0 0 1 31 143 387 0 146 139 147
 0 -0 0 0 0 0 -1 -1 0 0 .00817320508075689 16 146 384 148 ?149 150 142 143 0 0 1
 31 147 450 0 150 143 151 0 -0 .011 .0056 0 0 1 1 0 0 .00215 16 150 448 152 ?153
 154 146 147 0 0 1 31 151 479 0 155 147 156 0 +0 .011 0 0 0 -1 -1 0 0 .00115 16
 155 499 157 ?158 126 121 151 0 0 1 31 156 651 0 154 151 159 0 --.011 1288600901
04078e-31 .0056 0 0 1 1 0 0 .00215 16 154 649 160 ?161 91 150 156 0 0 1 31 159 6
89 0 162 156 163 0 +-.011 128860090104078e-31 0 0 0 -1 -1 0 0 .00115 16 162 709
 164 ?165 166 167 159 0 0 1 31 163 864 0 91 159 168 0 -0 -.011 .0056 0 0 1 1 0 0
 .00215 16 91 862 169 ?41 80 154 163 0 0 1 31 168 902 0 170 163 92 0 +0 -.011 0
 0 0 -1 -1 0 0 .00115 16 170 922 171 ?172 173 174 168 0 0 1 31 92 1077 0 80 168
 175 0 -.011 -411005176853986e-31 .0056 0 0 1 1 0 0 .00215 31 175 1115 0 176 92
 177 0 +.011 -411005176853986e-31 0 0 0 -1 -1 0 0 .00115 16 176 1135 178 ?179 18
0 100 175 0 0 1 31 177 1365 0 25 175 20 0 +0 0 .00225 0 0 -1 -1 0 0 .004 16 25 1
362 181 ?182 9 90 177 0 0 1 31 20 1371 0 9 177 6 0 -0 0 .00175 0 0 -1 -1 0 0 .00
4288675134594815 81 1 181 1397 109 25 0 0 23 183 184 17 182 0 185 182 182 0 186
 25 0 0 +16 90 1283 187 ?188 25 80 189 0 0 1 81 1 187 1355 109 90 0 0 190 191 19
2 17 188 0 193 188 188 0 194 90 0 0 +31 189 1335 0 90 195 196 0 +0 0 .00175 0 0
 -1 -1 0 0 .008 31 195 1337 0 197 198 189 0 +0 0 .0056 0 0 -1 -1 0 0 .004 31 196
 1215 0 199 189 200 0 -.011 -411005176853986e-31 .0022 0 0 -1 -1 0 0 .00215 16 1
99 1150 201 ?202 203 197 196 0 0 1 31 200 1214 0 203 196 204 0 -.011 -4110051768
53986e-31 .0022 0 0 -1 -1 0 0 .00115 16 203 1148 205 ?206 32 199 200 0 0 1 30 25
5 204 1211 0 32 200 101 0 +.00897170454545455 .000713104164249652 .003905 0 0 -1
 16 32 1155 207 ?31 84 203 204 0 0 1 30 101 1210 0 84 204 208 0 -.00897170454545
454 -.000713104164249718 .003905 0 0 -1 31 208 1209 0 100 101 209 0 +.011 -41100
5176853986e-31 .0047 0 0 1 1 0 0 .00215 16 100 1140 210 ?30 176 84 208 0 0 1 31
 209 1002 0 180 208 211 0 -0 -.011 .0022 0 0 -1 -1 0 0 .00215 16 180 937 212 ?21
3 214 176 209 0 0 1 31 211 1001 0 214 209 215 0 -0 -.011 .0022 0 0 -1 -1 0 0 .00
115 16 214 935 216 ?217 40 180 211 0 0 1 30 215 998 0 40 211 218 0 +.00071310416
4249685 -.00897170454545454 .003905 0 0 -1 16 40 942 219 ?39 220 214 215 0 0 1 3
0 218 997 0 220 215 221 0 --.000713104164249685 -.00897170454545454 .003905 0 0
 -1 16 220 939 222 ?223 174 40 218 0 0 1 31 221 996 0 174 218 224 0 +0 -.011 .00
47 0 0 1 1 0 0 .00215 16 174 927 225 ?38 170 220 221 0 0 1 31 224 789 0 173 221
 226 0 --.011 128860090104078e-31 .0022 0 0 -1 -1 0 0 .00215 16 173 724 227 ?228
 229 170 224 0 0 1 31 226 788 0 229 224 230 0 --.011 128860090104078e-31 .0022 0
 0 -1 -1 0 0 .00115 16 229 722 231 ?232 233 173 226 0 0 1 30 230 785 0 233 226 2
34 0 +-.00897170454545454 -.000713104164249674 .003905 0 0 -1 16 233 729 235 ?23
6 237 229 230 0 0 1 30 234 784 0 237 230 238 0 --.00897170454545454 .00071310416
4249696 .003905 0 0 -1 16 237 726 239 ?240 167 233 234 0 0 1 31 238 783 0 167 23
4 241 0 +-.011 128860090104078e-31 .0047 0 0 1 1 0 0 .00215 16 167 714 242 ?243
 162 237 238 0 0 1 31 241 579 0 166 238 244 0 -0 .011 .0022 0 0 -1 -1 0 0 .00215
 16 166 514 245 ?246 247 162 241 0 0 1 31 244 578 0 247 241 248 0 -0 .011 .0022
 0 0 -1 -1 0 0 .00115 16 247 512 249 ?250 251 166 244 0 0 1 30 248 575 0 251 244
 122 0 +-.000713104164249685 .00897170454545454 .003905 0 0 -1 16 251 519 252 ?2
53 254 247 248 0 0 1 30 122 574 0 254 248 116 0 -.000713104164249685 .0089717045
4545454 .003905 0 0 -1 16 254 516 255 ?256 121 251 122 0 0 1 81 1 255 609 109 25
4 0 0 152 257 258 17 256 0 259 88 260 54 50 254 0 0 +16 121 504 257 ?261 155 254
 116 0 0 1 81 1 257 610 109 121 0 0 255 252 262 17 261 0 263 47 50 51 264 121 0
 253 +15 263 564 0 261 265 266 17 47 0 263 267 261 43 253 251 0 153 -17 50 0 263
 261 267 48 256 254 0 264 -17 264 0 268 125 53 48 261 121 0 260 -17 253 0 269 27
0 271 51 47 251 0 0 +15 269 673 0 270 272 0 17 270 0 269 240 253 57 53 126 0 0 -
17 271 0 269 253 240 43 119 114 0 0 -17 240 0 269 271 270 63 59 237 0 119 +17 11
9 0 86 161 153 63 271 114 0 0 +17 161 0 86 104 119 35 65 154 0 273 +17 153 0 86
 119 56 43 267 150 0 271 +17 56 0 86 153 33 54 88 107 0 267 +17 267 0 263 50 47
 54 153 150 0 256 -17 88 0 259 31 256 10 56 107 0 0 -15 259 175 0 88 274 0 17 31
 0 259 260 88 77 26 32 0 125 +17 260 0 259 256 31 48 125 115 0 0 -17 125 0 268 8
5 264 77 260 115 0 0 +15 268 1092 0 85 275 276 17 85 0 268 71 125 74 30 100 0 95
 -17 71 0 268 277 85 69 95 98 0 38 +17 30 0 28 26 76 77 85 100 0 31 +17 277 0 26
8 62 71 66 38 174 0 278 -16 98 1087 110 ?71 115 279 117 279 115 1 17 38 0 36 34
 68 69 277 174 0 39 +15 36 987 0 38 280 281 17 68 0 36 38 37 66 223 220 0 277 -1
7 39 0 93 95 94 69 34 40 0 0 +17 37 0 36 68 34 72 41 91 0 223 -17 223 0 282 273
 278 72 68 220 0 104 +15 282 886 0 278 283 0 17 273 0 282 236 223 35 104 106 0 0
 -17 278 0 282 223 236 66 62 279 0 0 -17 104 0 86 41 161 72 273 106 0 0 +17 236
 0 282 278 273 60 42 233 0 0 +17 62 0 268 284 277 60 278 279 0 243 +16 279 874 2
85 ?62 98 126 117 126 98 1 81 1 285 1030 109 279 0 0 113 169 286 16 126 661 287
 ?53 279 155 117 115 279 1 81 1 287 818 109 126 0 0 231 118 288 17 53 0 268 264
 284 51 270 126 0 261 +17 284 0 268 53 62 57 243 167 0 270 -17 243 0 289 42 59 6
0 284 167 0 236 +15 289 774 0 243 290 291 17 42 0 289 65 243 35 236 233 0 161 -1
7 59 0 289 243 65 57 240 237 0 284 -17 65 0 289 59 42 63 161 154 0 240 -14 255 2
90 770 292 ?293 294 289 4 295 -0 0 293 294 22 15 291 775 0 296 290 0 17 296 0 29
1 296 296 0 228 173 0 0 -17 228 0 297 228 228 0 296 173 0 0 +15 297 769 0 228 29
4 0 14 294 764 298 ?290 299 300 4 301 -0 0 290 299 22 81 1 298 1557 302 294 303
 0 304 292 305 14 299 758 304 ?294 265 306 4 307 -0 0 294 265 22 15 300 768 0 30
8 294 297 50 255 301 780 0 294 307 295 0 +-.011 128860090104078e-31 .0022 0 0 -1
 -1 0 0 13 22 4 0 0 0 0 0 0 8 15 14 15 9 309 ?310 0 311 4 312 +0 0 310 0 22 81 1
 309 1523 302 15 313 0 0 314 315 14 310 300 314 ?96 15 316 4 317 -0 0 96 15 22 1
5 311 385 0 149 15 318 50 312 11 0 15 319 320 0 +0 0 0 0 0 -1 -1 0 0 51 255 319
 92 0 321 322 312 0 +0 0 0 0 0 1 .0149 1 0 0 50 320 17 0 323 312 324 0 +0 0 .002
9 0 0 1 1 0 0 14 323 15 325 ?326 321 327 4 320 +0 0 326 321 22 51 324 18 0 326 3
20 328 0 +0 0 0 0 0 1 .016 1 0 0 14 326 2 329 ?274 323 330 4 324 +0 0 274 323 22
 52 328 361 0 331 324 18 0 +0 0 .0044 0 0 -1 .0149 .5 .866025403784438 -1 0 0 14
 331 354 332 ?333 102 334 4 328 +0 0 333 102 22 52 18 405 0 333 328 5 0 -0 0 3e-
4 0 0 -1 .008 .5 .866025403784438 -1 0 0 14 333 398 335 ?336 331 337 4 18 +0 0 3
36 331 22 81 1 335 1547 302 333 338 0 332 339 340 14 336 548 339 ?341 333 342 4
 343 -0 0 341 333 22 15 337 399 0 344 333 345 17 344 0 337 344 344 0 149 146 0 0
 -15 345 400 0 346 333 0 17 346 0 345 346 346 0 145 142 0 0 -17 145 0 316 145 14
5 0 346 142 0 0 +15 316 377 0 145 310 347 15 347 1285 0 194 310 0 17 194 0 347 1
94 194 0 188 90 0 0 -17 149 0 311 149 149 0 344 146 0 0 +81 1 339 1549 302 336 3
48 0 335 349 350 14 341 554 349 ?265 336 351 4 352 -0 0 265 336 22 15 342 552 0
 158 336 353 51 343 571 0 336 295 352 0 +0 .011 -.01973899731576365 0 0 -1 .0011
5 -1 0 0 51 295 779 0 290 301 343 0 +-.011 128860090104078e-31 .0047 0 0 -1 .002
15 -1 0 0 50 352 570 0 341 343 354 0 +0 .011 .0022 0 0 -1 -1 0 0 51 354 569 0 26
5 352 317 0 +0 .011 .0047 0 0 -1 .00215 -1 0 0 14 265 560 355 ?299 341 263 4 354
 -0 0 299 341 22 51 317 309 0 310 354 356 0 +0 0 .0047 0 0 -1 .008 -1 0 0 50 356
 191 0 275 317 357 0 +0 0 .0047 0 0 1 1 0 0 14 275 182 358 ?102 274 268 4 356 +0
 0 102 274 22 51 357 190 0 274 356 322 0 -0 0 .0056 0 0 -1 .009 -1 0 0 14 274 17
2 359 ?275 326 259 4 357 -96 272 275 326 22 50 322 93 0 102 357 319 0 +0 0 .0056
 0 0 1 1 0 0 14 102 79 360 ?331 275 86 4 322 +0 0 331 275 22 81 1 360 1543 302 1
02 361 0 358 332 362 80 255 1 302 0 363 8001 0 0 0 0 3 5 0 0 0 FFFFTFTFFFFFFF2 8
1 1 361 1542 364 102 191 360 365 366 367 81 1 358 1541 302 275 365 0 359 360 368
 81 1 332 1545 302 331 366 0 360 335 369 83 255 3 362 .6 .6 .6 81 1 366 1544 364
 331 370 332 361 338 371 83 3 369 .6 .6 .6 80 1 364 372 373 8015 0 0 0 0 3 5 0 0
 0 FFFFTFFFFFFFFF2 81 1 370 374 109 331 0 366 374 144 375 81 1 338 1546 364 333
 376 335 366 348 377 83 1 371 0 81 1 376 418 109 333 0 338 148 249 378 81 1 348
 1548 364 336 379 339 338 380 381 83 1 377 0 81 1 379 616 109 336 0 348 252 382
 383 81 1 380 1550 364 341 382 349 348 384 385 83 1 381 0 81 1 382 617 109 341 0
 380 379 386 387 81 1 349 1551 302 341 380 0 339 355 388 81 1 384 1552 364 265 3
86 355 380 389 390 83 1 385 0 81 1 386 618 109 265 0 384 382 227 391 81 1 355 15
53 302 265 384 0 349 304 392 81 1 389 1554 364 299 393 304 384 303 394 83 1 390
 0 81 1 393 829 109 299 0 389 395 396 397 81 1 304 1555 302 299 389 0 355 298 39
8 81 1 303 1556 364 294 399 298 389 400 401 83 1 394 0 81 1 399 831 109 294 0 30
3 396 212 402 81 1 400 1558 364 290 396 292 303 403 404 83 1 401 0 81 1 396 830
 109 290 0 400 393 399 405 81 1 292 1559 302 290 400 0 298 406 407 81 1 403 1560
 364 293 408 406 400 409 410 83 1 404 0 14 293 971 406 ?411 290 412 4 413 -0 0 4
11 290 22 81 1 408 1043 109 293 0 403 414 415 416 81 1 406 1561 302 293 403 0 29
2 417 418 81 1 409 1562 364 411 414 417 403 419 420 83 1 410 0 14 411 977 417 ?2
80 293 421 4 422 -0 0 280 293 22 81 1 414 1042 109 411 0 409 423 408 424 81 1 41
7 1563 302 411 409 0 406 425 426 81 1 419 1564 364 280 415 425 409 427 428 83 1
 420 0 14 280 983 425 ?429 411 36 4 430 -0 0 429 411 22 81 1 415 1044 109 280 0
 419 408 201 431 81 1 425 1565 302 280 419 0 417 432 433 81 1 427 1566 364 429 4
34 432 419 435 436 83 1 428 0 14 429 1184 432 ?437 280 438 4 439 -0 0 437 280 22
 81 1 434 1257 109 429 0 427 440 190 441 81 1 432 1567 302 429 427 0 425 442 443
 81 1 435 1568 364 437 440 442 427 444 445 83 1 436 0 14 437 1190 442 ?82 429 44
6 4 447 -0 0 82 429 22 81 1 440 1256 109 437 0 435 448 434 449 81 1 442 1569 302
 437 435 0 432 450 451 81 1 444 1570 364 82 448 450 435 452 453 83 1 445 0 14 82
 1196 450 ?454 437 28 4 455 -0 0 454 437 22 81 1 448 1255 109 82 0 444 456 440 4
57 81 1 450 1571 302 82 444 0 442 458 459 81 1 452 1572 364 454 183 458 444 460
 461 83 1 453 0 14 454 1310 458 ?462 82 185 4 463 +0 0 462 82 22 81 1 183 1398 1
09 454 0 452 181 464 465 81 1 458 1573 302 454 452 0 450 466 467 81 1 460 1574 3
64 462 464 466 452 468 469 83 1 461 0 14 462 1315 466 ?17 454 470 4 471 +0 0 17
 454 22 81 1 464 1399 109 462 0 460 183 472 473 81 1 466 1575 302 462 460 0 458
 474 475 81 1 468 1576 364 17 472 474 460 476 477 83 1 469 0 14 17 1380 474 ?478
 462 479 4 5 +0 0 478 462 22 81 1 472 1400 109 17 0 468 464 480 481 81 1 474 157
7 302 17 468 0 466 482 483 81 1 476 1578 364 478 484 482 468 485 486 83 1 477 0
 14 478 1474 482 ?487 17 488 4 489 -0 0 487 17 22 81 1 484 1519 109 478 0 476 49
0 0 491 81 1 482 1579 302 478 476 0 474 492 493 81 1 485 1580 364 487 490 492 47
6 0 494 83 1 486 0 14 487 1479 492 ?0 478 495 4 496 -0 0 0 478 22 81 1 490 1518
 109 487 0 485 497 484 498 81 1 492 1581 302 487 485 0 482 0 499 83 1 494 0 83 3
 499 .6 .6 .6 80 1 109 500 501 9000 1 1 1 1 1 1 1 1 0 FFFFTFTFFFFFFF3 81 1 497 1
517 109 326 0 502 503 490 504 84 255 32 498 358e97c9a05bdffac2fbf6a3139ab49f81 1
 502 1536 364 326 497 329 505 506 507 81 1 503 1516 109 15 0 313 508 497 509 84
 32 504 18a6fc07917ecf5c320ede80451515cc81 1 313 1522 364 15 503 309 0 510 511 8
1 1 508 1515 109 19 0 0 512 503 513 84 32 509 fbb357fd42343b28aef63a6fdef1e5fb16
 19 1445 508 ?514 197 515 6 0 0 1 81 1 512 1514 109 516 0 0 480 508 517 84 32 51
3 a42760aaccb788b6e338fcc6d81ee2ef16 516 1455 512 ?518 515 0 198 0 0 1 81 1 480
 1513 109 515 0 0 472 512 519 84 32 517 4573b855d6791e8c8ae5d57c52fd1c2d16 515 1
450 480 ?520 19 516 521 0 0 1 84 32 519 9501012be4062a0c2a62676ebf7676fc17 520 0
 488 520 520 0 522 515 0 0 +31 521 1498 0 515 0 198 0 -0 0 .0018 0 0 1 1 0 0 .01
449999999999972 31 198 1496 0 516 521 195 0 +0 0 0 0 0 1 1 0 0 .0144999999999997
2 15 488 1477 0 520 478 523 17 522 0 524 522 522 0 520 515 0 0 -15 524 1483 0 52
2 487 0 15 523 1478 0 518 478 0 17 518 0 523 518 518 0 525 516 0 0 +17 525 0 526
 525 525 0 518 516 0 0 -15 526 1430 0 525 15 0 17 514 0 495 514 514 0 527 19 0 0
 +16 197 1308 190 ?528 199 19 195 0 0 1 81 1 190 1354 109 197 0 0 434 187 529 17
 528 0 103 528 528 0 530 197 0 0 +15 103 1326 0 528 102 0 17 530 0 531 530 530 0
 528 197 0 0 -15 531 1314 0 530 454 0 84 32 529 e36a9bcd0e5866570621780aac52a554
15 495 1482 0 514 487 524 17 527 0 330 527 527 0 514 19 0 0 -15 330 1423 0 527 3
26 532 15 532 13 0 129 326 0 17 129 0 532 129 129 0 533 120 0 0 +17 533 0 534 53
3 533 0 129 120 0 0 -15 534 14 0 533 323 0 81 1 510 1524 364 310 535 314 313 536
 537 83 1 511 0 81 1 535 1358 109 310 0 510 191 23 538 81 1 314 1525 302 310 510
 0 309 539 540 81 1 536 1526 364 96 541 539 510 542 543 83 1 537 0 14 96 1100 53
9 ?283 310 93 4 357 -283 274 283 310 22 81 1 541 1253 109 96 0 536 544 456 545 8
1 1 539 1527 302 96 536 0 314 546 547 81 1 542 1528 364 283 423 546 536 548 549
 83 1 543 0 14 283 887 546 ?272 96 282 4 357 -272 96 272 96 22 81 1 423 1040 109
 283 0 542 219 414 550 81 1 546 1529 302 283 542 0 539 551 552 81 1 548 1530 364
 272 395 551 542 553 554 83 1 549 0 14 272 674 551 ?321 283 269 4 357 -274 283 3
21 283 22 81 1 395 828 109 272 0 548 235 393 555 81 1 551 1531 302 272 548 0 546
 556 557 81 1 553 1532 364 321 374 556 548 505 558 83 1 554 0 14 321 85 556 ?323
 272 559 4 319 +0 0 323 272 22 81 1 374 372 109 321 0 553 136 370 560 81 1 556 1
533 302 321 553 0 551 325 561 81 1 505 1534 364 323 562 325 553 502 563 83 1 558
 0 81 1 562 113 109 323 0 505 132 140 564 81 1 325 1535 302 323 505 0 556 329 56
5 83 1 563 0 81 1 329 1537 302 326 502 0 325 359 566 83 3 565 .6 .6 .6 81 1 359
 1539 302 274 506 0 329 358 567 83 3 566 .6 .6 .6 81 1 506 1538 364 274 456 359
 502 365 568 83 3 567 .6 .6 .6 81 1 456 1254 109 274 0 506 541 448 569 81 1 365
 1540 364 275 544 358 506 361 570 83 1 568 0 81 1 544 1252 109 275 0 365 207 541
 571 83 1 570 0 81 1 207 1249 109 32 0 0 210 544 572 84 32 571 9282d0699b85801ef
afce0ac1f40451681 1 210 1248 109 100 0 0 99 207 573 84 32 572 41f19f1d0687b11908
99685c04fad70b81 1 99 1247 109 84 0 0 89 210 574 84 32 573 45a111890767ee2ce7f67
5a1cb0e5cde81 1 89 1246 109 80 0 0 124 99 575 84 32 574 b124f891ddcb63ebe0072460
e24d088881 1 124 1245 109 115 0 0 111 89 576 84 32 575 ba0c9f47ebea41ef9539dd648
f02a3d781 1 111 1244 109 107 0 0 105 124 577 84 32 576 2382a1e4b2f11a60b522521c9
1f0841e84 32 577 3dc21a5a22e336a60ce205403549157984 32 569 242b0b607cd5e8e5d35a7
0b5aab9572681 1 132 109 109 130 0 0 128 562 578 81 1 140 370 109 138 0 0 562 136
 579 84 32 564 8ae3413c46b3965e7b412c20ded5c72b81 1 136 371 109 134 0 0 140 374
 580 84 32 579 74acc9b21496c382c57c6797f83835a684 32 580 b8b197d0ddd4933b1796f31
a117267f281 1 128 29 109 120 0 0 0 132 581 84 32 578 659a0edc707d6e2da802e31e567
15f5284 32 581 22ae944bf21930509e8b8f5fb9df68e383 3 561 .6 .6 .6 84 32 560 f043e
97555eeb463f71d9508092356e215 559 331 0 137 321 582 17 137 0 559 137 137 0 583 1
34 0 0 +15 582 88 0 133 321 0 17 133 0 582 133 133 0 584 130 0 0 +17 584 0 327 5
84 584 0 133 130 0 0 -15 327 43 0 584 323 534 17 583 0 585 583 583 0 137 134 0 0
 -15 585 356 0 583 331 0 83 3 557 .6 .6 .6 81 1 235 823 109 233 0 0 242 395 586
 84 32 555 68b0f50e2580e910dd45caf29c5b0fd881 1 242 822 109 167 0 0 239 235 587
 84 32 586 d85964330d5fcd7c5b77363a891118d381 1 239 821 109 237 0 0 160 242 588
 84 32 587 4fe7408142d0d6e271445be3b7d958e381 1 160 820 109 154 0 0 118 239 589
 84 32 588 790fb351a393bb0d71e27b893668f9ea81 1 118 819 109 114 0 0 287 160 590
 84 32 589 dae3a3fb319d6bb8cb6e943e5bd4896e84 32 590 25b3cf0b50f8b4971dabbc53fc7
ac32883 3 552 .6 .6 .6 81 1 219 1036 109 40 0 0 225 423 591 84 32 550 c4ee9c0eb3
c0f9f874024bf13599046281 1 225 1035 109 174 0 0 222 219 592 84 32 591 f0f83d2e23
fef8ec08b5cad86750c22881 1 222 1034 109 220 0 0 169 225 593 84 32 592 97892bc549
8ca5bfc18d9a5a309c399781 1 169 1033 109 91 0 0 285 222 594 84 32 593 75ac248145f
afac79d9a4ef6328c032584 32 594 82f10bf0909acc2481d1a0f4120885b383 3 547 .6 .6 .6
 84 32 545 4feef9b4257ec506d43d056958ded60083 3 540 .6 .6 .6 81 1 191 1357 109 1
02 0 361 187 535 595 81 1 23 1396 109 9 0 0 535 181 596 84 32 538 ffb13edbc8ecf3
ac2669a7cc11cf7b5384 32 596 9e7b0616b46b4fe38eb39a670f13b03184 32 595 e0268dd92b
eea4fc105dbd10aae4d0ca83 1 507 0 79 255 15 501 UGS/ObjectState50 496 1494 0 487
 0 489 0 +0 0 .0018 0 0 1 1 0 0 51 489 1492 0 478 496 471 0 -0 0 .0018 0 0 -1 .0
1449999999999972 -1 0 0 50 471 1331 0 462 489 463 0 +.004 0 .00175 0 0 -1 -1 0 0
 51 463 1330 0 454 471 439 0 -0 0 0 0 0 -1 .004 -1 0 0 51 439 1207 0 429 463 447
 0 +.011 -411005176853986e-31 -.01973899731576365 0 0 -1 .00115 -1 0 0 50 447 12
06 0 437 439 455 0 +.011 -411005176853986e-31 .0022 0 0 -1 -1 0 0 51 455 1205 0
 82 447 413 0 +.011 -411005176853986e-31 .0047 0 0 -1 .00215 -1 0 0 51 413 994 0
 293 455 422 0 +0 -.011 -.01973899731576365 0 0 -1 .00115 -1 0 0 50 422 993 0 41
1 413 430 0 +0 -.011 .0022 0 0 -1 -1 0 0 51 430 992 0 280 422 307 0 +0 -.011 .00
47 0 0 -1 .00215 -1 0 0 51 307 781 0 299 430 301 0 +-.011 128860090104078e-31 -.
01973899731576365 0 0 -1 .00115 -1 0 0 83 3 493 .6 .6 .6 84 32 491 000f73f27aacd
8c660ae99c883ad0d2983 3 483 .6 .6 .6 84 32 481 f7fc592e332c217ea70e4569bbcc2c511
5 479 1381 0 597 17 598 17 597 0 479 597 597 0 24 9 0 0 -15 598 1382 0 186 17 0
 17 186 0 598 186 186 0 182 25 0 0 -17 24 0 470 24 24 0 597 9 0 0 +15 470 1369 0
 24 462 193 15 193 1318 0 188 462 0 83 3 475 .6 .6 .6 84 32 473 9e7a8ebadf16fddb
76814bd78885eab583 3 467 .6 .6 .6 84 32 465 7ae59212b37a37b38f88e78b38e37d8415 1
85 1363 0 182 454 531 83 3 459 .6 .6 .6 84 32 457 6f821dbf8d79797c0328bc2dd5f504
1f83 3 451 .6 .6 .6 84 32 449 88fb98b411cd00d6598292436ce135e815 446 1194 0 599
 437 600 17 599 0 446 599 599 0 206 203 0 0 -15 600 1195 0 202 437 0 17 202 0 60
0 202 202 0 601 199 0 0 +17 601 0 83 601 601 0 202 199 0 0 -15 83 1201 0 601 82
 0 17 206 0 602 206 206 0 599 203 0 0 +15 602 1189 0 206 429 0 83 3 443 .6 .6 .6
 84 32 441 f992df19396ec35bdcd9bfcf4a3b88b315 438 1188 0 179 429 602 17 179 0 43
8 179 179 0 603 176 0 0 +17 603 0 604 603 603 0 179 176 0 0 -15 604 1114 0 603 1
5 526 83 3 433 .6 .6 .6 81 1 201 1239 109 199 0 0 415 178 605 84 32 431 7da79fca
92d1b0780a179cd8f779769881 1 178 1240 109 176 0 0 201 205 606 84 32 605 ca5da3dd
c242400e905cd7f48ef606d581 1 205 1241 109 203 0 0 178 110 607 84 32 606 49bd9edc
9d96dabb51039b95eea8c09481 1 110 1242 109 98 0 0 205 105 608 84 32 607 8a9ed1a0a
cd2a73ba713b4c324ce481d84 32 608 7d376a77eedc4e0a316460aa3f3c1beb83 3 426 .6 .6
 .6 84 32 424 a175b5dd60e465d7adadcab66b05760015 421 981 0 609 411 610 17 609 0
 421 609 609 0 217 214 0 0 -15 610 982 0 213 411 0 17 213 0 610 213 213 0 611 18
0 0 0 +17 611 0 281 611 611 0 213 180 0 0 -15 281 988 0 611 280 0 17 217 0 612 2
17 217 0 609 214 0 0 +15 612 976 0 217 293 0 83 3 418 .6 .6 .6 84 32 416 1e6ac98
56e26db606650a9d68a2d3e3315 412 975 0 172 293 612 17 172 0 412 172 172 0 613 170
 0 0 +17 613 0 614 613 613 0 172 170 0 0 -15 614 901 0 613 15 604 83 3 407 .6 .6
 .6 84 32 405 4d486c6db329e32cc562ba69e65736d281 1 212 1026 109 180 0 0 399 171
 615 84 32 402 6204514f0ad1a05515cd8dd12ed496f281 1 171 1027 109 170 0 0 212 216
 616 84 32 615 4c7b8bc59559ec70e9b613f1f53903d881 1 216 1028 109 214 0 0 171 113
 617 84 32 616 12007789637f8c549121367e5ca7b65981 1 113 1029 109 106 0 0 216 285
 618 84 32 617 85b1751166939536d9700d41b5bbc33c84 32 618 6c8a10d7d88279ffd5c77a8
3c05c5d2f83 3 398 .6 .6 .6 84 32 397 cff111621dd4ab9c1c86e5b78dcb671283 3 392 .6
 .6 .6 81 1 227 813 109 173 0 0 386 164 619 84 32 391 0e4d987b6907bd3569105c66d5
a1859281 1 164 814 109 162 0 0 227 231 620 84 32 619 9cb1b1dafab93088f3ddb1d3a44
ee1bc81 1 231 815 109 229 0 0 164 287 621 84 32 620 dbf14d72689bb3988207744de7fb
703e84 32 621 3cf4f19982eb644fdb7d836bbde83b2783 3 388 .6 .6 .6 84 32 387 bffb32
3a49227e427268fb9e8baf9d2f81 1 252 611 109 251 0 0 257 379 622 84 32 383 9f9a6b1
688eeb36537d06fe58b69a0fa84 32 622 55de4adfd21b4e288b90dbba83f43f3281 1 148 415
 109 146 0 0 144 376 623 81 1 249 603 109 247 0 0 376 245 624 84 32 378 49e6d27b
253566606a7a32cb820c476581 1 245 604 109 166 0 0 249 157 625 84 32 624 b1d16fb6d
0bb6a8089f73a3edb7586da81 1 157 605 109 155 0 0 245 152 626 84 32 625 1768d196f0
68303c659f2ee2c72041ec81 1 152 608 109 150 0 0 157 255 627 84 32 626 ba165fc875c
03c633b0b7af3487eae6a84 32 627 395eb12a00d7783d4c39a2ff71a8590981 1 144 414 109
 142 0 0 370 148 628 84 32 623 22459597f9532a5a18b8d1e81b2f8ae884 32 628 5c242e6
e1ac4de19b39d4ff6cb0efc7684 32 375 b46e036bca25d45457333a7600dc133179 21 373 SDL
/TYSA_TRANSLUCENCY83 3 368 .6 .6 .6 83 1 367 0 79 15 363 SDL/TYSA_COLOUR17 158 0
 342 158 158 0 629 155 0 0 +15 353 553 0 250 336 0 17 250 0 353 250 250 0 630 24
7 0 0 +17 630 0 351 630 630 0 250 247 0 0 -15 351 558 0 630 341 631 15 631 559 0
 246 341 0 17 246 0 631 246 246 0 632 166 0 0 +17 632 0 266 632 632 0 246 166 0
 0 -15 266 565 0 632 265 0 17 629 0 318 629 629 0 158 155 0 0 -15 318 478 0 629
 15 633 15 633 688 0 634 15 614 17 634 0 633 634 634 0 165 162 0 0 -17 165 0 306
 165 165 0 634 162 0 0 +15 306 762 0 165 299 635 15 635 763 0 232 299 0 17 232 0
 635 232 232 0 308 229 0 0 +17 308 0 300 308 308 0 232 229 0 0 -83 3 350 .6 .6 .
6 83 3 340 .6 .6 .6 15 334 355 0 636 331 585 17 636 0 334 636 636 0 141 138 0 0
 -17 141 0 276 141 141 0 636 138 0 0 +15 276 339 0 141 275 0 83 3 315 .6 .6 .6 8
3 3 305 .6 .6 .6 84 32 288 c0b3b34287899a310623fe8a43ed821684 32 286 9b9c0e82c56
e136b01b07470321546db84 32 262 c4dea13e10e57a7337db6308a94f3eea84 32 258 1d3c415
9802acbee7665f64431423d2984 32 192 0f8e9cefc84d7079ad395da81568d2ee84 32 184 8f7
9fe8868475be4ffdf74656c8c368b84 32 112 0891ed02b5fe7c87c5a1a80ed54ca11719 16 5 0
 1 0 8 4 S0 74 4 CI16 index_map_offset0 0 1 dCCZ20 14 6 0 0 484 637 12 485 492 2
 0 0 0 0 0 0 0 0 0 0 0 0 0 0 81 2 637 1512 638 1 0 12 0 0 639 640 81 1 12 1521 6
41 1 637 2 0 0 642 80 1 641 643 644 9000 0 0 0 0 3 5 0 0 0 FFTFFFFFFFFFFF1 82 25
5 1 642 -1 79 19 644 UG2/PMARK_ATTRIBUTE80 2 638 645 646 8004 0 0 0 0 3 5 0 0 0
 FFTFFFFFFFFFFF2 3 83 1 639 .001 84 8 640 Kg/Cu M 79 16 646 SDL/TYSA_DENSITY80 1
 11 647 648 9000 0 0 0 0 3 5 0 0 0 FFTFFFFFFFFFFF1 82 1 13 87 79 24 648 UG2/BODY
_COLOR_ATTRIBUTE1 0 
