**ABCDEFGHIJKLMNOPQRSTUVWXYZabcdefghijklmnopqrstuvwxyz**************************
**PARASOLID !"#$%&'()*+,-./:;<=>?@[\]^_`{|}~0123456789**************************
**PART1;
MC=x64/Windows NT;
MC_MODEL=genuineintel family 6 model 10 stepping 5, intel(r) xeon(r) cpu           w3550  @ 3.07ghz;
MC_ID=pc1401;
OS=windows nt (x64);
OS_RELEASE=6.3 windows 10 enterprise (build 17763) ;
FRU=mdc_ugii_v7.0_djl_can_vrh;
APPL=unigraphics;
SITE=unknown;
USER=huge;
FORMAT=text;
GUISE=transmit;
KEY=32-GPT_flange_b;
FILE=D:\Daten-Huge\PLM_Export\A_Internet_Modelle\Getriebe\32-x\32-GPT\32-GPT_flange_b.x_t;
DATE=23-jul-2019;
**PART2;
SCH=SCH_3001232_30100;
USFLD_SIZE=0;
**PART3;
**END_OF_HEADER*****************************************************************
T51 : TRANSMIT FILE created by modeller version 300123223 SCH_3001232_30100_1300
6214 0 12 34 CCCCCCI4 mesh1006 0 I8 polyline1008 0 CCCCCCCDI5 owner1040 0 CCCCCC
I13 boundary_mesh1006 0 I17 boundary_polyline1008 0 CCCA16 index_map_offset0 0 1
 dA9 index_map82 0 A17 node_id_index_map82 0 A20 schema_embedding_map82 0 A5 chi
ld12 0 A14 lowest_node_id0 0 1 dA16 mesh_offset_data206 0 Z1 2361 2 3 0 0 0 0 0
 0 1e3 1e-8 0 0 0 1 0 1 1 4 5 6 7 0 0 8 9 10 0 0 0 0 0 0 0 81 255 1 2 2361 11 1
 12 0 0 0 13 70 11 CI9 list_type0 0 1 uI10 notransmit0 0 1 lCCCDCCDI12 finger_in
dex0 0 1 dI12 finger_block1012 0 CZ3 0 4 T1 0 0 6 20 1 14 14 13 255 4 3 0 1 0 15
 0 0 16 0 52 255 5 2256 0 17 18 0 0 +0 0 .0047 0 0 -1 .0147267949192431 .5 .8660
25403784438 -1 0 0 31 255 6 2236 0 9 19 0 0 +0 0 .0044 0 0 -1 -1 0 0 .0149 29 25
5 7 1560 0 10 20 0 -.00860229972271959 .00264583436376856 .0047 19 8 CCCCCCCA5 o
wner12 0 Z8 1 0 1 16 0 21 V0 16 255 9 2233 22 ?23 0 24 6 0 0 1 18 255 10 1558 0
 25 0 26 7 ?1 17 255 25 0 27 28 29 10 30 31 0 32 +18 26 1920 0 33 10 34 20 ?1 17
 33 0 35 36 37 26 38 39 0 40 +18 34 1910 0 41 26 42 43 ?1 29 20 2074 0 26 43 7 .
00860229972271959 .00264583436376853 .0056 29 43 2075 0 34 44 20 .00659250963458
923 .00612689290895868 .0056 29 44 2076 0 42 45 43 .002009790088130385 .00877272
727272727 .0056 18 42 1916 0 46 34 47 44 ?1 29 45 2077 0 47 48 44 -.002009790088
13038 .00877272727272727 .0056 18 47 1907 0 49 42 50 45 ?1 29 48 2078 0 50 51 45
 -.0065925096345892 .00612689290895872 .0056 18 50 1926 0 52 47 53 48 ?1 29 51 2
079 0 53 54 48 -.00860229972271959 .00264583436376856 .0056 18 53 1906 0 55 50 5
6 51 ?1 29 54 2080 0 56 57 51 -.00860229972271959 -.002645834363768555 .0056 18
 56 1922 0 58 53 59 54 ?1 29 57 2081 0 59 60 54 -.00659250963458921 -.0061268929
089587 .0056 18 59 1903 0 61 56 62 57 ?1 29 60 2082 0 62 63 57 -.002009790088130
385 -.00877272727272727 .0056 18 62 1924 0 64 59 65 60 ?1 29 63 2083 0 65 66 60
 .00200979008813038 -.00877272727272727 .0056 18 65 1914 0 67 62 68 63 ?1 29 66
 2084 0 68 69 63 .00659250963458919 -.00612689290895873 .0056 18 68 1918 0 70 65
 71 66 ?1 29 69 2085 0 71 72 66 .00860229972271957 -.00264583436376859 .0056 18
 71 1911 0 36 68 73 69 ?1 29 72 2086 0 73 74 69 .00860229972271957 -.00264583436
376859 .0047 18 73 1917 0 75 71 76 72 ?1 29 74 2087 0 76 77 72 .0065925096345891
9 -.00612689290895873 .0047 18 76 1913 0 78 73 79 74 ?1 29 77 2088 0 79 80 74 .0
0200979008813038 -.00877272727272727 .0047 18 79 1923 0 81 76 82 77 ?1 29 80 208
9 0 82 83 77 -.002009790088130385 -.00877272727272727 .0047 18 82 1904 0 84 79 8
5 80 ?1 29 83 2090 0 85 86 80 -.00659250963458921 -.0061268929089587 .0047 18 85
 1921 0 87 82 88 83 ?1 29 86 2091 0 88 89 83 -.00860229972271959 -.0026458343637
68555 .0047 18 88 1905 0 29 85 90 86 ?1 29 89 2093 0 90 91 86 -.0065925096345892
 .00612689290895872 .0047 18 90 1908 0 28 88 92 89 ?1 29 91 2094 0 92 93 89 -.00
200979008813038 .00877272727272727 .0047 18 92 1915 0 94 90 95 91 ?1 29 93 2095
 0 95 96 91 .002009790088130385 .00877272727272727 .0047 18 95 1909 0 97 92 98 9
3 ?1 29 96 2096 0 98 99 93 .00659250963458923 .00612689290895868 .0047 18 98 191
9 0 100 95 101 96 ?1 29 99 2097 0 101 0 96 .00860229972271959 .00264583436376853
 .0047 18 101 1912 0 102 98 0 99 ?1 17 102 0 27 103 104 101 105 106 0 37 -15 255
 27 2009 0 25 107 0 17 103 0 27 78 102 73 37 108 0 109 +17 104 0 27 102 97 98 11
0 111 0 105 +17 105 0 112 113 38 98 102 106 0 0 +16 106 1865 114 ?105 115 116 11
7 0 0 1 17 37 0 35 33 75 101 103 108 0 38 -15 35 1946 0 75 118 0 17 75 0 35 37 3
6 73 119 120 0 103 +16 108 1863 121 ?103 122 0 123 0 0 1 17 38 0 112 105 124 101
 33 39 0 0 -15 112 1608 0 113 125 0 17 124 0 112 38 113 26 126 127 0 0 -16 39 17
76 128 ?33 129 130 131 0 0 1 81 1 128 2189 132 39 0 0 133 134 135 16 129 1773 13
6 ?100 137 39 138 0 0 1 16 130 1785 139 ?81 39 140 141 0 0 1 30 255 131 2061 0 3
9 141 138 0 -.0086022997227196 .00264583436376853 .00515 0 0 -1 30 141 2062 0 13
0 142 131 0 +.002009790088130375 -.00877272727272727 .00515 0 0 -1 30 138 2060 0
 129 131 143 0 +.00659250963458923 .00612689290895868 .00515 0 0 -1 30 143 2059
 0 137 138 144 0 -.00659250963458919 -.00612689290895873 .00515 0 0 -1 16 137 17
70 133 ?70 120 129 143 0 0 1 30 144 2058 0 120 143 145 0 +.00860229972271957 -.0
0264583436376859 .00515 0 0 -1 16 120 1767 146 ?75 147 137 144 0 0 1 30 145 2057
 0 147 144 148 0 -.00200979008813038 .00877272727272727 .00515 0 0 -1 16 147 176
4 149 ?46 150 120 145 0 0 1 30 148 2056 0 150 145 151 0 +-.002009790088130375 .0
0877272727272727 .00515 0 0 -1 16 150 1761 152 ?94 153 147 148 0 0 1 30 151 2055
 0 153 148 154 0 --.00860229972271959 -.002645834363768555 .00515 0 0 -1 16 153
 1782 155 ?58 156 150 151 0 0 1 30 154 2054 0 156 151 157 0 +-.00659250963458921
 -.0061268929089587 .00515 0 0 -1 16 156 1779 158 ?87 159 153 154 0 0 1 31 157 1
212 0 159 154 160 0 +-.00952627944162882 .0055 .0056 0 0 -1 -1 0 0 .003 16 159 1
164 161 ?162 163 156 157 0 0 1 31 160 1211 0 163 157 164 0 --.00952627944162882
 .0055 .0022 0 0 -1 -1 0 0 .003 16 163 1162 165 ?166 167 159 160 0 0 1 31 164 10
84 0 168 160 169 0 +-195992473735542e-32 -.011 .0056 0 0 -1 -1 0 0 .003 16 168 1
036 170 ?171 172 167 164 0 0 1 31 169 1083 0 172 164 173 0 --195992473735542e-32
 -.011 .0022 0 0 -1 -1 0 0 .003 16 172 1034 174 ?175 176 168 169 0 0 1 31 173 95
6 0 127 169 177 0 +.00952627944162885 .0055 .0056 0 0 -1 -1 0 0 .003 16 127 908
 178 ?126 179 176 173 0 0 1 31 177 955 0 179 173 180 0 -.00952627944162885 .0055
 .0022 0 0 -1 -1 0 0 .003 16 179 906 181 ?182 183 127 177 0 0 1 31 180 828 0 184
 177 185 0 +.00952627944162881 -.0055 .0056 0 0 -1 -1 0 0 .003 16 184 780 186 ?1
87 188 183 180 0 0 1 31 185 827 0 188 180 189 0 -.00952627944162881 -.0055 .0022
 0 0 -1 -1 0 0 .003 16 188 778 190 ?191 192 184 185 0 0 1 31 189 700 0 193 185 1
94 0 +195992473735542e-32 .011 .0056 0 0 -1 -1 0 0 .003 16 193 652 195 ?196 197
 192 189 0 0 1 31 194 699 0 197 189 198 0 -195992473735542e-32 .011 .0022 0 0 -1
 -1 0 0 .003 16 197 650 199 ?200 201 193 194 0 0 1 31 198 572 0 202 194 203 0 +-
.00952627944162883 -.0055 .0056 0 0 -1 -1 0 0 .003 16 202 524 204 ?205 206 201 1
98 0 0 1 31 203 571 0 206 198 207 0 --.00952627944162883 -.0055 .0022 0 0 -1 -1
 0 0 .003 16 206 522 208 ?209 210 202 203 0 0 1 31 207 440 0 211 203 212 0 +0 0
 .0056 0 0 -1 -1 0 0 .005 16 211 411 213 ?214 215 210 207 0 0 1 31 212 438 0 216
 207 217 0 +0 0 .00175 0 0 -1 -1 0 0 .008 16 216 386 218 ?219 220 221 212 0 0 1
 31 217 194 0 222 212 223 0 -0 0 0 0 0 1 1 0 0 .0145 16 222 145 224 ?225 226 215
 217 0 0 1 31 223 192 0 215 217 227 0 +0 0 .0018 0 0 1 1 0 0 .0145 16 215 154 22
8 ?229 222 211 223 0 0 1 31 227 16 0 230 223 231 0 +0 0 .0029 0 0 -1 -1 0 0 .016
 16 230 12 232 ?233 234 226 227 0 0 1 31 231 44 0 234 227 235 0 +0 0 .0029 0 0 1
 1 0 0 .0149 16 234 41 236 ?237 238 230 231 0 0 1 31 235 122 0 226 231 239 0 -0
 0 .0018 0 0 1 1 0 0 .016 16 226 140 240 ?241 230 222 235 0 0 1 31 239 331 0 238
 235 242 0 +0 0 3e-4 0 0 -1 -1 0 0 .008 16 238 328 243 ?244 221 234 239 0 0 1 31
 242 339 0 221 239 245 0 -0 0 0 0 0 -1 -1 0 0 .00817320508075689 16 221 336 246
 ?247 216 238 242 0 0 1 31 245 493 0 210 242 248 0 +-.00952627944162883 -.0055 0
 0 0 -1 -1 0 0 .0017 16 210 515 249 ?250 211 206 245 0 0 1 31 248 621 0 201 245
 251 0 +195992473735542e-32 .011 0 0 0 -1 -1 0 0 .0017 16 201 643 252 ?253 202 1
97 248 0 0 1 31 251 749 0 192 248 254 0 +.00952627944162881 -.0055 0 0 0 -1 -1 0
 0 .0017 16 192 771 255 ?256 193 188 251 0 0 1 31 254 877 0 183 251 257 0 +.0095
2627944162885 .0055 0 0 0 -1 -1 0 0 .0017 16 183 899 258 ?259 184 179 254 0 0 1
 31 257 1005 0 176 254 260 0 +-195992473735542e-32 -.011 0 0 0 -1 -1 0 0 .0017 1
6 176 1027 261 ?262 127 172 257 0 0 1 31 260 1133 0 167 257 263 0 +-.00952627944
162882 .0055 0 0 0 -1 -1 0 0 .0017 16 167 1155 264 ?265 168 163 260 0 0 1 31 263
 1248 0 220 260 266 0 --.00952627944162883 -.0055 .00205 0 0 -1 -1 0 0 .0017 16
 220 1245 267 ?268 269 216 263 0 0 1 31 266 1256 0 269 263 270 0 +-.009526279441
62883 -.0055 .0022 0 0 -1 -1 0 0 .00185 16 269 1253 271 ?272 273 220 266 0 0 1 3
1 270 1264 0 273 266 274 0 --.00952627944162882 .0055 .00205 0 0 -1 -1 0 0 .0017
 16 273 1261 275 ?276 277 269 270 0 0 1 31 274 1272 0 277 270 278 0 +-.009526279
44162882 .0055 .0022 0 0 -1 -1 0 0 .00185 16 277 1269 279 ?280 281 273 274 0 0 1
 31 278 1280 0 281 274 282 0 --195992473735542e-32 -.011 .00205 0 0 -1 -1 0 0 .0
017 16 281 1277 283 ?284 285 277 278 0 0 1 31 282 1288 0 285 278 286 0 +-1959924
73735542e-32 -.011 .0022 0 0 -1 -1 0 0 .00185 16 285 1285 287 ?288 289 281 282 0
 0 1 31 286 1296 0 289 282 290 0 -195992473735542e-32 .011 .00205 0 0 -1 -1 0 0
 .0017 16 289 1293 291 ?292 293 285 286 0 0 1 31 290 1304 0 293 286 294 0 +19599
2473735542e-32 .011 .0022 0 0 -1 -1 0 0 .00185 16 293 1301 295 ?296 297 289 290
 0 0 1 31 294 1312 0 297 290 298 0 -.00952627944162881 -.0055 .00205 0 0 -1 -1 0
 0 .0017 16 297 1309 299 ?300 301 293 294 0 0 1 31 298 1320 0 301 294 302 0 +.00
952627944162881 -.0055 .0022 0 0 -1 -1 0 0 .00185 16 301 1317 303 ?304 305 297 2
98 0 0 1 31 302 1328 0 305 298 306 0 -.00952627944162885 .0055 .00205 0 0 -1 -1
 0 0 .0017 16 305 1325 307 ?308 309 301 302 0 0 1 31 306 1336 0 309 302 310 0 +.
00952627944162885 .0055 .0022 0 0 -1 -1 0 0 .00185 16 309 1333 311 ?312 313 305
 306 0 0 1 31 310 1494 0 313 306 314 0 +0 0 .00225 0 0 -1 -1 0 0 .005 16 313 149
1 315 ?316 317 309 310 0 0 1 31 314 1500 0 317 310 318 0 -0 0 .00175 0 0 -1 -1 0
 0 .00528867513459481 16 317 1497 319 ?320 321 313 314 0 0 1 31 318 1561 0 321 3
14 322 0 --.00952627944162882 .0055 .0047 0 0 -1 -1 0 0 .003 16 321 1559 323 ?32
4 325 317 318 0 0 1 30 322 1563 0 325 318 326 0 --.0065925096345892 .00612689290
895872 .00515 0 0 -1 16 325 1562 327 ?52 328 321 322 0 0 1 30 326 1566 0 328 322
 329 0 +-.00860229972271958 .00264583436376856 .00515 0 0 -1 16 328 1564 330 ?32
 24 325 326 0 0 1 31 329 2160 0 331 326 332 0 +0 0 .0047 0 0 -1 1 12246467991473
52e-31 0 .009 16 331 1873 333 ?334 111 31 329 0 0 1 31 332 2161 0 31 329 335 0 +
0 0 .0047 0 0 -1 1 1224646799147352e-31 0 .009 16 31 1848 336 ?25 331 337 332 0
 0 1 31 335 2162 0 338 332 339 0 -0 0 .0056 0 0 -1 1 1224646799147352e-31 0 .009
 16 338 1838 340 ?341 342 343 335 0 0 1 31 339 2163 0 337 335 344 0 +0 0 .0047 0
 0 -1 1 1224646799147352e-31 0 .009 16 337 1853 345 ?346 31 122 339 0 0 1 31 344
 2164 0 343 339 347 0 -0 0 .0056 0 0 -1 1 1224646799147352e-31 0 .009 16 343 180
3 348 ?349 338 350 344 0 0 1 31 347 2165 0 122 344 351 0 +0 0 .0047 0 0 -1 1 122
4646799147352e-31 0 .009 16 122 1858 352 ?353 337 108 347 0 0 1 31 351 2166 0 35
0 347 123 0 -0 0 .0056 0 0 -1 1 1224646799147352e-31 0 .009 16 350 1810 354 ?355
 343 356 351 0 0 1 31 123 2167 0 108 351 357 0 +0 0 .0047 0 0 -1 1 1224646799147
352e-31 0 .009 31 357 2168 0 356 123 358 0 -0 0 .0056 0 0 -1 1 1224646799147352e
-31 0 .009 16 356 1817 359 ?360 350 361 357 0 0 1 31 358 2169 0 361 357 19 0 -0
 0 .0056 0 0 -1 1 1224646799147352e-31 0 .009 16 361 1824 362 ?40 356 111 358 0
 0 1 31 19 2228 0 24 358 6 0 -0 0 .0047 0 0 -1 -1 0 0 .0147267949192431 16 24 22
25 363 ?364 9 328 19 0 0 1 81 1 363 2266 132 24 0 0 365 22 366 17 364 0 367 364
 364 0 368 24 0 0 +15 367 2226 0 364 107 27 17 368 0 369 368 368 0 364 24 0 0 -1
5 369 2251 0 368 17 0 14 255 17 2249 370 ?0 107 371 4 5 +0 0 0 107 21 81 1 370 2
360 372 17 373 0 374 0 375 14 107 2044 374 ?17 376 367 4 377 -0 0 17 376 21 15 3
71 2250 0 378 17 369 13 21 4 0 0 0 0 0 0 8 15 14 15 556 379 ?380 0 381 4 382 -0
 0 380 0 21 81 1 379 2274 372 15 383 0 0 384 385 14 380 684 384 ?386 15 387 4 38
8 -0 0 386 15 21 15 381 560 0 389 15 390 51 255 382 564 0 15 391 392 0 +-.009526
27944162883 -.0055 .0056 0 0 -1 .003 -1 0 0 50 255 391 565 0 393 394 382 0 +-.00
952627944162883 -.0055 .0022 0 0 -1 -1 0 0 50 392 434 0 395 382 396 0 +.005 0 .0
0175 0 0 -1 -1 0 0 14 395 418 397 ?398 399 400 4 392 +0 0 398 399 21 51 396 433
 0 399 392 401 0 -0 0 0 0 0 -1 .005 -1 0 0 14 399 413 402 ?395 403 404 4 396 +0
 0 395 403 21 51 401 307 0 405 396 406 0 +0 0 .0018 0 0 -1 .008 -1 0 0 14 405 29
8 407 ?408 409 410 4 401 -0 0 408 409 21 50 406 190 0 411 401 412 0 +0 0 .0018 0
 0 1 1 0 0 14 411 181 413 ?414 415 416 4 406 -0 0 414 415 21 51 412 189 0 415 40
6 417 0 +0 0 0 0 0 1 .0145 1 0 0 14 415 171 418 ?411 419 420 4 412 +0 0 411 419
 21 50 417 93 0 421 412 422 0 +0 0 .0056 0 0 1 1 0 0 14 421 79 423 ?419 424 425
 4 417 +0 0 419 424 21 51 422 92 0 419 417 426 0 +0 0 0 0 0 1 .0149 1 0 0 14 419
 85 427 ?415 421 428 4 422 +0 0 415 421 21 50 426 11 0 414 422 429 0 +0 0 0 0 0
 -1 -1 0 0 14 414 9 430 ?403 411 431 4 426 +0 0 403 411 21 50 429 17 0 408 426 4
32 0 +0 0 .0029 0 0 1 1 0 0 14 408 15 433 ?424 405 434 4 429 +0 0 424 405 21 51
 432 18 0 424 429 435 0 +0 0 0 0 0 1 .016 1 0 0 14 424 2 436 ?421 408 437 4 432
 +0 0 421 408 21 52 435 357 0 403 432 438 0 -0 0 3e-4 0 0 -1 .008 .5 .8660254037
84438 -1 0 0 14 403 350 439 ?399 414 440 4 435 +0 0 399 414 21 52 438 1371 0 441
 435 442 0 --.00952627944162883 -.0055 .00205 0 0 1 .0017 .707106781186544 .7071
06781186551 1 0 0 14 441 1364 443 ?444 445 446 4 438 +0 0 444 445 21 52 442 1384
 0 444 438 447 0 --.00952627944162882 .0055 .00205 0 0 1 .0017 .707106781186544
 .707106781186551 1 0 0 14 444 1377 448 ?449 441 450 4 442 +0 0 449 441 21 52 44
7 1397 0 449 442 451 0 --195992473735542e-32 -.011 .00205 0 0 1 .0017 .707106781
186545 .70710678118655 1 0 0 14 449 1390 452 ?453 444 454 4 447 +0 0 453 444 21
 52 451 1410 0 453 447 455 0 -195992473735542e-32 .011 .00205 0 0 1 .0017 .70710
6781186545 .70710678118655 1 0 0 14 453 1403 456 ?457 449 458 4 451 +0 0 457 449
 21 52 455 1423 0 457 451 459 0 -.00952627944162881 -.0055 .00205 0 0 1 .0017 .7
07106781186544 .707106781186551 1 0 0 14 457 1416 460 ?461 453 462 4 455 +0 0 46
1 453 21 52 459 1436 0 461 455 18 0 -.00952627944162885 .0055 .00205 0 0 1 .0017
 .707106781186544 .707106781186551 1 0 0 14 461 1429 463 ?464 457 465 4 459 +0 0
 464 457 21 52 18 1516 0 464 459 5 0 -0 0 .00225 0 0 -1 .005 .5 .866025403784439
 -1 0 0 14 464 1509 466 ?467 461 468 4 18 +0 0 467 461 21 81 1 466 2344 372 464
 469 0 463 470 471 14 467 1927 470 ?472 464 473 4 474 +472 376 472 464 21 15 468
 1510 0 475 464 476 17 475 0 468 475 475 0 320 317 0 0 -15 476 1511 0 477 464 0
 17 477 0 476 477 477 0 316 313 0 0 -17 316 0 404 316 316 0 477 313 0 0 +15 404
 1492 0 316 399 478 15 478 417 0 479 399 0 17 479 0 478 479 479 0 214 211 0 0 -1
7 214 0 480 214 214 0 479 211 0 0 +15 480 429 0 214 421 0 17 320 0 400 320 320 0
 475 317 0 0 +15 400 1498 0 320 395 481 15 481 421 0 219 395 0 17 219 0 481 219
 219 0 482 216 0 0 +17 482 0 483 482 482 0 219 216 0 0 -15 483 388 0 482 405 0 8
1 1 470 2346 372 467 484 0 466 485 486 14 472 1931 485 ?487 467 488 4 474 +487 4
67 487 467 21 15 473 1930 0 87 467 0 51 474 2051 0 467 377 489 0 +0 0 .0056 0 0
 -1 .009 -1 0 0 14 376 2035 490 ?107 118 491 4 474 +467 118 107 118 21 81 1 490
 2356 372 376 492 0 493 374 494 14 118 1943 493 ?376 495 35 4 474 +376 495 376 4
95 21 15 491 1950 0 70 376 0 17 70 0 491 67 496 68 497 137 0 498 +17 67 0 491 81
 70 65 498 342 0 499 -17 496 0 491 70 81 76 353 122 0 497 -17 497 0 500 109 501
 76 70 137 0 0 -17 498 0 425 187 171 68 67 342 0 501 +15 425 1691 0 498 421 480
 17 187 0 425 40 498 71 501 184 0 0 +17 171 0 425 498 341 65 502 168 0 0 +16 342
 1797 503 ?498 116 338 504 0 0 1 17 501 0 500 497 119 68 187 184 0 0 -15 500 162
9 0 119 386 0 17 119 0 500 501 109 71 75 120 0 187 -17 109 0 500 119 497 73 78 1
15 0 0 +17 78 0 27 353 103 76 109 115 0 496 -16 115 1860 505 ?109 506 106 507 0
 0 1 81 1 505 2185 132 115 0 0 508 354 509 16 506 1870 508 ?510 511 115 512 0 0
 1 31 507 2067 0 115 117 512 0 -.00952627944162881 -.0055 .0047 0 0 -1 -1 0 0 .0
03 31 117 2068 0 106 513 507 0 -.00952627944162885 .0055 .0047 0 0 -1 -1 0 0 .00
3 31 512 2066 0 506 507 514 0 -195992473735542e-32 .011 .0047 0 0 -1 -1 0 0 .003
 31 514 2065 0 511 512 142 0 --.00952627944162883 -.0055 .0047 0 0 -1 -1 0 0 .00
3 16 511 1850 134 ?515 140 506 514 0 0 1 30 142 2063 0 140 514 141 0 --.00200979
008813038 -.00877272727272727 .00515 0 0 -1 16 140 1788 516 ?64 130 511 142 0 0
 1 81 1 516 2199 132 140 0 0 330 121 517 17 64 0 473 61 518 62 519 140 0 341 +17
 61 0 473 87 64 59 341 338 0 520 -17 518 0 473 64 87 82 346 337 0 519 -17 519 0
 521 522 502 82 64 140 0 0 -17 341 0 425 171 205 62 61 338 0 502 +17 205 0 425 3
41 349 59 523 202 0 0 +17 502 0 521 519 499 62 171 168 0 0 -15 521 1587 0 499 52
4 0 17 499 0 521 502 522 65 81 130 0 171 -17 522 0 521 499 519 79 84 116 0 0 +17
 81 0 491 496 67 79 499 130 0 353 +17 353 0 27 84 78 79 496 122 0 522 +17 84 0 2
7 346 353 82 522 116 0 518 -17 346 0 27 29 84 85 518 337 0 515 +16 116 1855 525
 ?522 106 342 513 0 0 1 81 1 525 2197 132 116 0 0 158 330 526 31 513 2069 0 116
 527 117 0 --195992473735542e-32 -.011 .0047 0 0 -1 -1 0 0 .003 31 527 2070 0 11
1 504 513 0 +0 0 .0047 0 0 -1 1 1224646799147352e-31 0 .009 16 111 1884 528 ?104
 361 331 527 0 0 1 31 504 2072 0 342 0 527 0 -0 0 .0056 0 0 -1 1 122464679914735
2e-31 0 .009 81 1 528 2194 132 111 0 0 327 323 529 80 255 1 132 530 531 9000 1 1
 1 1 1 1 1 1 0 FFFFTFTFFFFFFF3 81 1 327 2193 132 325 0 0 352 528 532 81 1 323 21
95 132 321 0 0 528 158 533 84 255 32 529 febca3229c065da426aa02b585c53c6e81 1 15
8 2196 132 156 0 0 323 525 534 84 32 533 73ea4e39f321b0bd792ead8c14106dfb84 32 5
34 434208aab543e07de6bb96d5f9f7124e81 1 352 2192 132 122 0 0 333 327 535 84 32 5
32 7f3595b7de23fd6eff148528f5424e4381 1 333 2191 132 331 0 0 134 352 536 84 32 5
35 102ad6161bed6590cccc64db7196754481 1 134 2190 132 511 0 0 128 333 537 84 32 5
36 75c12b04d873c1942113b6d617f4425584 32 537 c99ecfad98e8f00a2b59bca9b4591a8f79
 255 15 531 UGS/ObjectState81 1 330 2198 132 328 0 0 525 516 538 84 32 526 a1215
6467cbac9fd37361c820ce545d184 32 538 7f36522f9e67a0460514e78447e2491e17 29 0 27
 25 346 88 515 511 0 30 -17 515 0 390 520 539 85 29 511 0 0 +15 390 1671 0 520 1
5 0 17 520 0 390 523 515 59 87 156 0 205 -17 539 0 390 515 523 88 58 153 0 0 -17
 523 0 390 539 520 56 205 202 0 0 -17 58 0 488 55 30 56 539 153 0 349 +15 488 19
34 0 58 472 0 17 55 0 488 32 58 53 349 343 0 540 -17 30 0 488 58 32 88 25 31 0 5
39 -17 349 0 425 205 162 56 55 343 0 523 +17 162 0 425 349 355 53 541 159 0 0 +1
7 355 0 425 162 196 50 49 350 0 541 +17 541 0 542 543 540 50 162 159 0 0 -15 542
 1565 0 540 409 0 17 543 0 542 324 541 90 52 325 0 0 -17 540 0 542 541 324 53 32
 328 0 162 -17 324 0 542 540 543 10 28 321 0 0 +17 32 0 488 30 55 10 540 328 0 3
24 +17 28 0 27 334 25 90 324 321 0 544 -17 334 0 27 97 28 92 544 331 0 510 +17 5
44 0 545 52 94 90 334 331 0 543 -15 545 1938 0 94 487 0 17 52 0 545 49 544 50 54
3 325 0 355 +17 94 0 545 544 49 92 546 150 0 334 +17 49 0 545 94 52 47 355 350 0
 546 -17 546 0 547 548 510 47 94 150 0 196 -15 547 1650 0 546 380 0 17 548 0 547
 549 546 42 196 193 0 0 -17 510 0 547 546 549 92 97 506 0 0 +17 196 0 425 355 36
0 47 548 193 0 0 +17 360 0 425 196 126 42 41 356 0 548 +17 126 0 425 360 40 34 1
24 127 0 0 +17 41 0 550 100 46 34 360 356 0 113 -15 550 1942 0 46 495 0 17 100 0
 550 110 41 98 113 129 0 104 +17 46 0 550 41 110 42 549 147 0 360 +17 113 0 112
 124 105 34 100 129 0 126 -17 110 0 550 46 100 95 104 111 0 549 -17 549 0 547 51
0 548 95 46 147 0 0 -14 495 1939 551 ?118 487 550 4 474 +118 487 118 487 21 81 1
 551 2352 372 495 552 0 553 493 554 14 487 1935 553 ?495 472 545 4 474 +495 472
 495 472 21 81 1 553 2350 372 487 555 0 485 551 556 80 1 372 0 557 8001 0 0 0 0
 3 5 0 0 0 FFFFTFTFFFFFFF2 81 1 555 2349 558 487 559 553 560 552 561 81 1 485 23
48 372 472 560 0 470 553 562 83 255 3 556 .6 .6 .6 81 1 560 2347 558 472 563 485
 484 555 564 83 3 562 .6 .6 .6 80 1 558 565 566 8015 0 0 0 0 3 5 0 0 0 FFFFTFFFF
FFFFF2 81 1 563 2217 132 472 0 560 567 568 569 81 1 484 2345 558 467 568 470 469
 560 570 83 1 564 0 81 1 568 2219 132 467 0 484 563 571 572 81 1 469 2343 558 46
4 573 466 574 484 575 83 1 570 0 81 1 573 1529 132 464 0 469 576 204 577 81 1 57
4 2341 558 461 578 463 579 469 580 83 1 575 0 81 1 578 1484 132 461 0 574 581 58
2 583 81 1 463 2342 372 461 574 0 460 466 584 81 1 579 2339 558 457 585 460 586
 574 587 83 1 580 0 81 1 585 1488 132 457 0 579 588 589 590 81 1 460 2340 372 45
7 579 0 456 463 591 81 1 586 2337 558 453 588 456 592 579 593 83 1 587 0 81 1 58
8 1487 132 453 0 586 594 585 595 81 1 456 2338 372 453 586 0 452 460 596 81 1 59
2 2335 558 449 582 452 597 586 598 83 1 593 0 81 1 582 1485 132 449 0 592 578 59
4 599 81 1 452 2336 372 449 592 0 448 456 600 81 1 597 2333 558 444 589 448 601
 592 602 83 1 598 0 81 1 589 1489 132 444 0 597 585 319 603 81 1 448 2334 372 44
4 597 0 443 452 604 81 1 601 2331 558 441 594 443 605 597 606 83 1 602 0 81 1 59
4 1486 132 441 0 601 582 588 607 81 1 443 2332 372 441 601 0 608 448 609 81 1 60
5 2329 558 445 581 608 610 601 611 83 1 606 0 14 445 1190 608 ?441 612 613 4 614
 -0 0 441 612 21 81 1 581 1483 132 445 0 605 615 578 616 81 1 608 2330 372 445 6
05 0 617 443 618 81 1 610 2327 558 612 619 617 620 605 621 83 1 611 0 14 612 118
4 617 ?445 622 623 4 489 -0 0 445 622 21 81 1 619 1477 132 612 0 610 624 625 626
 81 1 617 2328 372 612 610 0 627 608 628 81 1 620 2325 558 622 615 627 629 610 6
30 83 1 621 0 14 622 1062 627 ?612 631 632 4 633 -0 0 612 631 21 81 1 615 1482 1
32 622 0 620 634 581 635 81 1 627 2326 372 622 620 0 636 617 637 81 1 629 2323 5
58 631 624 636 638 620 639 83 1 630 0 14 631 1056 636 ?622 640 641 4 642 -0 0 62
2 640 21 81 1 624 1476 132 631 0 629 643 619 644 81 1 636 2324 372 631 629 0 645
 627 646 81 1 638 2321 558 640 634 645 647 629 648 83 1 639 0 14 640 934 645 ?63
1 649 650 4 651 -0 0 631 649 21 81 1 634 1481 132 640 0 638 652 615 653 81 1 645
 2322 372 640 638 0 654 636 655 81 1 647 2319 558 649 643 654 656 638 657 83 1 6
48 0 14 649 928 654 ?640 658 659 4 660 -0 0 640 658 21 81 1 643 1475 132 649 0 6
47 661 624 662 81 1 654 2320 372 649 647 0 663 645 664 81 1 656 2317 558 658 652
 663 665 647 666 83 1 657 0 14 658 806 663 ?649 667 668 4 669 -0 0 649 667 21 81
 1 652 1480 132 658 0 656 670 634 671 81 1 663 2318 372 658 656 0 672 654 673 81
 1 665 2315 558 667 661 672 674 656 675 83 1 666 0 14 667 800 672 ?658 676 677 4
 678 -0 0 658 676 21 81 1 661 1474 132 667 0 665 679 643 680 81 1 672 2316 372 6
67 665 0 681 663 682 81 1 674 2313 558 676 670 681 683 665 684 83 1 675 0 14 676
 678 681 ?667 685 686 4 687 -0 0 667 685 21 81 1 670 1479 132 676 0 674 625 652
 688 81 1 681 2314 372 676 674 0 689 672 690 81 1 683 2311 558 685 679 689 691 6
74 692 83 1 684 0 14 685 672 689 ?676 393 693 4 694 -0 0 676 393 21 81 1 679 147
3 132 685 0 683 695 661 696 81 1 689 2312 372 685 683 0 697 681 698 81 1 691 230
9 558 393 625 697 699 683 700 83 1 692 0 14 393 550 697 ?685 398 701 4 391 -0 0
 685 398 21 81 1 625 1478 132 393 0 691 619 670 702 81 1 697 2310 372 393 691 0
 703 689 704 81 1 699 2307 558 398 695 703 705 691 706 83 1 700 0 14 398 544 703
 ?393 395 707 4 394 -0 0 393 395 21 81 1 695 1472 132 398 0 699 279 679 708 81 1
 703 2308 372 398 699 0 397 697 709 81 1 705 2305 558 395 576 397 710 699 711 83
 1 706 0 81 1 576 1528 132 395 0 705 712 573 713 81 1 397 2306 372 395 705 0 402
 703 714 81 1 710 2303 558 399 712 402 715 705 716 83 1 711 0 81 1 712 1527 132
 399 0 710 315 576 717 81 1 402 2304 372 399 710 0 439 397 718 81 1 715 2301 558
 403 719 439 720 710 721 83 1 716 0 81 1 719 370 132 403 0 715 246 213 722 81 1
 439 2302 372 403 715 0 430 402 723 81 1 720 2299 558 414 724 430 725 715 726 83
 1 721 0 81 1 724 1234 132 414 0 720 165 307 727 81 1 430 2300 372 414 720 0 413
 439 728 81 1 725 2297 558 411 729 413 730 720 731 83 1 726 0 81 1 729 223 132 4
11 0 725 732 733 734 81 1 413 2298 372 411 725 0 418 430 735 81 1 730 2295 558 4
15 733 418 736 725 737 83 1 731 0 81 1 733 224 132 415 0 730 729 243 738 81 1 41
8 2296 372 415 730 0 427 413 739 81 1 736 2293 558 419 740 427 741 730 742 83 1
 737 0 81 1 740 2268 132 419 0 736 22 743 744 81 1 427 2294 372 419 736 0 423 41
8 745 81 1 741 2291 558 421 746 423 747 736 748 83 1 742 0 81 1 746 2210 132 421
 0 741 362 749 750 81 1 423 2292 372 421 741 0 436 427 751 81 1 747 2289 558 424
 732 436 752 741 753 83 1 748 0 81 1 732 222 132 424 0 747 240 729 754 81 1 436
 2290 372 424 747 0 433 423 755 81 1 752 2287 558 408 756 433 757 747 758 83 1 7
53 0 81 1 756 113 132 408 0 752 236 228 759 81 1 433 2288 372 408 752 0 407 436
 760 81 1 757 2285 558 405 761 407 762 752 763 83 1 758 0 81 1 761 461 132 405 0
 757 218 249 764 81 1 407 2286 372 405 757 0 765 433 766 81 1 762 2283 558 409 5
67 765 767 757 768 83 1 763 0 14 409 1196 765 ?405 524 769 4 770 -0 0 405 524 21
 81 1 567 2216 132 409 0 762 771 563 772 81 1 765 2284 372 409 762 0 773 407 774
 81 1 767 2281 558 524 771 773 775 762 776 83 1 768 0 14 524 1068 773 ?409 125 7
77 4 778 -0 0 409 125 21 81 1 771 2215 132 524 0 767 779 567 780 81 1 773 2282 3
72 524 767 0 781 765 782 81 1 775 2279 558 125 779 781 783 767 784 83 1 776 0 14
 125 940 781 ?524 386 785 4 786 -0 0 524 386 21 81 1 779 2214 132 125 0 775 787
 771 788 81 1 781 2280 372 125 775 0 789 773 790 81 1 783 2277 558 386 787 789 7
91 775 792 83 1 784 0 14 386 812 789 ?125 380 793 4 794 -0 0 125 380 21 81 1 787
 2213 132 386 0 783 795 779 796 81 1 789 2278 372 386 783 0 384 781 797 81 1 791
 2275 558 380 795 384 383 783 798 83 1 792 0 81 1 795 2212 132 380 0 791 749 787
 799 81 1 384 2276 372 380 791 0 379 789 800 81 1 383 2273 558 15 749 379 0 791
 801 83 1 798 0 81 1 749 2211 132 15 0 383 746 795 802 83 1 801 0 84 32 802 e725
461a05c446bd322c70cad1193d6b83 3 800 .6 .6 .6 84 32 799 51bbb237e7216517163e936e
866ccc5383 3 797 .6 .6 .6 84 32 796 13ff4a84b269bdfbd625663dca4938a515 793 816 0
 803 386 500 51 794 820 0 386 669 694 0 +.00952627944162881 -.0055 .0056 0 0 -1
 .003 -1 0 0 50 669 821 0 658 678 794 0 +.00952627944162881 -.0055 .0022 0 0 -1
 -1 0 0 51 694 694 0 685 794 687 0 +195992473735542e-32 .011 -.01973899731576365
 0 0 -1 .0017 -1 0 0 50 687 693 0 676 694 388 0 +195992473735542e-32 .011 .0022
 0 0 -1 -1 0 0 51 388 692 0 380 687 394 0 +195992473735542e-32 .011 .0056 0 0 -1
 .003 -1 0 0 51 394 566 0 398 388 391 0 +-.00952627944162883 -.0055 -.0197389973
1576365 0 0 -1 .0017 -1 0 0 51 678 822 0 667 786 669 0 +.00952627944162881 -.005
5 -.0197389973157636 0 0 -1 .0017 -1 0 0 51 786 948 0 125 651 678 0 +.0095262794
4162885 .0055 .0056 0 0 -1 .003 -1 0 0 50 651 949 0 640 660 786 0 +.009526279441
62885 .0055 .0022 0 0 -1 -1 0 0 51 660 950 0 649 778 651 0 +.00952627944162885 .
0055 -.01973899731576365 0 0 -1 .0017 -1 0 0 51 778 1076 0 524 633 660 0 +-19599
2473735542e-32 -.011 .0056 0 0 -1 .003 -1 0 0 50 633 1077 0 622 642 778 0 +-1959
92473735542e-32 -.011 .0022 0 0 -1 -1 0 0 51 642 1078 0 631 770 633 0 +-19599247
3735542e-32 -.011 -.01973899731576365 0 0 -1 .0017 -1 0 0 51 770 1204 0 409 614
 642 0 +-.00952627944162882 .0055 .0056 0 0 -1 .003 -1 0 0 50 614 1205 0 445 489
 770 0 +-.00952627944162882 .0055 .0022 0 0 -1 -1 0 0 51 489 1206 0 612 474 614
 0 +-.00952627944162882 .0055 -.01973899731576365 0 0 -1 .0017 -1 0 0 17 803 0 7
93 803 803 0 191 188 0 0 -17 191 0 804 191 191 0 803 188 0 0 +15 804 811 0 191 6
58 0 83 3 790 .6 .6 .6 84 32 788 161049c6b74cb7330ac6dda191b5523515 785 944 0 80
5 125 112 17 805 0 785 805 805 0 182 179 0 0 -17 182 0 806 182 182 0 805 179 0 0
 +15 806 939 0 182 640 0 83 3 782 .6 .6 .6 84 32 780 2390f787ca9f79885ee6d7c8dd9
050b815 777 1072 0 807 524 521 17 807 0 777 807 807 0 175 172 0 0 -17 175 0 808
 175 175 0 807 172 0 0 +15 808 1067 0 175 622 0 83 3 774 .6 .6 .6 84 32 772 f951
daf2eb37fcaff133f31c7bf95d5615 769 1200 0 809 409 542 17 809 0 769 809 809 0 166
 163 0 0 -17 166 0 810 166 166 0 809 163 0 0 +15 810 1195 0 166 445 0 83 3 766 .
6 .6 .6 81 1 218 458 132 216 0 0 213 761 811 81 1 249 590 132 210 0 0 761 208 81
2 84 32 764 d16f860943f0b67bb0c21bc0b3fb389181 1 208 592 132 206 0 0 249 252 813
 84 32 812 dd451718ed101f710135fdbc77c3624a81 1 252 718 132 201 0 0 208 199 814
 84 32 813 3ffdb77f46bca96ba5afa9fd97ec5e9081 1 199 721 132 197 0 0 252 255 815
 84 32 814 9bf62496bba0f31313c44e2af670d50b81 1 255 846 132 192 0 0 199 190 816
 84 32 815 556c3190cb92ee219bf66e49a527da5281 1 190 848 132 188 0 0 255 258 817
 84 32 816 53c0f7a9d5ab1e53bf17b5cce32b8bf281 1 258 974 132 183 0 0 190 181 818
 84 32 817 fe218a05a3ecc0f328cd1231406cb47281 1 181 977 132 179 0 0 258 261 819
 84 32 818 ccd91a9c8875facfeee62c383fdcc14c81 1 261 1102 132 176 0 0 181 174 820
 84 32 819 0b3907fcf2c5a54f50dbfa2b0bbb247d81 1 174 1105 132 172 0 0 261 264 821
 84 32 820 757f1b9d62a5429220d146077aa9d76181 1 264 1230 132 167 0 0 174 165 822
 84 32 821 27d0de6e8fa58f77fcb10f5de0e6847981 1 165 1232 132 163 0 0 264 724 823
 84 32 822 5c30c2ddff28a08ea6cbcc3d618056bd84 32 823 ebfcafd6ad3fa741dd5c44e04c9
5ca9781 1 213 457 132 211 0 0 719 218 824 84 32 811 0f8e9cefc84d7079ad395da81568
d2ee84 32 824 72d87091a73bf6e97999a97c8bf5132f83 3 760 .6 .6 .6 81 1 236 109 132
 234 0 0 232 756 825 81 1 228 218 132 215 0 0 756 224 826 84 32 759 8ae3413c46b3
965e7b412c20ded5c72b81 1 224 219 132 222 0 0 228 240 827 84 32 826 bb8e0dc5ab1f6
d299558b41ade8e8a1781 1 240 220 132 226 0 0 224 732 828 84 32 827 7fe74be601b140
877eff2e7729b3021584 32 828 a42760aaccb788b6e338fcc6d81ee2ef81 1 232 29 132 230
 0 0 0 236 829 84 32 825 659a0edc707d6e2da802e31e56715f5284 32 829 22ae944bf2193
0509e8b8f5fb9df68e383 3 755 .6 .6 .6 84 32 754 18a6fc07917ecf5c320ede80451515cc8
3 3 751 .6 .6 .6 81 1 362 2208 132 361 0 0 359 746 830 84 32 750 5db1063f7aeef03
eb0151b03cdf7555f81 1 359 2207 132 356 0 0 146 362 831 84 32 830 04230da48884f55
3d02d1aa4b6eb783381 1 146 2206 132 120 0 0 149 359 832 84 32 831 4dfd15ee3d7fd7f
a329bc26993e31ab181 1 149 2205 132 147 0 0 503 146 833 84 32 832 57135d974859c3b
48bbd300b0b43f15b81 1 503 2204 132 342 0 0 152 149 834 84 32 833 1e6a6cb317f8422
6d3e5087f566a5dcd81 1 152 2203 132 150 0 0 139 503 835 84 32 834 d5bd8faa573c354
992742ed63019949281 1 139 2202 132 130 0 0 136 152 836 84 32 835 e7fde6fad7f6d2a
6c53cfff57302b95981 1 136 2201 132 129 0 0 121 139 837 84 32 836 73f2b976ba7e4e3
51b9120e7b39521a981 1 121 2200 132 108 0 0 516 136 838 84 32 837 364787b2f2efcad
9fc9b42937e99b3f884 32 838 164ebd8bb2a56d6c5406b16808dc534183 3 745 .6 .6 .6 81
 1 22 2267 132 9 0 0 363 740 839 81 1 743 2269 132 107 0 840 740 841 842 84 32 7
44 07822efdc17df650acb4f47ee4526c0881 1 840 2357 558 107 743 374 492 373 843 81
 1 841 2270 132 17 0 373 743 0 844 84 32 842 2cc326ae1c6c4275693e52ba67f6642381
 1 373 2359 558 17 841 370 840 0 845 84 32 844 0d589744b5a557fd05209acbb119fedc8
3 1 845 0 81 1 374 2358 372 107 840 0 490 370 846 81 1 492 2355 558 376 571 490
 847 840 848 83 1 843 0 81 1 571 2220 132 376 0 492 568 849 850 81 1 847 2353 55
8 118 365 493 552 492 851 83 1 848 0 81 1 365 2223 132 118 0 847 559 363 852 81
 1 493 2354 372 118 847 0 551 490 853 81 1 552 2351 558 495 849 551 555 847 854
 83 1 851 0 81 1 849 2221 132 495 0 552 571 559 855 83 1 854 0 81 1 559 2222 132
 487 0 555 849 365 856 84 32 855 79edfac48c0d3ef2b04fbfbb2f57874e84 32 856 0ce07
5c82ff5c19d0b5d045cb088163183 3 853 .6 .6 .6 84 32 852 06c694d66d1fd91d4a9115e97
65ab45384 32 850 63e101e48f5bb4aeeb295cac222f4c3f83 3 846 .6 .6 .6 84 32 839 ae1
1d3ebc8bc63b950f7c544040dce8783 3 739 .6 .6 .6 81 1 243 366 132 238 0 0 733 246
 857 84 32 738 d0335f10706e5b936e37fc83a18d809481 1 246 367 132 221 0 0 243 719
 858 84 32 857 5c242e6e1ac4de19b39d4ff6cb0efc7684 32 858 22459597f9532a5a18b8d1e
81b2f8ae883 3 735 .6 .6 .6 84 32 734 cd9f0e8c88094ba2ee942676245a1e5083 3 728 .6
 .6 .6 81 1 307 1460 132 305 0 0 724 267 859 84 32 727 fdfcc502fc45cd98c88f2f7d8
50d1c5a81 1 267 1461 132 220 0 0 307 295 860 84 32 859 cc8d0d610030f365766bf062c
8c0f7dc81 1 295 1462 132 293 0 0 267 275 861 84 32 860 cdc1704988c128a05cdb8f5a2
ffdbf5c81 1 275 1463 132 273 0 0 295 287 862 84 32 861 07cf5ccf0597a3cc2f8861d1d
c20799c81 1 287 1464 132 285 0 0 275 303 863 84 32 862 76cd2d1da37b0498d13395251
e519d0081 1 303 1465 132 301 0 0 287 283 864 84 32 863 f01a6dc137d37135bb5e942fb
bfd624a81 1 283 1466 132 281 0 0 303 311 865 84 32 864 6b1e4e32096586786ab32368e
c1f540481 1 311 1467 132 309 0 0 283 291 866 84 32 865 ca4a16ee239eee3fa0e0bf5af
52ccd1681 1 291 1468 132 289 0 0 311 271 867 84 32 866 ec1caf6d2f5fcf42b7939ba92
994994b81 1 271 1469 132 269 0 0 291 299 868 84 32 867 cff873f0816c3b7f48b04807d
cdf406281 1 299 1470 132 297 0 0 271 279 869 84 32 868 104b648a1be7588bf4c7f6baa
747e78681 1 279 1471 132 277 0 0 299 695 870 84 32 869 bd414555ab2c1edbed92ccf6b
e17092984 32 870 3a60a4366b355708141dfb855af59d4483 3 723 .6 .6 .6 84 32 722 49e
6d27b253566606a7a32cb820c476583 3 718 .6 .6 .6 81 1 315 1526 132 313 0 0 319 712
 871 84 32 717 4b131cb6ed198d0be2599a379fe7e52381 1 319 1525 132 317 0 0 589 315
 872 84 32 871 5a619f7de8854b96d48ddabb06a0a64e84 32 872 79cfdec0adc7dec4bb4787d
511a2c41683 3 714 .6 .6 .6 84 32 713 ca59b8344605682fe5a15d7e8911a57583 3 709 .6
 .6 .6 84 32 708 4ffdae49a17bd59b453424248d16bea215 707 1246 0 268 398 873 17 26
8 0 707 268 268 0 874 220 0 0 +15 873 548 0 250 398 0 17 250 0 873 250 250 0 875
 210 0 0 +17 875 0 876 875 875 0 250 210 0 0 -15 876 492 0 875 414 877 15 877 33
7 0 247 414 878 17 247 0 877 247 247 0 879 221 0 0 +15 878 127 0 225 414 0 17 22
5 0 878 225 225 0 880 222 0 0 +17 880 0 420 880 880 0 225 222 0 0 -15 420 174 0
 880 415 881 15 881 175 0 882 415 0 17 882 0 881 882 882 0 229 215 0 0 -17 229 0
 883 229 229 0 882 215 0 0 +15 883 185 0 229 411 0 17 879 0 440 879 879 0 247 22
1 0 0 -15 440 351 0 879 403 884 15 884 352 0 885 403 0 17 885 0 884 885 885 0 24
4 238 0 0 -17 244 0 410 244 244 0 885 238 0 0 +15 410 329 0 244 405 483 17 874 0
 886 874 874 0 268 220 0 0 -15 886 1366 0 874 441 0 83 3 704 .6 .6 .6 84 32 702
 a3d5ff0900af75f75d89c896d80165f115 701 1254 0 272 393 887 17 272 0 701 272 272
 0 888 269 0 0 +15 887 555 0 209 393 0 17 209 0 887 209 209 0 389 206 0 0 +17 38
9 0 381 389 389 0 209 206 0 0 -17 888 0 446 888 888 0 272 269 0 0 -15 446 1365 0
 888 441 886 83 3 698 .6 .6 .6 84 32 696 af153d1e457739cb16e56284139316a615 693
 1294 0 292 685 889 17 292 0 693 292 292 0 890 289 0 0 +15 889 676 0 253 685 0 1
7 253 0 889 253 253 0 891 201 0 0 +17 891 0 892 891 891 0 253 201 0 0 -15 892 62
0 0 891 414 876 17 890 0 893 890 890 0 292 289 0 0 -15 893 1405 0 890 453 0 83 3
 690 .6 .6 .6 84 32 688 28e312cc04609b8d6b63e46904554c8d15 686 1302 0 296 676 89
4 17 296 0 686 296 296 0 895 293 0 0 +15 894 683 0 200 676 0 17 200 0 894 200 20
0 0 896 197 0 0 +17 896 0 387 896 896 0 200 197 0 0 -15 387 688 0 896 380 547 17
 895 0 458 895 895 0 296 293 0 0 -15 458 1404 0 895 453 893 83 3 682 .6 .6 .6 84
 32 680 4031fa4b014c283bf2730d163d949ebd15 677 1310 0 300 667 897 17 300 0 677 3
00 300 0 898 297 0 0 +15 897 804 0 256 667 0 17 256 0 897 256 256 0 899 192 0 0
 +17 899 0 900 899 899 0 256 192 0 0 -15 900 748 0 899 414 892 17 898 0 901 898
 898 0 300 297 0 0 -15 901 1418 0 898 457 0 83 3 673 .6 .6 .6 84 32 671 73a68e36
bf95c56206c3a52d4a559ee415 668 1318 0 304 658 804 17 304 0 668 304 304 0 902 301
 0 0 +17 902 0 462 902 902 0 304 301 0 0 -15 462 1417 0 902 457 901 83 3 664 .6
 .6 .6 84 32 662 7cf3be84974ea77e87f71fa644a0245715 659 1326 0 308 649 903 17 30
8 0 659 308 308 0 904 305 0 0 +15 903 932 0 259 649 0 17 259 0 903 259 259 0 905
 183 0 0 +17 905 0 906 905 905 0 259 183 0 0 -15 906 876 0 905 414 900 17 904 0
 907 904 904 0 308 305 0 0 -15 907 1431 0 904 461 0 83 3 655 .6 .6 .6 84 32 653
 1c988ec1ebb3fb75743b3e95c7bcd27415 650 1334 0 312 640 806 17 312 0 650 312 312
 0 908 309 0 0 +17 908 0 465 908 908 0 312 309 0 0 -15 465 1430 0 908 461 907 83
 3 646 .6 .6 .6 84 32 644 ff365ca390362fb430f6885b66cc1f7415 641 1278 0 284 631
 909 17 284 0 641 284 284 0 910 281 0 0 +15 909 1060 0 262 631 0 17 262 0 909 26
2 262 0 911 176 0 0 +17 911 0 912 911 911 0 262 176 0 0 -15 912 1004 0 911 414 9
06 17 910 0 913 910 910 0 284 281 0 0 -15 913 1392 0 910 449 0 83 3 637 .6 .6 .6
 84 32 635 e3b1c9626c5608f94e5711f8a4995dda15 632 1286 0 288 622 808 17 288 0 63
2 288 288 0 914 285 0 0 +17 914 0 454 914 914 0 288 285 0 0 -15 454 1391 0 914 4
49 913 83 3 628 .6 .6 .6 84 32 626 7577bd58dd199526b53af1492955146a15 623 1262 0
 276 612 915 17 276 0 623 276 276 0 916 273 0 0 +15 915 1188 0 265 612 0 17 265
 0 915 265 265 0 917 167 0 0 +17 917 0 431 917 917 0 265 167 0 0 -15 431 1132 0
 917 414 912 17 916 0 918 916 916 0 276 273 0 0 -15 918 1379 0 916 444 0 83 3 61
8 .6 .6 .6 84 32 616 883e3e2c7ba489b25e21a44769d1b64115 613 1270 0 280 445 810 1
7 280 0 613 280 280 0 919 277 0 0 +17 919 0 450 919 919 0 280 277 0 0 -15 450 13
78 0 919 444 918 83 3 609 .6 .6 .6 84 32 607 1e7d43879c268837e87fea5c5169b1ff83
 3 604 .6 .6 .6 84 32 603 1d87b9634d510bce88ed1851dad33ac483 3 600 .6 .6 .6 84 3
2 599 45d0329ac09f8bd9bb9c532d7f1d08fd83 3 596 .6 .6 .6 84 32 595 9f7e48c09f4b61
bdde37577cf30fbb5b83 3 591 .6 .6 .6 84 32 590 0e2f7a2a3c5da32be6affe7205fd358d83
 3 584 .6 .6 .6 84 32 583 f5a3a741850bcf6ee135b1da7451ce0581 1 204 2173 132 202
 0 0 573 195 920 84 32 577 63631e4cde8636df8f53e519990a2c6a81 1 195 2174 132 193
 0 0 204 186 921 84 32 920 21716f3f550cf6582844b9f1c69f01a981 1 186 2175 132 184
 0 0 195 178 922 84 32 921 cd79cba90ea60b07072304848bdc73ff81 1 178 2176 132 127
 0 0 186 170 923 84 32 922 826c7e19505cb54e7ab268718e03898f81 1 170 2177 132 168
 0 0 178 161 924 84 32 923 bb545f2d6081c5ce095d30705e70e72181 1 161 2178 132 159
 0 0 170 345 925 84 32 924 832884e585cb474cddc41494458e6a6d81 1 345 2179 132 337
 0 0 161 340 926 84 32 925 25066a4d8a8f2391becb88e52fb5840281 1 340 2180 132 338
 0 0 345 336 927 84 32 926 428d822272da45395d18f740caa6651181 1 336 2181 132 31
 0 0 340 348 928 84 32 927 32a4c877ab109f3e9eb6fc1abb608d0681 1 348 2182 132 343
 0 0 336 114 929 84 32 928 ef0a0359d1cdb4117db8eb8e5e99998f81 1 114 2183 132 106
 0 0 348 508 930 84 32 929 53e8aee9f1407fd82c505f831672abbb81 1 508 2184 132 506
 0 0 114 505 931 84 32 930 050013cad95e4d2cd9deec4ac02053e184 32 931 bdc57021759
9111778aea2fd83dee0e884 32 572 ede688a4fd8afe31336e8a862528b14f84 32 569 2847670
29d5a4cfec529072fdd80192c79 21 566 SDL/TYSA_TRANSLUCENCY83 1 561 0 79 15 557 SDL
/TYSA_COLOUR83 3 554 .6 .6 .6 17 40 0 425 126 187 26 36 361 0 124 +17 36 0 35 75
 33 71 40 361 0 119 -17 97 0 27 104 334 95 510 506 0 110 -17 87 0 473 518 61 85
 520 156 0 346 +84 32 517 ea2163e1e8f79f623d9dcdb26b8bc1fd81 1 354 2186 132 350
 0 0 505 155 932 84 32 509 2295dbbe1d23b3dd2410fc6beef8468381 1 155 2187 132 153
 0 0 354 133 933 84 32 932 d5088c0e0a78a76ba3b92769f1f076fe81 1 133 2188 132 137
 0 0 155 128 934 84 32 933 3725f291c7a07f0feab5b11d5f0a0b8384 32 934 da4d9ed737f
f5e11ecf8efdd5449735283 3 494 .6 .6 .6 50 377 2052 0 107 0 474 0 +0 0 .0047 0 0
 -1 -1 0 0 83 3 486 .6 .6 .6 83 3 471 .6 .6 .6 15 437 121 0 935 424 936 17 935 0
 437 935 935 0 241 226 0 0 -15 936 13 0 233 424 0 17 233 0 936 233 233 0 937 230
 0 0 +17 937 0 938 937 937 0 233 230 0 0 -15 938 14 0 937 408 0 17 241 0 416 241
 241 0 935 226 0 0 +15 416 184 0 241 411 883 15 434 43 0 939 408 938 17 939 0 43
4 939 939 0 237 234 0 0 -17 237 0 940 237 237 0 939 234 0 0 +15 940 88 0 237 419
 0 15 428 2234 0 23 419 940 17 23 0 428 23 23 0 378 9 0 0 +17 378 0 371 378 378
 0 23 9 0 0 -83 3 385 .6 .6 .6 83 3 375 .6 .6 .6 84 32 366 5b77e44e06f0d7a4134fe
e8404ad06cb84 32 135 a8631e7cd4e7e883d4d422f7ff1b222a19 16 5 0 1 0 8 4 S0 74 4 C
I16 index_map_offset0 0 1 dCCZ20 14 6 0 0 841 941 12 373 370 2 0 0 0 0 0 0 0 0 0
 0 0 0 0 0 81 2 941 2265 942 1 0 12 0 0 943 944 81 1 12 2272 945 1 941 2 0 0 946
 80 1 945 947 948 9000 0 0 0 0 3 5 0 0 0 FFTFFFFFFFFFFF1 82 255 1 946 -1 79 19 9
48 UG2/PMARK_ATTRIBUTE80 2 942 949 950 8004 0 0 0 0 3 5 0 0 0 FFTFFFFFFFFFFF2 3
 83 1 943 .001 84 8 944 Kg/Cu M 79 16 950 SDL/TYSA_DENSITY80 1 11 951 952 9000 0
 0 0 0 3 5 0 0 0 FFTFFFFFFFFFFF1 82 1 13 87 79 24 952 UG2/BODY_COLOR_ATTRIBUTE1
 0 
