**ABCDEFGHIJKLMNOPQRSTUVWXYZabcdefghijklmnopqrstuvwxyz**************************
**PARASOLID !"#$%&'()*+,-./:;<=>?@[\]^_`{|}~0123456789**************************
**PART1;
MC=x64/Windows NT;
MC_MODEL=genuineintel family 6 model 10 stepping 5, intel(r) xeon(r) cpu           w3550  @ 3.07ghz;
MC_ID=pc1401;
OS=windows nt (x64);
OS_RELEASE=6.3 windows 10 enterprise (build 17763) ;
FRU=mdc_ugii_v7.0_djl_can_vrh;
APPL=unigraphics;
SITE=unknown;
USER=huge;
FORMAT=text;
GUISE=transmit;
KEY=32-GPT_flange_e;
FILE=D:\Daten-Huge\PLM_Export\A_Internet_Modelle\Getriebe\32-x\32-GPT\32-GPT_flange_e.x_t;
DATE=23-jul-2019;
**PART2;
SCH=SCH_3001232_30100;
USFLD_SIZE=0;
**PART3;
**END_OF_HEADER*****************************************************************
T51 : TRANSMIT FILE created by modeller version 300123223 SCH_3001232_30100_1300
6214 0 12 34 CCCCCCI4 mesh1006 0 I8 polyline1008 0 CCCCCCCDI5 owner1040 0 CCCCCC
I13 boundary_mesh1006 0 I17 boundary_polyline1008 0 CCCA16 index_map_offset0 0 1
 dA9 index_map82 0 A17 node_id_index_map82 0 A20 schema_embedding_map82 0 A5 chi
ld12 0 A14 lowest_node_id0 0 1 dA16 mesh_offset_data206 0 Z1 2326 2 3 0 0 0 0 0
 0 1e3 1e-8 0 0 0 1 0 1 1 4 5 6 7 0 0 8 9 10 0 0 0 0 0 0 0 81 255 1 2 2326 11 1
 12 0 0 0 13 70 11 CI9 list_type0 0 1 uI10 notransmit0 0 1 lCCCDCCDI12 finger_in
dex0 0 1 dI12 finger_block1012 0 CZ3 0 4 T1 0 0 6 20 1 14 14 13 255 4 3 0 1 0 15
 0 0 16 0 52 255 5 2223 0 17 18 0 0 +0 0 .0089 0 0 -1 .0147267949192431 .5 .8660
25403784438 -1 0 0 31 255 6 2203 0 9 19 0 0 +0 0 .0086 0 0 -1 -1 0 0 .0149 29 25
5 7 1527 0 10 20 0 -.0086369915872719 .002530291746300105 .0089 19 8 CCCCCCCA5 o
wner12 0 Z8 1 0 1 16 0 21 V0 16 255 9 2200 22 ?23 0 24 6 0 0 1 18 255 10 1525 0
 25 0 26 7 ?1 17 255 25 0 27 28 29 10 30 31 0 32 +18 26 1887 0 33 10 34 20 ?1 17
 33 0 35 36 37 26 38 39 0 40 +18 34 1877 0 41 26 42 43 ?1 29 20 2041 0 26 43 7 .
00863699158727191 .002530291746300075 .0098 29 43 2042 0 34 44 20 .0065097927249
1796 .00621470825369986 .0098 29 44 2043 0 42 45 43 .002127198862353965 .008745
 .0098 18 42 1883 0 46 34 47 44 ?1 29 45 2044 0 47 48 44 -.00212719886235396 .00
8745 .0098 18 47 1874 0 49 42 50 45 ?1 29 48 2045 0 50 51 45 -.00650979272491793
 .0062147082536999 .0098 18 50 1893 0 52 47 53 48 ?1 29 51 2046 0 53 54 48 -.008
6369915872719 .002530291746300105 .0098 18 53 1873 0 55 50 56 51 ?1 29 54 2047 0
 56 57 51 -.0086369915872719 -.0025302917463001 .0098 18 56 1889 0 58 53 59 54 ?
1 29 57 2048 0 59 60 54 -.00650979272491794 -.00621470825369988 .0098 18 59 1870
 0 61 56 62 57 ?1 29 60 2049 0 62 63 57 -.002127198862353965 -.008745 .0098 18 6
2 1891 0 64 59 65 60 ?1 29 63 2050 0 65 66 60 .00212719886235396 -.008745 .0098
 18 65 1881 0 67 62 68 63 ?1 29 66 2051 0 68 69 63 .00650979272491792 -.00621470
825369991 .0098 18 68 1885 0 70 65 71 66 ?1 29 69 2052 0 71 72 66 .0086369915872
7189 -.002530291746300135 .0098 18 71 1878 0 36 68 73 69 ?1 29 72 2053 0 73 74 6
9 .00863699158727189 -.002530291746300135 .0089 18 73 1884 0 75 71 76 72 ?1 29 7
4 2054 0 76 77 72 .00650979272491792 -.00621470825369991 .0089 18 76 1880 0 78 7
3 79 74 ?1 29 77 2055 0 79 80 74 .00212719886235396 -.008745 .0089 18 79 1890 0
 81 76 82 77 ?1 29 80 2056 0 82 83 77 -.002127198862353965 -.008745 .0089 18 82
 1871 0 84 79 85 80 ?1 29 83 2057 0 85 86 80 -.00650979272491794 -.0062147082536
9988 .0089 18 85 1888 0 87 82 88 83 ?1 29 86 2058 0 88 89 83 -.0086369915872719
 -.0025302917463001 .0089 18 88 1872 0 29 85 90 86 ?1 29 89 2060 0 90 91 86 -.00
650979272491793 .0062147082536999 .0089 18 90 1875 0 28 88 92 89 ?1 29 91 2061 0
 92 93 89 -.00212719886235396 .008745 .0089 18 92 1882 0 94 90 95 91 ?1 29 93 20
62 0 95 96 91 .002127198862353965 .008745 .0089 18 95 1876 0 97 92 98 93 ?1 29 9
6 2063 0 98 99 93 .00650979272491796 .00621470825369986 .0089 18 98 1886 0 100 9
5 101 96 ?1 29 99 2064 0 101 0 96 .00863699158727191 .002530291746300075 .0089 1
8 101 1879 0 102 98 0 99 ?1 17 102 0 27 103 104 101 105 106 0 37 -15 255 27 1976
 0 25 107 0 17 103 0 27 78 102 73 37 108 0 109 +17 104 0 27 102 97 98 110 111 0
 105 +17 105 0 112 113 38 98 102 106 0 0 +16 106 1832 114 ?105 115 116 117 0 0 1
 17 37 0 35 33 75 101 103 108 0 38 -15 35 1913 0 75 118 0 17 75 0 35 37 36 73 11
9 120 0 103 +16 108 1830 121 ?103 122 0 123 0 0 1 17 38 0 112 105 124 101 33 39
 0 0 -15 112 1575 0 113 125 0 17 124 0 112 38 113 26 126 127 0 0 -16 39 1743 128
 ?33 129 130 131 0 0 1 81 1 128 2156 132 39 0 0 133 134 135 16 129 1740 136 ?100
 137 39 138 0 0 1 16 130 1752 139 ?81 39 140 141 0 0 1 30 255 131 2028 0 39 141
 138 0 -.00863699158727191 .002530291746300075 .00935 0 0 -1 30 141 2029 0 130 1
42 131 0 +.002127198862353965 -.008745 .00935 0 0 -1 30 138 2027 0 129 131 143 0
 +.00650979272491796 .00621470825369986 .00935 0 0 -1 30 143 2026 0 137 138 144
 0 -.00650979272491792 -.00621470825369991 .00935 0 0 -1 16 137 1737 133 ?70 120
 129 143 0 0 1 30 144 2025 0 120 143 145 0 +.00863699158727189 -.002530291746300
135 .00935 0 0 -1 16 120 1734 146 ?75 147 137 144 0 0 1 30 145 2024 0 147 144 14
8 0 -.00212719886235397 .008745 .00935 0 0 -1 16 147 1731 149 ?46 150 120 145 0
 0 1 30 148 2023 0 150 145 151 0 +-.002127198862353965 .008745 .00935 0 0 -1 16
 150 1728 152 ?94 153 147 148 0 0 1 30 151 2022 0 153 148 154 0 --.0086369915872
719 -.0025302917463001 .00935 0 0 -1 16 153 1749 155 ?58 156 150 151 0 0 1 30 15
4 2021 0 156 151 157 0 +-.00650979272491794 -.00621470825369989 .00935 0 0 -1 16
 156 1746 158 ?87 159 153 154 0 0 1 31 157 1219 0 159 154 160 0 +-.0095262794416
2882 .0055 .0098 0 0 -1 -1 0 0 .0031 16 159 1171 161 ?162 163 156 157 0 0 1 31 1
60 1218 0 163 157 164 0 --.00952627944162882 .0055 .0052 0 0 -1 -1 0 0 .0031 16
 163 1169 165 ?166 167 159 160 0 0 1 31 164 1088 0 168 160 169 0 +-1959924737355
42e-32 -.011 .0098 0 0 -1 -1 0 0 .0031 16 168 1040 170 ?171 172 167 164 0 0 1 31
 169 1087 0 172 164 173 0 --195992473735542e-32 -.011 .0052 0 0 -1 -1 0 0 .0031
 16 172 1038 174 ?175 176 168 169 0 0 1 31 173 960 0 127 169 177 0 +.00952627944
162885 .0055 .0098 0 0 -1 -1 0 0 .0031 16 127 912 178 ?126 179 176 173 0 0 1 31
 177 959 0 179 173 180 0 -.00952627944162885 .0055 .0052 0 0 -1 -1 0 0 .0031 16
 179 910 181 ?182 183 127 177 0 0 1 31 180 829 0 184 177 185 0 +.009526279441628
81 -.0055 .0098 0 0 -1 -1 0 0 .0031 16 184 781 186 ?187 188 183 180 0 0 1 31 185
 828 0 188 180 189 0 -.00952627944162881 -.0055 .0052 0 0 -1 -1 0 0 .0031 16 188
 779 190 ?191 192 184 185 0 0 1 31 189 698 0 193 185 194 0 +195992473735542e-32
 .011 .0098 0 0 -1 -1 0 0 .0031 16 193 650 195 ?196 197 192 189 0 0 1 31 194 697
 0 197 189 198 0 -195992473735542e-32 .011 .0052 0 0 -1 -1 0 0 .0031 16 197 648
 199 ?200 201 193 194 0 0 1 31 198 570 0 202 194 203 0 +-.00952627944162883 -.00
55 .0098 0 0 -1 -1 0 0 .0031 16 202 522 204 ?205 206 201 198 0 0 1 31 203 569 0
 206 198 207 0 --.00952627944162883 -.0055 .0052 0 0 -1 -1 0 0 .0031 16 206 520
 208 ?209 210 202 203 0 0 1 31 207 435 0 211 203 212 0 +0 0 .0098 0 0 -1 -1 0 0
 .0074 16 211 406 213 ?214 215 210 207 0 0 1 31 212 433 0 216 207 217 0 +0 0 .00
49 0 0 -1 -1 0 0 .008 16 216 381 218 ?219 220 221 212 0 0 1 31 217 432 0 215 212
 222 0 +0 0 .0049 0 0 -1 -1 0 0 .0074 16 215 396 223 ?224 225 211 217 0 0 1 31 2
22 194 0 226 217 227 0 -0 0 0 0 0 1 1 0 0 .0145 16 226 145 228 ?229 230 225 222
 0 0 1 31 227 192 0 225 222 231 0 +0 0 .0045 0 0 1 1 0 0 .0145 16 225 154 232 ?2
33 226 215 227 0 0 1 31 231 16 0 234 227 235 0 +0 0 .007 0 0 -1 -1 0 0 .016 16 2
34 12 236 ?237 238 230 231 0 0 1 31 235 44 0 238 231 239 0 +0 0 .007 0 0 1 1 0 0
 .0149 16 238 41 240 ?241 242 234 235 0 0 1 31 239 122 0 230 235 243 0 -0 0 .004
5 0 0 1 1 0 0 .016 16 230 140 244 ?245 234 226 239 0 0 1 31 243 331 0 242 239 24
6 0 +0 0 3e-4 0 0 -1 -1 0 0 .008 16 242 328 247 ?248 221 238 243 0 0 1 31 246 33
9 0 221 243 249 0 -0 0 0 0 0 -1 -1 0 0 .00817320508075689 16 221 336 250 ?251 21
6 242 246 0 0 1 31 249 491 0 210 246 252 0 +-.00952627944162883 -.0055 0 0 0 -1
 -1 0 0 .0017 16 210 513 253 ?254 211 206 249 0 0 1 31 252 619 0 201 249 255 0 +
195992473735542e-32 .011 0 0 0 -1 -1 0 0 .0017 16 201 641 256 ?257 202 197 252 0
 0 1 31 255 750 0 192 252 258 0 +.00952627944162881 -.0055 0 0 0 -1 -1 0 0 .0017
 16 192 772 259 ?260 193 188 255 0 0 1 31 258 881 0 183 255 261 0 +.009526279441
62885 .0055 0 0 0 -1 -1 0 0 .0017 16 183 903 262 ?263 184 179 258 0 0 1 31 261 1
009 0 176 258 264 0 +-195992473735542e-32 -.011 0 0 0 -1 -1 0 0 .0017 16 176 103
1 265 ?266 127 172 261 0 0 1 31 264 1140 0 167 261 267 0 +-.00952627944162882 .0
055 0 0 0 -1 -1 0 0 .0017 16 167 1162 268 ?269 168 163 264 0 0 1 31 267 1255 0 2
20 264 270 0 --.00952627944162883 -.0055 .00505 0 0 -1 -1 0 0 .0017 16 220 1252
 271 ?272 273 216 267 0 0 1 31 270 1263 0 273 267 274 0 +-.00952627944162883 -.0
055 .0052 0 0 -1 -1 0 0 .00185 16 273 1260 275 ?276 277 220 270 0 0 1 31 274 127
1 0 277 270 278 0 --.00952627944162882 .0055 .00505 0 0 -1 -1 0 0 .0017 16 277 1
268 279 ?280 281 273 274 0 0 1 31 278 1279 0 281 274 282 0 +-.00952627944162882
 .0055 .0052 0 0 -1 -1 0 0 .00185 16 281 1276 283 ?284 285 277 278 0 0 1 31 282
 1287 0 285 278 286 0 --195992473735542e-32 -.011 .00505 0 0 -1 -1 0 0 .0017 16
 285 1284 287 ?288 289 281 282 0 0 1 31 286 1295 0 289 282 290 0 +-1959924737355
42e-32 -.011 .0052 0 0 -1 -1 0 0 .00185 16 289 1292 291 ?292 293 285 286 0 0 1 3
1 290 1303 0 293 286 294 0 -195992473735542e-32 .011 .00505 0 0 -1 -1 0 0 .0017
 16 293 1300 295 ?296 297 289 290 0 0 1 31 294 1311 0 297 290 298 0 +19599247373
5542e-32 .011 .0052 0 0 -1 -1 0 0 .00185 16 297 1308 299 ?300 301 293 294 0 0 1
 31 298 1319 0 301 294 302 0 -.00952627944162881 -.0055 .00505 0 0 -1 -1 0 0 .00
17 16 301 1316 303 ?304 305 297 298 0 0 1 31 302 1327 0 305 298 306 0 +.00952627
944162881 -.0055 .0052 0 0 -1 -1 0 0 .00185 16 305 1324 307 ?308 309 301 302 0 0
 1 31 306 1335 0 309 302 310 0 -.00952627944162885 .0055 .00505 0 0 -1 -1 0 0 .0
017 16 309 1332 311 ?312 313 305 306 0 0 1 31 310 1343 0 313 306 314 0 +.0095262
7944162885 .0055 .0052 0 0 -1 -1 0 0 .00185 16 313 1340 315 ?316 317 309 310 0 0
 1 31 314 1528 0 317 310 318 0 --.00952627944162882 .0055 .0089 0 0 -1 -1 0 0 .0
031 16 317 1526 319 ?320 321 313 314 0 0 1 30 318 1530 0 321 314 322 0 --.006509
79272491793 .0062147082536999 .00935 0 0 -1 16 321 1529 323 ?52 324 317 318 0 0
 1 30 322 1533 0 324 318 325 0 +-.0086369915872719 .002530291746300105 .00935 0
 0 -1 16 324 1531 326 ?32 24 321 322 0 0 1 31 325 2127 0 327 322 328 0 -0 0 .009
8 0 0 -1 1 1224646799147352e-31 0 .009 16 327 1791 329 ?40 330 111 325 0 0 1 31
 328 2128 0 331 325 332 0 +0 0 .0089 0 0 -1 1 1224646799147352e-31 0 .009 16 331
 1840 333 ?334 111 31 328 0 0 1 31 332 2129 0 31 328 335 0 +0 0 .0089 0 0 -1 1 1
224646799147352e-31 0 .009 16 31 1815 336 ?25 331 337 332 0 0 1 31 335 2130 0 33
8 332 339 0 -0 0 .0098 0 0 -1 1 1224646799147352e-31 0 .009 16 338 1805 340 ?341
 342 343 335 0 0 1 31 339 2131 0 337 335 344 0 +0 0 .0089 0 0 -1 1 1224646799147
352e-31 0 .009 16 337 1820 345 ?346 31 122 339 0 0 1 31 344 2132 0 343 339 347 0
 -0 0 .0098 0 0 -1 1 1224646799147352e-31 0 .009 16 343 1770 348 ?349 338 350 34
4 0 0 1 31 347 2133 0 122 344 351 0 +0 0 .0089 0 0 -1 1 1224646799147352e-31 0 .
009 16 122 1825 352 ?353 337 108 347 0 0 1 31 351 2134 0 350 347 123 0 -0 0 .009
8 0 0 -1 1 1224646799147352e-31 0 .009 16 350 1777 354 ?355 343 330 351 0 0 1 31
 123 2135 0 108 351 356 0 +0 0 .0089 0 0 -1 1 1224646799147352e-31 0 .009 31 356
 2136 0 330 123 19 0 -0 0 .0098 0 0 -1 1 1224646799147352e-31 0 .009 16 330 1784
 357 ?358 350 327 356 0 0 1 31 19 2195 0 24 356 6 0 -0 0 .0089 0 0 -1 -1 0 0 .01
47267949192431 16 24 2192 359 ?360 9 324 19 0 0 1 81 1 359 2233 132 24 0 0 361 2
2 362 17 360 0 363 360 360 0 364 24 0 0 +15 363 2193 0 360 107 27 17 364 0 365 3
64 364 0 360 24 0 0 -15 365 2218 0 364 17 0 14 255 17 2216 366 ?0 107 367 4 5 +0
 0 0 107 21 81 1 366 2325 368 17 369 0 370 0 371 14 107 2011 370 ?17 372 363 4 3
73 -0 0 17 372 21 15 367 2217 0 374 17 365 13 21 4 0 0 0 0 0 0 8 15 14 15 554 37
5 ?376 0 377 4 378 -0 0 376 0 21 81 1 375 2241 368 15 379 0 0 380 381 14 376 682
 380 ?382 15 383 4 384 -0 0 382 15 21 15 377 558 0 385 15 386 51 255 378 562 0 1
5 387 388 0 +-.00952627944162883 -.0055 .0098 0 0 -1 .0031 -1 0 0 50 255 387 563
 0 389 390 378 0 +-.00952627944162883 -.0055 .0052 0 0 -1 -1 0 0 50 388 429 0 39
1 378 392 0 +.0074 0 .0049 0 0 -1 -1 0 0 14 391 413 393 ?394 395 396 4 388 +0 0
 394 395 21 51 392 428 0 395 388 397 0 -0 0 0 0 0 -1 .0074 -1 0 0 14 395 408 398
 ?391 399 400 4 392 +0 0 391 399 21 51 397 307 0 401 392 402 0 +0 0 .0045 0 0 -1
 .008 -1 0 0 14 401 298 403 ?404 405 406 4 397 -0 0 404 405 21 50 402 190 0 407
 397 408 0 +0 0 .0045 0 0 1 1 0 0 14 407 181 409 ?410 411 412 4 402 -0 0 410 411
 21 51 408 189 0 411 402 413 0 +0 0 0 0 0 1 .0145 1 0 0 14 411 171 414 ?407 415
 416 4 408 +0 0 407 415 21 50 413 93 0 417 408 418 0 +0 0 .0098 0 0 1 1 0 0 14 4
17 79 419 ?415 420 421 4 413 +0 0 415 420 21 51 418 92 0 415 413 422 0 +0 0 0 0
 0 1 .0149 1 0 0 14 415 85 423 ?411 417 424 4 418 +0 0 411 417 21 50 422 11 0 41
0 418 425 0 +0 0 0 0 0 -1 -1 0 0 14 410 9 426 ?399 407 427 4 422 +0 0 399 407 21
 50 425 17 0 404 422 428 0 +0 0 .007 0 0 1 1 0 0 14 404 15 429 ?420 401 430 4 42
5 +0 0 420 401 21 51 428 18 0 420 425 431 0 +0 0 0 0 0 1 .016 1 0 0 14 420 2 432
 ?417 404 433 4 428 +0 0 417 404 21 52 431 357 0 399 428 434 0 -0 0 3e-4 0 0 -1
 .008 .5 .866025403784438 -1 0 0 14 399 350 435 ?395 410 436 4 431 +0 0 395 410
 21 52 434 1378 0 437 431 438 0 --.00952627944162883 -.0055 .00505 0 0 1 .0017 .
707106781186544 .707106781186551 1 0 0 14 437 1371 439 ?440 441 442 4 434 +0 0 4
40 441 21 52 438 1391 0 440 434 443 0 --.00952627944162882 .0055 .00505 0 0 1 .0
017 .707106781186544 .707106781186551 1 0 0 14 440 1384 444 ?445 437 446 4 438 +
0 0 445 437 21 52 443 1404 0 445 438 447 0 --195992473735542e-32 -.011 .00505 0
 0 1 .0017 .707106781186545 .70710678118655 1 0 0 14 445 1397 448 ?449 440 450 4
 443 +0 0 449 440 21 52 447 1417 0 449 443 451 0 -195992473735542e-32 .011 .0050
5 0 0 1 .0017 .707106781186545 .70710678118655 1 0 0 14 449 1410 452 ?453 445 45
4 4 447 +0 0 453 445 21 52 451 1430 0 453 447 18 0 -.00952627944162881 -.0055 .0
0505 0 0 1 .0017 .707106781186544 .707106781186551 1 0 0 14 453 1423 455 ?456 44
9 457 4 451 +0 0 456 449 21 52 18 1443 0 456 451 5 0 -.00952627944162885 .0055 .
00505 0 0 1 .0017 .707106781186544 .707106781186551 1 0 0 14 456 1436 458 ?459 4
53 460 4 18 +0 0 459 453 21 81 1 458 2309 368 456 461 0 455 462 463 14 459 1894
 462 ?464 456 465 4 466 +464 372 464 456 21 15 460 1437 0 467 456 468 17 467 0 4
60 467 467 0 316 313 0 0 -15 468 1438 0 469 456 0 17 469 0 468 469 469 0 312 309
 0 0 -17 312 0 470 312 312 0 469 309 0 0 +15 470 1333 0 312 471 472 14 471 932 4
73 ?474 475 470 4 476 -0 0 474 475 21 15 472 936 0 263 471 0 17 263 0 472 263 26
3 0 477 183 0 0 +17 477 0 478 477 477 0 263 183 0 0 -15 478 880 0 477 410 479 15
 479 749 0 480 410 481 17 480 0 479 480 480 0 260 192 0 0 -15 481 618 0 482 410
 483 17 482 0 481 482 482 0 257 201 0 0 -15 483 490 0 484 410 485 17 484 0 483 4
84 484 0 254 210 0 0 -15 485 337 0 251 410 486 17 251 0 485 251 251 0 487 221 0
 0 +15 486 127 0 229 410 0 17 229 0 486 229 229 0 488 226 0 0 +17 488 0 416 488
 488 0 229 226 0 0 -15 416 174 0 488 411 489 15 489 175 0 490 411 0 17 490 0 489
 490 490 0 233 225 0 0 -17 233 0 491 233 233 0 490 225 0 0 +15 491 185 0 233 407
 0 17 487 0 436 487 487 0 251 221 0 0 -15 436 351 0 487 399 492 15 492 352 0 493
 399 0 17 493 0 492 493 493 0 248 242 0 0 -17 248 0 406 248 248 0 493 242 0 0 +1
5 406 329 0 248 401 494 15 494 383 0 495 401 0 17 495 0 494 495 495 0 219 216 0
 0 -17 219 0 396 219 219 0 495 216 0 0 +15 396 416 0 219 391 496 15 496 417 0 49
7 391 0 17 497 0 496 497 497 0 224 215 0 0 -17 224 0 400 224 224 0 497 215 0 0 +
15 400 411 0 224 395 498 15 498 412 0 499 395 0 17 499 0 498 499 499 0 214 211 0
 0 -17 214 0 500 214 214 0 499 211 0 0 +15 500 424 0 214 417 0 17 254 0 501 254
 254 0 484 210 0 0 +15 501 546 0 254 394 0 14 394 542 502 ?389 391 503 4 390 -0
 0 389 391 21 81 1 502 2275 368 394 504 0 393 505 506 14 389 548 505 ?507 394 50
8 4 387 -0 0 507 394 21 15 503 1253 0 272 394 501 51 390 564 0 394 384 387 0 +-.
00952627944162883 -.0055 -.01806893772032135 0 0 -1 .0017 -1 0 0 51 384 690 0 37
6 509 390 0 +195992473735542e-32 .011 .0098 0 0 -1 .0031 -1 0 0 50 509 691 0 510
 511 384 0 +195992473735542e-32 .011 .0052 0 0 -1 -1 0 0 14 510 676 512 ?513 507
 514 4 509 -0 0 513 507 21 51 511 692 0 507 515 509 0 +195992473735542e-32 .011
 -.01806893772032135 0 0 -1 .0017 -1 0 0 14 507 670 516 ?510 389 517 4 511 -0 0
 510 389 21 51 515 821 0 382 518 511 0 +.00952627944162881 -.0055 .0098 0 0 -1 .
0031 -1 0 0 14 382 813 519 ?125 376 520 4 515 -0 0 125 376 21 50 518 822 0 475 5
21 515 0 +.00952627944162881 -.0055 .0052 0 0 -1 -1 0 0 14 475 807 522 ?471 513
 523 4 518 -0 0 471 513 21 51 521 823 0 513 524 518 0 +.00952627944162881 -.0055
 -.01806893772032135 0 0 -1 .0017 -1 0 0 14 513 801 525 ?475 510 526 4 521 -0 0
 475 510 21 51 524 952 0 125 527 521 0 +.00952627944162885 .0055 .0098 0 0 -1 .0
031 -1 0 0 14 125 944 528 ?529 382 530 4 524 -0 0 529 382 21 50 527 953 0 474 47
6 524 0 +.00952627944162885 .0055 .0052 0 0 -1 -1 0 0 14 474 938 531 ?532 471 53
3 4 527 -0 0 532 471 21 51 476 954 0 471 534 527 0 +.00952627944162885 .0055 -.0
1806893772032135 0 0 -1 .0017 -1 0 0 51 534 1080 0 529 535 476 0 +-1959924737355
42e-32 -.011 .0098 0 0 -1 .0031 -1 0 0 14 529 1072 536 ?405 125 537 4 534 -0 0 4
05 125 21 50 535 1081 0 538 539 534 0 +-195992473735542e-32 -.011 .0052 0 0 -1 -
1 0 0 14 538 1066 540 ?541 532 542 4 535 -0 0 541 532 21 51 539 1082 0 532 543 5
35 0 +-195992473735542e-32 -.011 -.01806893772032135 0 0 -1 .0017 -1 0 0 14 532
 1060 544 ?538 474 545 4 539 -0 0 538 474 21 51 543 1211 0 405 546 539 0 +-.0095
2627944162882 .0055 .0098 0 0 -1 .0031 -1 0 0 14 405 1203 547 ?401 529 548 4 543
 -0 0 401 529 21 50 546 1212 0 441 549 543 0 +-.00952627944162882 .0055 .0052 0
 0 -1 -1 0 0 14 441 1197 550 ?437 541 551 4 546 -0 0 437 541 21 51 549 1213 0 54
1 466 546 0 +-.00952627944162882 .0055 -.01806893772032135 0 0 -1 .0017 -1 0 0 1
4 541 1191 552 ?441 538 553 4 549 -0 0 441 538 21 51 466 2018 0 459 373 549 0 +0
 0 .0098 0 0 -1 .009 -1 0 0 50 373 2019 0 107 0 466 0 +0 0 .0089 0 0 -1 -1 0 0 8
1 1 552 2295 368 541 554 0 540 550 555 15 553 1269 0 280 541 556 17 280 0 553 28
0 280 0 557 277 0 0 +15 556 1195 0 269 541 0 17 269 0 556 269 269 0 558 167 0 0
 +17 558 0 427 558 558 0 269 167 0 0 -15 427 1139 0 558 410 559 15 559 1008 0 56
0 410 478 17 560 0 559 560 560 0 266 176 0 0 -17 266 0 561 266 266 0 560 176 0 0
 +15 561 1064 0 266 532 0 17 557 0 562 557 557 0 280 277 0 0 -15 562 1386 0 557
 440 0 80 255 1 368 0 563 8001 0 0 0 0 3 5 0 0 0 FFFFTFTFFFFFFF2 81 1 554 2294 5
64 541 565 552 566 567 568 81 1 540 2293 368 538 566 0 544 552 569 81 1 550 2297
 368 441 567 0 552 439 570 83 255 3 555 .6 .6 .6 81 1 567 2296 564 441 571 550 5
54 572 573 81 1 439 2299 368 437 572 0 550 444 574 83 3 570 .6 .6 .6 81 1 572 22
98 564 437 575 439 567 576 577 81 1 444 2301 368 440 576 0 439 448 578 83 3 574
 .6 .6 .6 81 1 576 2300 564 440 579 444 572 580 581 81 1 448 2303 368 445 580 0
 444 452 582 83 3 578 .6 .6 .6 81 1 580 2302 564 445 583 448 576 584 585 81 1 45
2 2305 368 449 584 0 448 455 586 83 3 582 .6 .6 .6 81 1 584 2304 564 449 587 452
 580 588 589 81 1 455 2307 368 453 588 0 452 458 590 83 3 586 .6 .6 .6 81 1 588
 2306 564 453 591 455 584 461 592 83 3 590 .6 .6 .6 80 1 564 593 594 8015 0 0 0
 0 3 5 0 0 0 FFFFTFFFFFFFFF2 81 1 591 1495 132 453 0 588 587 579 595 81 1 461 23
08 564 456 596 458 588 597 598 83 1 592 0 81 1 596 1491 132 456 0 461 571 583 59
9 81 1 597 2310 564 459 600 462 461 601 602 83 1 598 0 81 1 600 2186 132 459 0 5
97 603 604 605 81 1 462 2311 368 459 597 0 458 606 607 81 1 601 2312 564 464 603
 606 597 608 609 83 1 602 0 14 464 1898 606 ?610 459 611 4 466 +610 459 610 459
 21 81 1 603 2184 132 464 0 601 612 600 613 81 1 606 2313 368 464 601 0 462 614
 615 81 1 608 2314 564 610 616 614 601 617 618 83 1 609 0 14 610 1902 614 ?619 4
64 620 4 466 +619 464 619 464 21 81 1 616 2189 132 610 0 608 621 361 622 81 1 61
4 2315 368 610 608 0 606 623 624 81 1 617 2316 564 619 621 623 608 625 626 83 1
 618 0 14 619 1906 623 ?118 610 627 4 466 +118 610 118 610 21 81 1 621 2188 132
 619 0 617 604 616 628 81 1 623 2317 368 619 617 0 614 629 630 81 1 625 2318 564
 118 361 629 617 631 632 83 1 626 0 14 118 1910 629 ?372 619 35 4 466 +372 619 3
72 619 21 81 1 361 2190 132 118 0 625 616 359 633 81 1 629 2319 368 118 625 0 62
3 634 635 81 1 631 2320 564 372 604 634 625 636 637 83 1 632 0 14 372 2002 634 ?
107 118 638 4 466 +459 118 107 118 21 81 1 604 2187 132 372 0 631 600 621 639 81
 1 634 2321 368 372 631 0 629 370 640 81 1 636 2322 564 107 641 370 631 369 642
 83 1 637 0 81 1 641 2236 132 107 0 636 643 644 645 81 1 370 2323 368 107 636 0
 634 366 646 81 1 369 2324 564 17 644 366 636 0 647 83 1 642 0 81 1 644 2237 132
 17 0 369 641 0 648 83 1 647 0 80 1 132 649 650 9000 1 1 1 1 1 1 1 1 0 FFFFTFTFF
FFFFF3 84 255 32 648 32aab3a88818e329e44139ae45f4150c79 255 15 650 UGS/ObjectSta
te83 3 646 .6 .6 .6 81 1 643 2235 132 415 0 651 22 641 652 84 32 645 7f25ce766e3
2b29b21f7b5bec3c1b0b781 1 651 2260 564 415 643 423 653 654 655 81 1 22 2234 132
 9 0 0 359 643 656 84 32 652 b36c752eebb949247e2b2421269a93b084 32 656 e2d87de0d
caae900012f682e2e51317981 1 423 2261 368 415 651 0 419 414 657 81 1 653 2258 564
 417 658 419 659 651 660 81 1 654 2262 564 411 661 414 651 662 663 83 1 655 0 81
 1 661 224 132 411 0 654 664 247 665 81 1 414 2263 368 411 654 0 423 409 666 81
 1 662 2264 564 407 664 409 654 667 668 83 1 663 0 81 1 664 223 132 407 0 662 66
9 661 670 81 1 409 2265 368 407 662 0 414 426 671 81 1 667 2266 564 410 672 426
 662 673 674 83 1 668 0 81 1 672 1241 132 410 0 667 165 311 675 81 1 426 2267 36
8 410 667 0 409 435 676 81 1 673 2268 564 399 677 435 667 678 679 83 1 674 0 81
 1 677 370 132 399 0 673 250 213 680 81 1 435 2269 368 399 673 0 426 398 681 81
 1 678 2270 564 395 682 398 673 683 684 83 1 679 0 81 1 682 457 132 395 0 678 68
5 686 687 81 1 398 2271 368 395 678 0 435 393 688 81 1 683 2272 564 391 686 393
 678 504 689 83 1 684 0 81 1 686 458 132 391 0 683 682 253 690 81 1 393 2273 368
 391 683 0 398 502 691 81 1 504 2274 564 394 692 502 683 693 694 83 1 689 0 81 1
 692 1479 132 394 0 504 283 695 696 81 1 693 2276 564 389 697 505 504 698 699 83
 1 694 0 81 1 697 1485 132 389 0 693 565 700 701 81 1 505 2277 368 389 693 0 502
 516 702 81 1 698 2278 564 507 695 516 693 703 704 83 1 699 0 81 1 695 1480 132
 507 0 698 692 705 706 81 1 516 2279 368 507 698 0 505 512 707 81 1 703 2280 564
 510 700 512 698 708 709 83 1 704 0 81 1 700 1486 132 510 0 703 697 710 711 81 1
 512 2281 368 510 703 0 516 525 712 81 1 708 2282 564 513 705 525 703 713 714 83
 1 709 0 81 1 705 1481 132 513 0 708 695 715 716 81 1 525 2283 368 513 708 0 512
 522 717 81 1 713 2284 564 475 710 522 708 718 719 83 1 714 0 81 1 710 1487 132
 475 0 713 700 720 721 81 1 522 2285 368 475 713 0 525 473 722 81 1 718 2286 564
 471 715 473 713 723 724 83 1 719 0 81 1 715 1482 132 471 0 718 705 725 726 81 1
 473 2287 368 471 718 0 522 531 727 81 1 723 2288 564 474 720 531 718 728 729 83
 1 724 0 81 1 720 1488 132 474 0 723 710 730 731 81 1 531 2289 368 474 723 0 473
 544 732 81 1 728 2290 564 532 725 544 723 566 733 83 1 729 0 81 1 725 1483 132
 532 0 728 715 565 734 81 1 544 2291 368 532 728 0 531 540 735 81 1 566 2292 564
 538 730 540 728 554 736 83 1 733 0 81 1 730 1489 132 538 0 566 720 571 737 83 1
 736 0 81 1 571 1490 132 441 0 567 730 596 738 84 32 737 29ee713c4ebb54c691072f7
b0ec296dc84 32 738 a77d79f5df4810c1e4607c99f43fd37683 3 735 .6 .6 .6 81 1 565 14
84 132 541 0 554 725 697 739 84 32 734 080335b5ba5b4fd68fe72129b81bfcad84 32 739
 ed5148289e43e5d0ed4a9d0206925d7783 3 732 .6 .6 .6 84 32 731 65635944d589f7bb964
6c8ac3a4d464a83 3 727 .6 .6 .6 84 32 726 33083813c461244957c53959c28016e683 3 72
2 .6 .6 .6 84 32 721 a42b24cdf0c1437e0c0d733f993dcc1983 3 717 .6 .6 .6 84 32 716
 1b873773350ba78e5e17929b9f554e5b83 3 712 .6 .6 .6 84 32 711 9dc5bf5984a50b1c7da
750ff78d7d3bc83 3 707 .6 .6 .6 84 32 706 0ac7097b96ecbc0758e2384dcef6d06583 3 70
2 .6 .6 .6 84 32 701 4df6e2701011e6e8ab56c5f8c07c4bc481 1 283 1478 132 281 0 0 3
03 692 740 84 32 696 773c8774947f5aec8ea7d5c999d2f77b81 1 303 1477 132 301 0 0 2
75 283 741 84 32 740 7f2813d8e7edda397434f05f3d6341f181 1 275 1476 132 273 0 0 2
95 303 742 84 32 741 4e0fe7a8b020004169f4391c0dfe8c4b81 1 295 1475 132 293 0 0 3
15 275 743 84 32 742 32b94b5c879dff4526b47207db8768bc81 1 315 1474 132 313 0 0 2
87 295 744 84 32 743 ae1ce8191a86ea5d7b1b93cbd1647d2b81 1 287 1473 132 285 0 0 3
07 315 745 84 32 744 4100ea30e1ea9cb26abea4889abe5a6f81 1 307 1472 132 305 0 0 2
91 287 746 84 32 745 2dd178ba5547b133ac652af310b6dac481 1 291 1471 132 289 0 0 2
79 307 747 84 32 746 ab39aeb3822b3af0ebb2e4ac455d7b0581 1 279 1470 132 277 0 0 2
99 291 748 84 32 747 a7a9847cd6425a43ad0c7ab1341764c181 1 299 1469 132 297 0 0 2
71 279 749 84 32 748 119b96d5e55b0a34426a169ec7e56e8e81 1 271 1468 132 220 0 0 3
11 299 750 84 32 749 3dc57542f2fbdc9dcd0ea7552319433581 1 311 1467 132 309 0 0 6
72 271 751 84 32 750 df6b499d0fdcb089dc9cb44020646eb684 32 751 20aad92e2116862ad
950839d22d43a8683 3 691 .6 .6 .6 81 1 253 588 132 210 0 0 686 208 752 84 32 690
 efa03f5a123b0fbdffd9d4fb97b319ac81 1 208 590 132 206 0 0 253 256 753 84 32 752
 dd451718ed101f710135fdbc77c3624a81 1 256 716 132 201 0 0 208 199 754 84 32 753
 382d2f207e9f1151513eff5802d3782681 1 199 719 132 197 0 0 256 259 755 84 32 754
 9bf62496bba0f31313c44e2af670d50b81 1 259 847 132 192 0 0 199 190 756 84 32 755
 5a827da0a35ee28e7f059fb9d4ba1cba81 1 190 849 132 188 0 0 259 262 757 84 32 756
 53c0f7a9d5ab1e53bf17b5cce32b8bf281 1 262 978 132 183 0 0 190 181 758 84 32 757
 0c502fc5f7272710795d8c452ecf064481 1 181 981 132 179 0 0 262 265 759 84 32 758
 ccd91a9c8875facfeee62c383fdcc14c81 1 265 1106 132 176 0 0 181 174 760 84 32 759
 96d2b09f673a38190f78d11af010fc9081 1 174 1109 132 172 0 0 265 268 761 84 32 760
 757f1b9d62a5429220d146077aa9d76181 1 268 1237 132 167 0 0 174 165 762 84 32 761
 8f0ef40cc3293a485ec074eb716f1cfc81 1 165 1239 132 163 0 0 268 672 763 84 32 762
 5c30c2ddff28a08ea6cbcc3d618056bd84 32 763 b0c47b1742bf71923686ea31bf2ea30d83 3
 688 .6 .6 .6 81 1 685 456 132 401 0 764 223 682 765 84 32 687 c28b2b029a1235744
382f5d65cdfb9e181 1 764 2252 564 401 685 403 766 767 768 81 1 223 454 132 215 0
 0 218 685 769 84 32 765 cbfe6b57e46bfca5323829fb3b40699d81 1 218 453 132 216 0
 0 213 223 770 84 32 769 bb91e7b0aa0dd542477b6dfaa273babb81 1 213 452 132 211 0
 0 677 218 771 84 32 770 47843008a3ea683c7580a3c68ccdccb784 32 771 af568d8a51a4e
31746b63211e6d5975b81 1 403 2253 368 401 764 0 547 429 772 81 1 766 2250 564 405
 612 547 773 764 774 81 1 767 2254 564 404 775 429 764 659 776 83 1 768 0 81 1 7
75 113 132 404 0 767 240 232 777 81 1 429 2255 368 404 767 0 403 432 778 81 1 65
9 2256 564 420 669 432 767 653 779 83 1 776 0 81 1 669 222 132 420 0 659 244 664
 780 81 1 432 2257 368 420 659 0 429 419 781 83 1 779 0 81 1 419 2259 368 417 65
3 0 432 423 782 83 3 781 .6 .6 .6 83 3 782 .6 .6 .6 81 1 244 220 132 230 0 0 228
 669 783 84 32 780 e5dee33ff88ff28f56de57e6a1099c9781 1 228 219 132 226 0 0 232
 244 784 84 32 783 b54929ed0cf68f6174555ade489e1d2081 1 232 218 132 225 0 0 775
 228 785 84 32 784 7fe74be601b140877eff2e7729b3021584 32 785 8cf020c455f63d5e570
4e3396e1fdb7783 3 778 .6 .6 .6 81 1 240 109 132 238 0 0 236 775 786 84 32 777 53
c9f64f6d7b0be39126105ea31027dd81 1 236 29 132 234 0 0 0 240 787 84 32 786 a67fe1
50506d073972d634fe0fffb3cc84 32 787 8aff71e52928f51baeb152e81a05d19581 1 612 218
3 132 405 0 766 788 603 789 81 1 547 2251 368 405 766 0 536 403 790 81 1 773 224
8 564 529 788 536 791 766 792 83 1 774 0 81 1 788 2182 132 529 0 773 793 612 794
 81 1 536 2249 368 529 773 0 528 547 795 81 1 791 2246 564 125 793 528 796 773 7
97 83 1 792 0 81 1 793 2181 132 125 0 791 798 788 799 81 1 528 2247 368 125 791
 0 519 536 800 81 1 796 2244 564 382 798 519 801 791 802 83 1 797 0 81 1 798 218
0 132 382 0 796 803 793 804 81 1 519 2245 368 382 796 0 380 528 805 81 1 801 224
2 564 376 803 380 379 796 806 83 1 802 0 81 1 803 2179 132 376 0 801 807 798 808
 81 1 380 2243 368 376 801 0 375 519 809 81 1 379 2240 564 15 807 375 0 801 810
 83 1 806 0 81 1 807 2178 132 15 0 379 658 803 811 83 1 810 0 81 1 658 2177 132
 417 0 653 329 807 812 84 32 811 b4c01669afb5f85788726aedb2daae3f81 1 329 2175 1
32 327 0 0 357 658 813 84 32 812 598b51a8b9559f7f3cd6f63b3bd0030381 1 357 2174 1
32 330 0 0 146 329 814 84 32 813 d338211b0d558ace505ad9f54e734d4581 1 146 2173 1
32 120 0 0 149 357 815 84 32 814 80b31f6fd592755bced222a9598bdba981 1 149 2172 1
32 147 0 0 816 146 817 84 32 815 f6fecfbaf3fa01512f35c25da5f58aa181 1 816 2171 1
32 342 0 0 152 149 818 84 32 817 5161a417d84c136bd0e75629e1d4487916 342 1764 816
 ?819 116 338 820 0 0 1 81 1 152 2170 132 150 0 0 139 816 821 84 32 818 8b44aad7
a5152785b8e7325a9b4e28be81 1 139 2169 132 130 0 0 136 152 822 84 32 821 bbd76f24
92cfeaac56ca83b3210c559e81 1 136 2168 132 129 0 0 121 139 823 84 32 822 a1b40294
4d4e9dd6fb6020740ffcede381 1 121 2167 132 108 0 0 824 136 825 84 32 823 f8ed11cb
96d5f4db36cbcdc096f3f33a81 1 824 2166 132 140 0 0 326 121 826 84 32 825 8627e787
ecb7804b84109a577659594f16 140 1755 824 ?64 130 827 142 0 0 1 81 1 326 2165 132
 324 0 0 828 824 829 84 32 826 cdd953b75342849d6d344ac6132cb75981 1 828 2164 132
 116 0 0 158 326 830 84 32 829 136388a41897f9bd59f9840d26cceabd16 116 1822 828 ?
831 106 342 832 0 0 1 81 1 158 2163 132 156 0 0 319 828 833 84 32 830 0d6e24030f
9211c97b10f60f76ba104d81 1 319 2162 132 317 0 0 834 158 835 84 32 833 a658bdc4d9
93b07051ad84e106373c4f81 1 834 2161 132 111 0 0 323 319 836 84 32 835 7010e077ab
e1003b2a477dde7ab0d2b316 111 1851 834 ?104 327 331 837 0 0 1 81 1 323 2160 132 3
21 0 0 352 834 838 84 32 836 b57f6e25380c8d30af0dff97fd67522c81 1 352 2159 132 1
22 0 0 333 323 839 84 32 838 77ac9b891a24d529d77d107af20a9c2381 1 333 2158 132 3
31 0 0 134 352 840 84 32 839 b47d1d3ec055e2ae6d1db87d44fc555781 1 134 2157 132 8
27 0 0 128 333 841 84 32 840 ac1f61b0d5ab874977ed62fbaabfceba16 827 1817 134 ?84
2 140 843 844 0 0 1 84 32 841 60a57de9bc0ac0a9ca1b912cbe78f3af17 842 0 386 845 8
46 85 29 827 0 0 +16 843 1837 847 ?848 827 115 849 0 0 1 31 844 2032 0 827 849 1
42 0 --.00952627944162883 -.0055 .0089 0 0 -1 -1 0 0 .0031 31 849 2033 0 843 850
 844 0 -195992473735542e-32 .011 .0089 0 0 -1 -1 0 0 .0031 30 142 2030 0 140 844
 141 0 --.00212719886235397 -.008745 .00935 0 0 -1 31 850 2034 0 115 117 849 0 -
.00952627944162881 -.0055 .0089 0 0 -1 -1 0 0 .0031 16 115 1827 851 ?109 843 106
 850 0 0 1 31 117 2035 0 106 832 850 0 -.00952627944162885 .0055 .0089 0 0 -1 -1
 0 0 .0031 31 832 2036 0 116 837 117 0 --195992473735542e-32 -.011 .0089 0 0 -1
 -1 0 0 .0031 31 837 2037 0 111 820 832 0 +0 0 .0089 0 0 -1 1 1224646799147352e-
31 0 .009 31 820 2039 0 342 0 837 0 -0 0 .0098 0 0 -1 1 1224646799147352e-31 0 .
009 81 1 851 2152 132 115 0 0 847 354 852 17 109 0 853 119 854 73 78 115 0 0 +15
 853 1596 0 119 382 0 17 119 0 853 855 109 71 75 120 0 187 -17 854 0 853 109 855
 76 70 137 0 0 -17 78 0 27 353 103 76 109 115 0 856 -17 353 0 27 84 78 79 856 12
2 0 831 +17 856 0 638 70 81 76 353 122 0 854 -15 638 1917 0 70 372 0 17 70 0 638
 67 856 68 854 137 0 819 +17 81 0 638 856 67 79 857 130 0 353 +17 67 0 638 81 70
 65 819 342 0 857 -17 857 0 858 859 831 65 81 130 0 171 -15 858 1554 0 857 529 0
 17 859 0 858 860 857 62 171 168 0 0 -17 831 0 858 857 860 79 84 116 0 0 +17 171
 0 421 819 341 65 859 168 0 0 +15 421 1658 0 819 417 500 17 819 0 421 187 171 68
 67 342 0 855 +17 341 0 421 171 205 62 61 338 0 859 +17 205 0 421 341 349 59 861
 202 0 0 +17 61 0 465 87 64 59 341 338 0 845 -15 465 1897 0 87 459 0 17 87 0 465
 862 61 85 845 156 0 346 +17 64 0 465 61 862 62 860 140 0 341 +17 845 0 386 861
 842 59 87 156 0 205 -15 386 1638 0 845 15 0 17 861 0 386 846 845 56 205 202 0 0
 -17 846 0 386 842 861 88 58 153 0 0 -17 58 0 611 55 30 56 846 153 0 349 +15 611
 1901 0 58 464 0 17 55 0 611 32 58 53 349 343 0 863 -17 30 0 611 58 32 88 25 31
 0 846 -17 349 0 421 205 162 56 55 343 0 861 +17 162 0 421 349 355 53 864 159 0
 0 +17 355 0 421 162 196 50 49 350 0 864 +17 864 0 865 866 863 50 162 159 0 0 -1
5 865 1532 0 863 405 0 17 866 0 865 320 864 90 52 321 0 0 -17 863 0 865 864 320
 53 32 324 0 162 -17 320 0 865 863 866 10 28 317 0 0 +17 32 0 611 30 55 10 863 3
24 0 320 +17 28 0 27 334 25 90 320 317 0 867 -17 334 0 27 97 28 92 867 331 0 848
 +17 867 0 620 52 94 90 334 331 0 866 -15 620 1905 0 94 610 0 17 52 0 620 49 867
 50 866 321 0 355 +17 94 0 620 867 49 92 868 150 0 334 +17 49 0 620 94 52 47 355
 350 0 868 -17 868 0 869 870 848 47 94 150 0 196 -15 869 1617 0 868 376 0 17 870
 0 869 871 868 42 196 193 0 0 -17 848 0 869 868 871 92 97 843 0 0 +17 196 0 421
 355 358 47 870 193 0 0 +17 358 0 421 196 126 42 41 330 0 870 +17 126 0 421 358
 40 34 124 127 0 0 +17 41 0 627 100 46 34 358 330 0 113 -15 627 1909 0 46 619 0
 17 100 0 627 110 41 98 113 129 0 104 +17 46 0 627 41 110 42 871 147 0 358 +17 1
13 0 112 124 105 34 100 129 0 126 -17 110 0 627 46 100 95 104 111 0 871 -17 871
 0 869 848 870 95 46 147 0 0 -17 40 0 421 126 187 26 36 327 0 124 +17 187 0 421
 40 819 71 855 184 0 0 +17 36 0 35 75 33 71 40 327 0 119 -17 855 0 853 854 119 6
8 187 184 0 0 -17 97 0 27 104 334 95 848 843 0 110 -17 862 0 465 64 87 82 346 33
7 0 860 -17 860 0 858 831 859 82 64 140 0 0 -17 346 0 27 29 84 85 862 337 0 842
 +17 29 0 27 25 346 88 842 827 0 30 -17 84 0 27 346 353 82 831 116 0 862 -81 1 8
47 2151 132 843 0 0 114 851 872 81 1 354 2153 132 350 0 0 851 155 873 84 32 852
 a945fb48762eadd4a6a9268f7aee8d1081 1 155 2154 132 153 0 0 354 133 874 84 32 873
 f29d237ee1faa91864f70337282c32f381 1 133 2155 132 137 0 0 155 128 875 84 32 874
 1de97d56eecf30b0074a48af2b2b232284 32 875 0d9a9214a8bc2156840d2859225f9cd081 1
 114 2150 132 106 0 0 348 847 876 84 32 872 d15c69ded49aa716597eaac8842f0e3781 1
 348 2149 132 343 0 0 336 114 877 84 32 876 ee8b2940d9c2df93ce104df34ae43c1581 1
 336 2148 132 31 0 0 340 348 878 84 32 877 580dd1f3cd2b682d9ef2d4065cf73b1e81 1
 340 2147 132 338 0 0 345 336 879 84 32 878 a28eaf72be7a4a406b6e8a0c44ec058b81 1
 345 2146 132 337 0 0 161 340 880 84 32 879 65047921d5c4ec3d407505603de6cfd781 1
 161 2145 132 159 0 0 170 345 881 84 32 880 bdfca686e51ecf3023743d096000cc4581 1
 170 2144 132 168 0 0 178 161 882 84 32 881 d88c804c61659c86378d4f9d9d33d63c81 1
 178 2143 132 127 0 0 186 170 883 84 32 882 5471e41f3084079e7acecccd34e04cf881 1
 186 2142 132 184 0 0 195 178 884 84 32 883 30723d2bf53aad84aba2e8086cb4025781 1
 195 2141 132 193 0 0 204 186 885 84 32 884 97fed21c18892b8ef4e2fe4d76dc34a981 1
 204 2140 132 202 0 0 579 195 886 84 32 885 dbe29679a88687fbcab11fa057ce8cac81 1
 579 1496 132 440 0 576 591 204 887 84 32 886 ba251698a505ae912bb85d4ca565a76784
 32 887 88db9c93f52aa596146de69d194d146683 3 809 .6 .6 .6 84 32 808 681f4911b43a
6551316ccd4b271b0cc083 3 805 .6 .6 .6 84 32 804 9fa153431bcc981dbc46431798bf68e1
83 3 800 .6 .6 .6 84 32 799 2c4a70407f5cd7a65938b5724f27219583 3 795 .6 .6 .6 84
 32 794 74cc6aad493546f4711bb877e4949ddc83 3 790 .6 .6 .6 84 32 789 a574357e67c2
1021e2293f037d30695283 3 772 .6 .6 .6 83 3 681 .6 .6 .6 81 1 250 367 132 221 0 0
 247 677 888 84 32 680 49e6d27b253566606a7a32cb820c476581 1 247 366 132 242 0 0
 661 250 889 84 32 888 22459597f9532a5a18b8d1e81b2f8ae884 32 889 5c242e6e1ac4de1
9b39d4ff6cb0efc7683 3 676 .6 .6 .6 84 32 675 fdfcc502fc45cd98c88f2f7d850d1c5a83
 3 671 .6 .6 .6 84 32 670 509b90890afb56b3564f5760d68748b283 3 666 .6 .6 .6 84 3
2 665 d5329f921147f744d333efd1cc59587083 1 660 0 83 3 657 .6 .6 .6 83 3 640 .6 .
6 .6 84 32 639 26f098ecf3790d912dff590fdcc76ceb83 3 635 .6 .6 .6 84 32 633 6ab14
ecbdcf9ac94dda7c0dfe23974ca83 3 630 .6 .6 .6 84 32 628 311f48f2eac5e5fac088d6328
c860d3283 3 624 .6 .6 .6 84 32 622 6790d1046ebc43b6d2a3d0989d1cc6a583 3 615 .6 .
6 .6 84 32 613 abe719b72736833c9bcdac2e2fc74cb483 3 607 .6 .6 .6 84 32 605 cf0d7
1a645c8d2b89021a0cb0f54617781 1 583 1492 132 445 0 580 596 575 890 84 32 599 bf1
b535d844d28b2f3d8ae6e448a535781 1 575 1493 132 437 0 572 583 587 891 84 32 890 8
ebf9dc74fdde4d9b07981bf6d1e08ef81 1 587 1494 132 449 0 584 575 591 892 84 32 891
 325672a965c3f94d8714b87c58c902a984 32 892 bd6964092ae7cdf85a0dca3c3948bde984 32
 595 0c3ef19964ab033399ca3694a3ae500f79 21 594 SDL/TYSA_TRANSLUCENCY83 1 589 0 8
3 1 585 0 83 1 581 0 83 1 577 0 83 1 573 0 83 3 569 .6 .6 .6 83 1 568 0 79 15 56
3 SDL/TYSA_COLOUR15 551 1277 0 284 441 893 17 284 0 551 284 284 0 894 281 0 0 +1
5 893 1202 0 166 441 0 17 166 0 893 166 166 0 895 163 0 0 +17 895 0 548 895 895
 0 166 163 0 0 -15 548 1207 0 895 405 865 17 894 0 446 894 894 0 284 281 0 0 -15
 446 1385 0 894 440 562 15 545 1285 0 288 532 561 17 288 0 545 288 288 0 896 285
 0 0 +17 896 0 897 896 896 0 288 285 0 0 -15 897 1399 0 896 445 0 15 542 1293 0
 292 538 898 17 292 0 542 292 292 0 899 289 0 0 +15 898 1071 0 175 538 0 17 175
 0 898 175 175 0 900 172 0 0 +17 900 0 537 900 900 0 175 172 0 0 -15 537 1076 0
 900 529 858 17 899 0 450 899 899 0 292 289 0 0 -15 450 1398 0 899 445 897 15 53
3 1341 0 316 474 901 17 316 0 533 316 316 0 467 313 0 0 +15 901 943 0 182 474 0
 17 182 0 901 182 182 0 902 179 0 0 +17 902 0 530 902 902 0 182 179 0 0 -15 530
 948 0 902 125 112 15 526 1317 0 304 513 903 17 304 0 526 304 304 0 904 301 0 0
 +15 903 805 0 260 513 0 17 260 0 903 260 260 0 480 192 0 0 +17 904 0 905 904 90
4 0 304 301 0 0 -15 905 1425 0 904 453 0 15 523 1325 0 308 475 906 17 308 0 523
 308 308 0 907 305 0 0 +15 906 812 0 191 475 0 17 191 0 906 191 191 0 908 188 0
 0 +17 908 0 520 908 908 0 191 188 0 0 -15 520 817 0 908 382 853 17 907 0 457 90
7 907 0 308 305 0 0 -15 457 1424 0 907 453 905 15 517 1301 0 296 507 909 17 296
 0 517 296 296 0 910 293 0 0 +15 909 674 0 257 507 0 17 257 0 909 257 257 0 482
 201 0 0 +17 910 0 911 910 910 0 296 293 0 0 -15 911 1412 0 910 449 0 15 514 130
9 0 300 510 912 17 300 0 514 300 300 0 913 297 0 0 +15 912 681 0 200 510 0 17 20
0 0 912 200 200 0 914 197 0 0 +17 914 0 383 914 914 0 200 197 0 0 -15 383 686 0
 914 376 869 17 913 0 454 913 913 0 300 297 0 0 -15 454 1411 0 913 449 911 17 27
2 0 503 272 272 0 915 220 0 0 +17 915 0 916 915 915 0 272 220 0 0 -15 916 1373 0
 915 437 0 15 508 1261 0 276 389 917 17 276 0 508 276 276 0 918 273 0 0 +15 917
 553 0 209 389 0 17 209 0 917 209 209 0 385 206 0 0 +17 385 0 377 385 385 0 209
 206 0 0 -17 918 0 442 918 918 0 276 273 0 0 -15 442 1372 0 918 437 916 83 3 506
 .6 .6 .6 83 3 463 .6 .6 .6 15 433 121 0 919 420 920 17 919 0 433 919 919 0 245
 230 0 0 -15 920 13 0 237 420 0 17 237 0 920 237 237 0 921 234 0 0 +17 921 0 922
 921 921 0 237 234 0 0 -15 922 14 0 921 404 0 17 245 0 412 245 245 0 919 230 0 0
 +15 412 184 0 245 407 491 15 430 43 0 923 404 922 17 923 0 430 923 923 0 241 23
8 0 0 -17 241 0 924 241 241 0 923 238 0 0 +15 924 88 0 241 415 0 15 424 2201 0 2
3 415 924 17 23 0 424 23 23 0 374 9 0 0 +17 374 0 367 374 374 0 23 9 0 0 -83 3 3
81 .6 .6 .6 83 3 371 .6 .6 .6 84 32 362 66bf4c682988a1b239b7d529a8a9708684 32 13
5 261a181bf871cc2377f1ac2e44e596ef19 16 5 0 1 0 8 4 S0 74 4 CI16 index_map_offse
t0 0 1 dCCZ20 14 6 0 0 644 925 12 369 366 2 0 0 0 0 0 0 0 0 0 0 0 0 0 0 81 2 925
 2232 926 1 0 12 0 0 927 928 81 1 12 2239 929 1 925 2 0 0 930 80 1 929 931 932 9
000 0 0 0 0 3 5 0 0 0 FFTFFFFFFFFFFF1 82 255 1 930 -1 79 19 932 UG2/PMARK_ATTRIB
UTE80 2 926 933 934 8004 0 0 0 0 3 5 0 0 0 FFTFFFFFFFFFFF2 3 83 1 927 .001 84 8
 928 Kg/Cu M 79 16 934 SDL/TYSA_DENSITY80 1 11 935 936 9000 0 0 0 0 3 5 0 0 0 FF
TFFFFFFFFFFF1 82 1 13 87 79 24 936 UG2/BODY_COLOR_ATTRIBUTE1 0 
