**ABCDEFGHIJKLMNOPQRSTUVWXYZabcdefghijklmnopqrstuvwxyz**************************
**PARASOLID !"#$%&'()*+,-./:;<=>?@[\]^_`{|}~0123456789**************************
**PART1;
MC=x64/Windows NT;
MC_MODEL=genuineintel family 6 model 10 stepping 5, intel(r) xeon(r) cpu           w3550  @ 3.07ghz;
MC_ID=pc1401;
OS=windows nt (x64);
OS_RELEASE=6.3 windows 10 enterprise (build 17763) ;
FRU=mdc_ugii_v7.0_djl_can_vrh;
APPL=unigraphics;
SITE=unknown;
USER=huge;
FORMAT=text;
GUISE=transmit;
KEY=32-GPT_flange_c;
FILE=D:\Daten-Huge\PLM_Export\A_Internet_Modelle\Getriebe\32-x\32-GPT\32-GPT_flange_c.x_t;
DATE=23-jul-2019;
**PART2;
SCH=SCH_3001232_30100;
USFLD_SIZE=0;
**PART3;
**END_OF_HEADER*****************************************************************
T51 : TRANSMIT FILE created by modeller version 300123223 SCH_3001232_30100_1300
6214 0 12 34 CCCCCCI4 mesh1006 0 I8 polyline1008 0 CCCCCCCDI5 owner1040 0 CCCCCC
I13 boundary_mesh1006 0 I17 boundary_polyline1008 0 CCCA16 index_map_offset0 0 1
 dA9 index_map82 0 A17 node_id_index_map82 0 A20 schema_embedding_map82 0 A5 chi
ld12 0 A14 lowest_node_id0 0 1 dA16 mesh_offset_data206 0 Z1 1578 2 3 0 0 0 0 0
 0 1e3 1e-8 0 0 0 1 0 1 1 4 5 6 7 0 0 8 9 10 0 0 0 0 0 0 0 81 255 1 2 1578 11 1
 12 0 0 0 13 70 11 CI9 list_type0 0 1 uI10 notransmit0 0 1 lCCCDCCDI12 finger_in
dex0 0 1 dI12 finger_block1012 0 CZ3 0 4 T1 0 0 6 20 1 14 14 13 255 4 3 0 1 0 15
 0 0 16 0 52 255 5 1383 0 17 18 0 0 -0 0 .00225 0 0 -1 .004 .5 .866025403784439
 -1 0 0 31 255 6 1420 0 19 20 0 0 -0 0 .0018 0 0 1 1 0 0 .016 29 255 7 1172 0 10
 21 0 .00876986842105264 .002022228443431575 .0056 19 8 CCCCCCCA5 owner12 0 Z8 1
 0 1 16 0 22 V0 16 255 9 1364 23 ?24 0 25 20 0 0 1 18 255 10 1168 0 26 0 27 7 ?1
 17 255 26 0 28 29 30 10 31 32 0 33 -18 27 954 0 34 10 35 21 ?1 17 34 0 36 37 38
 27 39 40 0 41 -18 35 740 0 42 27 43 44 ?1 29 21 958 0 27 44 7 .0020222284434316
1 -.00876986842105263 .0056 29 44 744 0 35 45 21 -.00876986842105263 -.002022228
4434316 .0056 29 45 542 0 43 46 44 -.00202222844343161 .00876986842105263 .0056
 18 43 538 0 47 35 48 45 ?1 29 46 676 0 48 49 45 .00202222844343161 .00876986842
105263 .0047 18 48 620 0 50 43 51 46 ?1 29 49 677 0 51 52 46 -.00202222844343161
 .00876986842105263 .0047 18 51 618 0 53 48 54 49 ?1 29 52 678 0 54 55 49 .00202
222844343161 .00876986842105263 .0056 18 54 621 0 56 51 57 52 ?1 29 55 887 0 57
 58 52 -.00876986842105263 .00202222844343162 .0047 18 57 831 0 59 54 60 55 ?1 2
9 58 888 0 60 61 55 -.00876986842105263 -.002022228443431605 .0047 18 60 829 0 6
2 57 63 58 ?1 29 61 889 0 63 64 58 -.00876986842105263 .00202222844343162 .0056
 18 63 832 0 65 60 66 61 ?1 29 64 1101 0 66 67 61 -.002022228443431605 -.0087698
6842105263 .0047 18 66 1045 0 68 63 69 64 ?1 29 67 1102 0 69 70 64 .002022228443
43161 -.00876986842105263 .0047 18 69 1043 0 71 66 72 67 ?1 29 70 1103 0 72 73 6
7 -.00202222844343161 -.00876986842105263 .0056 18 72 1046 0 37 69 74 70 ?1 29 7
3 1315 0 74 75 70 .00876986842105263 -.00202222844343164 .0047 18 74 1259 0 76 7
2 77 73 ?1 29 75 1316 0 77 78 73 .00876986842105264 .002022228443431575 .0047 18
 77 1257 0 30 74 79 75 ?1 29 78 1317 0 79 0 75 .00876986842105263 -.002022228443
431645 .0056 18 79 1260 0 29 77 0 78 ?1 17 29 0 28 76 26 79 33 80 0 81 -15 255 2
8 1299 0 30 82 83 17 76 0 28 30 29 74 81 84 0 85 -17 33 0 86 56 87 10 29 80 0 88
 +16 80 1173 89 ?33 25 90 91 0 0 1 17 81 0 92 93 94 79 76 84 0 87 +15 92 1198 0
 94 95 0 17 93 0 92 39 81 27 87 96 0 0 -17 94 0 92 81 39 74 71 97 0 0 -16 84 125
1 98 ?81 99 32 100 0 0 1 17 87 0 86 33 41 79 93 96 0 0 +15 86 1174 0 33 101 102
 17 41 0 86 87 103 27 37 90 0 93 +16 96 955 104 ?87 105 106 107 105 106 1 81 1 1
04 1342 108 96 0 0 109 110 111 16 105 741 112 ?103 113 96 107 113 96 1 16 106 11
69 110 ?56 96 114 107 96 113 1 31 107 195 0 113 115 116 0 +0 0 .0056 0 0 1 1 0 0
 .009 16 113 148 117 ?118 119 105 107 106 105 1 31 115 488 0 120 121 107 0 +0 0
 .00175 0 0 -1 -1 0 0 .0065 31 116 193 0 114 107 122 0 -0 0 .0047 0 0 1 1 0 0 .0
09 16 114 155 123 ?124 106 97 116 97 125 1 31 122 16 0 119 116 126 0 +0 0 .0029
 0 0 -1 -1 0 0 .016 16 119 12 127 ?128 129 113 122 0 0 1 31 126 44 0 129 122 130
 0 +0 0 .0029 0 0 1 1 0 0 .0149 16 129 41 131 ?132 133 119 126 0 0 1 31 130 333
 0 133 126 134 0 -0 0 .0044 0 0 1 1 0 0 .0149 16 133 330 135 ?136 137 129 130 0
 0 1 31 134 341 0 137 130 138 0 +0 0 .0047 0 0 1 1 0 0 .0147267949192431 16 137
 338 139 ?140 141 133 134 0 0 1 31 138 379 0 141 134 142 0 +0 0 3e-4 0 0 -1 -1 0
 0 .0065 16 141 376 143 ?144 145 137 138 0 0 1 31 142 387 0 145 138 146 0 -0 0 0
 0 0 -1 -1 0 0 .00667320508075689 16 145 384 147 ?148 120 141 142 0 0 1 31 146 5
45 0 149 142 150 0 -0 .0095 .0056 0 0 1 1 0 0 .00215 16 149 543 151 ?152 153 120
 146 0 0 1 31 150 575 0 154 146 155 0 +0 .0095 0 0 0 -1 -1 0 0 .00115 16 154 595
 156 ?157 158 159 150 0 0 1 31 155 747 0 153 150 160 0 --.0095 11128825963534e-3
0 .0056 0 0 1 1 0 0 .00215 16 153 745 161 ?162 90 149 155 0 0 1 31 160 786 0 163
 155 164 0 +-.0095 11128825963534e-30 0 0 0 -1 -1 0 0 .00115 16 163 806 165 ?166
 167 168 160 0 0 1 31 164 961 0 90 160 169 0 -0 -.0095 .0056 0 0 1 1 0 0 .00215
 16 90 959 170 ?41 80 153 164 0 0 1 31 169 1000 0 171 164 91 0 +0 -.0095 0 0 0 -
1 -1 0 0 .00115 16 171 1020 172 ?173 174 175 169 0 0 1 31 91 1175 0 80 169 176 0
 -.0095 -354959016373897e-31 .0056 0 0 1 1 0 0 .00215 31 176 1214 0 177 91 178 0
 +.0095 -354959016373897e-31 0 0 0 -1 -1 0 0 .00115 16 177 1234 179 ?180 181 99
 176 0 0 1 31 178 1361 0 25 176 20 0 +0 0 .00225 0 0 -1 -1 0 0 .004 16 25 1358 1
82 ?183 9 80 178 0 0 1 31 20 1367 0 9 178 6 0 -0 0 .00175 0 0 -1 -1 0 0 .0042886
75134594815 81 1 182 1393 108 25 0 0 23 184 185 17 183 0 186 183 183 0 187 25 0
 0 +15 186 1359 0 183 188 189 17 187 0 190 187 187 0 183 25 0 0 -15 190 1378 0 1
87 17 0 14 255 17 1376 191 ?192 82 193 4 5 +0 0 192 82 22 81 1 191 1573 194 17 1
95 0 196 197 198 14 192 1470 197 ?199 17 200 4 201 -0 0 199 17 22 14 82 1295 196
 ?17 202 28 4 203 -0 0 17 202 22 15 193 1377 0 204 17 190 13 22 4 0 0 0 0 0 0 8
 15 14 15 9 205 ?95 0 206 4 207 +0 0 95 0 22 81 1 205 1519 194 15 208 0 0 209 21
0 14 95 1199 209 ?211 15 92 4 212 -211 213 211 15 22 15 206 385 0 148 15 214 50
 255 207 11 0 15 215 216 0 +0 0 0 0 0 -1 -1 0 0 51 255 215 92 0 217 218 207 0 +0
 0 0 0 0 1 .0149 1 0 0 50 216 17 0 219 207 220 0 +0 0 .0029 0 0 1 1 0 0 14 219 1
5 221 ?222 217 223 4 216 +0 0 222 217 22 51 220 18 0 222 216 224 0 +0 0 0 0 0 1
 .016 1 0 0 14 222 2 225 ?213 219 226 4 220 +0 0 213 219 22 52 224 361 0 227 220
 18 0 +0 0 .0044 0 0 -1 .0149 .5 .866025403784438 -1 0 0 14 227 354 228 ?229 101
 230 4 224 +0 0 229 101 22 52 18 405 0 229 224 5 0 -0 0 3e-4 0 0 -1 .0065 .5 .86
6025403784439 -1 0 0 14 229 398 231 ?188 227 232 4 18 +0 0 188 227 22 81 1 231 1
543 194 229 233 0 228 234 235 14 188 463 234 ?236 229 186 4 237 +0 0 236 229 22
 15 232 399 0 238 229 239 17 238 0 232 238 238 0 148 145 0 0 -15 239 400 0 240 2
29 0 17 240 0 239 240 240 0 144 141 0 0 -17 144 0 241 144 144 0 240 141 0 0 +15
 241 377 0 144 242 243 14 242 300 244 ?217 245 241 4 246 -0 0 217 245 22 15 243
 438 0 247 242 0 17 247 0 243 247 247 0 248 120 0 0 -17 248 0 249 248 248 0 247
 120 0 0 +16 120 436 250 ?248 149 145 115 0 0 1 81 1 250 508 108 120 0 0 251 252
 253 80 255 1 108 254 255 9000 1 1 1 1 1 1 1 1 0 FFFFTFTFFFFFFF3 81 1 251 507 10
8 158 0 0 256 250 257 81 1 252 511 108 242 0 258 250 259 260 84 255 32 253 b206a
0384110d0afe2794e889484282081 1 258 1526 261 242 252 244 262 263 264 81 1 259 69
9 108 265 0 0 252 266 267 84 32 260 f6bcf10c2a21b4818624c2fc7910a17316 265 608 2
59 ?268 269 167 270 0 0 1 81 1 266 700 108 167 0 0 259 156 271 84 32 267 26195fd
b2721c736d32b088bbaa3c1c716 167 610 266 ?272 265 163 273 0 0 1 81 1 156 701 108
 154 0 0 266 151 274 84 32 271 32cdb04edf28acf1e83372f743abb70d81 1 151 704 108
 149 0 0 156 275 276 84 32 274 df74fb51d7bb7916b7caab61854948c781 1 275 705 108
 277 0 0 151 278 279 84 32 276 95efc1d322893b0fb7986fc8f631055c16 277 612 275 ?2
80 159 269 281 0 0 1 81 1 278 706 108 159 0 0 275 282 283 84 32 279 9abad6298e30
afbdac3023c2baf1196116 159 600 278 ?284 154 277 285 0 0 1 81 1 282 707 108 269 0
 0 278 286 287 84 32 283 a071d09e415e7554bb44bec17729a74916 269 615 282 ?288 277
 265 289 0 0 1 81 1 286 712 108 290 0 291 282 292 293 84 32 287 4f9071adb27743b6
1fb2dc9daab83eef14 290 644 294 ?295 236 296 4 297 -0 0 295 236 22 81 1 291 1548
 261 290 286 294 298 299 300 81 1 292 713 108 295 0 299 286 301 302 84 32 293 08
084de693d5481e83257211ef1b1df314 295 650 303 ?304 290 305 4 306 -0 0 304 290 22
 81 1 299 1550 261 295 292 303 291 307 308 81 1 301 714 108 304 0 307 292 309 31
0 84 32 302 86221c56f0aeaf8b589d6a859d325de314 304 656 311 ?312 295 313 4 314 -0
 0 312 295 22 81 1 307 1552 261 304 301 311 299 315 316 81 1 309 910 108 174 0 0
 301 165 317 84 32 310 42ab1a9030130954a7d3d69257e9ab0c16 174 821 309 ?318 319 1
71 320 0 0 1 81 1 165 911 108 163 0 0 309 321 322 84 32 317 9309a10f324e6b6de096
cca9c728e56181 1 321 912 108 319 0 0 165 323 324 84 32 322 211db18531b6898e24d6b
72c3b7b206816 319 819 321 ?325 326 174 327 0 0 1 81 1 323 915 108 125 0 0 321 11
7 328 84 32 324 d10c1c39f26f9274fb57906e1803dfb916 125 758 323 ?53 329 158 116 1
14 329 1 81 1 117 916 108 113 0 0 323 161 330 84 32 328 d6a88cce0290a977591fea2c
74381ccd81 1 161 917 108 153 0 0 117 331 332 84 32 330 2549af52f6e44dd6d2caa7e67
b4903f181 1 331 918 108 168 0 0 161 333 334 84 32 332 470c7b4f2c30b6af7e2b5be73c
e8ac1b16 168 811 331 ?335 163 336 337 0 0 1 81 1 333 919 108 336 0 0 331 338 339
 84 32 334 d1f2069a3d600c26a030d8a4a838eb5b16 336 823 333 ?340 168 326 341 0 0 1
 81 1 338 920 108 326 0 0 333 342 343 84 32 339 c63b335efff9fafa325267f6a59e1ce2
16 326 826 338 ?344 336 319 345 0 0 1 81 1 342 925 108 245 0 262 338 346 347 84
 32 343 286049845223d164ce02718987285a8d14 245 771 348 ?242 211 349 4 212 -213 2
11 242 211 22 81 1 262 1524 261 245 342 348 350 258 351 81 1 346 926 108 312 0 3
15 342 352 353 84 32 347 b006e977ab056152fe48bcd109a7cf3314 312 855 354 ?355 304
 356 4 357 -0 0 355 304 22 81 1 315 1554 261 312 346 354 307 358 359 81 1 352 92
7 108 360 0 361 346 362 363 84 32 353 51682ece792d7a5beb50284ccd4c362814 360 867
 364 ?365 355 366 4 367 -0 0 365 355 22 81 1 361 1558 261 360 352 364 358 368 36
9 81 1 362 928 108 355 0 358 352 370 371 84 32 363 7b7106b3f8b4e0c93123fb63b1bf4
6da14 355 861 372 ?360 312 373 4 374 -0 0 360 312 22 81 1 358 1556 261 355 362 3
72 315 361 375 81 1 370 1124 108 181 0 0 362 172 376 84 32 371 4aaf91e218df23b7c
5f1b48838174d9916 181 1035 370 ?377 378 177 379 0 0 1 81 1 172 1125 108 171 0 0
 370 380 381 84 32 376 6590d3433c3e0df29006cdcd9aa397cc81 1 380 1126 108 378 0 0
 172 112 382 84 32 381 9a004d53332f401da2b9d24565e99e2616 378 1033 380 ?383 40 1
81 384 0 0 1 81 1 112 1127 108 105 0 0 380 385 386 84 32 382 95a53c1740e9602f10c
059eff1a78c0a81 1 385 1128 108 329 0 0 112 170 387 84 32 386 2002da7fb2a75fb48ea
631d85a5859cb16 329 972 385 ?62 97 125 116 125 97 1 81 1 170 1131 108 90 0 0 385
 388 389 84 32 387 b5e5dc69517e0b50f729072e1208f1cc81 1 388 1132 108 175 0 0 170
 390 391 84 32 389 6681e12527e9bba92ef4d9bf88abe7df16 175 1025 388 ?38 171 392 3
93 0 0 1 81 1 390 1133 108 392 0 0 388 394 395 84 32 391 2c51f025965a66776f69b44
23eb055fb16 392 1037 390 ?396 175 40 397 0 0 1 81 1 394 1134 108 40 0 0 390 398
 399 84 32 395 46ca337035816ddc912ed9261f38695516 40 1040 394 ?39 392 378 400 0
 0 1 81 1 398 1138 108 211 0 350 394 401 402 84 32 399 774cc82e185b850a98d3648e9
2a50eee14 211 985 403 ?245 95 404 4 212 -245 95 245 95 22 81 1 350 1522 261 211
 398 403 405 262 406 81 1 401 1140 108 407 0 408 398 409 410 84 32 402 f2f6d7225
5519e8068134eeb9c76274a14 407 1075 411 ?412 365 413 4 414 -0 0 412 365 22 81 1 4
08 1562 261 407 401 411 368 415 416 81 1 409 1141 108 365 0 368 401 417 418 84 3
2 410 7125e7c0d425ec610e5f999ac20325e814 365 1069 419 ?407 360 420 4 421 -0 0 40
7 360 22 81 1 368 1560 261 365 409 419 361 408 422 81 1 417 1142 108 412 0 415 4
09 423 424 84 32 418 dbbee0691f2c1122b7e22f7eff12b11614 412 1081 425 ?426 407 36
 4 427 -0 0 426 407 22 81 1 415 1564 261 412 417 425 408 428 429 81 1 423 1338 1
08 430 0 0 417 179 431 84 32 424 98f4cfe62e691e8514034cb3c95478f916 430 1249 423
 ?432 433 19 434 0 0 1 81 1 179 1339 108 177 0 0 423 435 436 84 32 431 ee7b316d3
93376679dd61dbf178f0c9f81 1 435 1340 108 433 0 0 179 109 437 84 32 436 3ac87277a
68019a852e7ad13db9e97f516 433 1247 435 ?438 32 430 439 0 0 1 81 1 109 1341 108 9
7 0 0 435 104 440 84 32 437 ec660943ddd696db31b18298fb47ad3116 97 1186 109 ?71 1
14 329 116 329 114 1 84 32 440 d7ce54deb080ec63fc0b07d9ad37ce7017 71 0 441 442 8
5 69 94 97 0 38 +15 441 1191 0 85 443 444 17 442 0 441 62 71 66 38 175 0 445 -17
 85 0 441 71 124 74 30 99 0 94 -17 38 0 36 34 68 69 442 175 0 39 +15 36 1085 0 3
8 412 446 17 68 0 36 38 37 66 396 392 0 442 -17 39 0 92 94 93 69 34 40 0 0 +17 3
7 0 36 68 34 72 41 90 0 396 -17 396 0 404 447 445 72 68 392 0 103 +15 404 984 0
 445 211 0 17 447 0 404 344 396 35 103 105 0 0 -17 445 0 404 396 344 66 62 329 0
 0 -17 103 0 86 41 162 72 447 105 0 0 +17 162 0 86 103 118 35 65 153 0 447 +17 1
18 0 86 162 152 63 448 113 0 0 +17 65 0 366 59 42 63 162 153 0 340 -15 366 871 0
 335 360 449 17 59 0 366 335 65 57 340 336 0 450 -17 42 0 366 65 335 35 344 326
 0 162 -17 340 0 349 448 451 63 59 336 0 118 +15 349 770 0 451 245 0 17 448 0 34
9 288 340 43 118 113 0 0 -17 451 0 349 340 288 57 53 125 0 0 -17 288 0 349 451 4
48 51 47 269 0 0 +17 53 0 441 452 450 51 451 125 0 284 +17 452 0 441 124 53 48 2
84 159 0 453 -17 450 0 441 53 62 57 335 168 0 451 -17 284 0 313 47 50 51 452 159
 0 288 +15 313 660 0 284 304 454 17 47 0 313 455 284 43 288 269 0 152 -17 50 0 3
13 284 455 48 280 277 0 452 -17 455 0 313 50 47 54 152 149 0 280 -17 280 0 456 8
8 453 54 50 277 0 0 +15 456 175 0 88 213 0 17 88 0 456 31 280 10 56 106 0 0 -17
 453 0 456 280 31 48 124 114 0 0 -17 31 0 456 453 88 77 26 32 0 124 +17 124 0 44
1 85 452 77 453 114 0 0 +16 32 1254 457 ?31 84 433 458 0 0 1 81 1 457 1346 108 3
2 0 0 89 98 459 30 255 458 1310 0 32 439 100 0 +.00876986842105264 .002022228443
431575 .004105 0 0 -1 31 439 1313 0 433 434 458 0 -.0095 -354959016373897e-31 .0
026 0 0 -1 -1 0 0 .00115 30 100 1309 0 84 458 460 0 -.00876986842105263 -.002022
22844343164 .004105 0 0 -1 31 460 1308 0 99 100 379 0 +.0095 -354959016373897e-3
1 .0047 0 0 1 1 0 0 .00215 16 99 1239 461 ?30 177 84 460 0 0 1 31 379 1100 0 181
 460 384 0 -0 -.0095 .0026 0 0 -1 -1 0 0 .00215 31 384 1099 0 378 379 400 0 -0 -
.0095 .0026 0 0 -1 -1 0 0 .00115 30 400 1096 0 40 384 397 0 +.00202222844343161
 -.00876986842105263 .004105 0 0 -1 30 397 1095 0 392 400 393 0 --.0020222284434
3161 -.00876986842105263 .004105 0 0 -1 31 393 1094 0 175 397 320 0 +0 -.0095 .0
047 0 0 1 1 0 0 .00215 31 320 886 0 174 393 327 0 --.0095 11128825963534e-30 .00
26 0 0 -1 -1 0 0 .00215 31 327 885 0 319 320 345 0 --.0095 11128825963534e-30 .0
026 0 0 -1 -1 0 0 .00115 30 345 882 0 326 327 341 0 +-.00876986842105263 -.00202
22284434316 .004105 0 0 -1 30 341 881 0 336 345 337 0 --.00876986842105263 .0020
2222844343162 .004105 0 0 -1 31 337 880 0 168 341 273 0 +-.0095 11128825963534e-
30 .0047 0 0 1 1 0 0 .00215 31 273 675 0 167 337 270 0 -0 .0095 .0026 0 0 -1 -1
 0 0 .00215 31 270 674 0 265 273 289 0 -0 .0095 .0026 0 0 -1 -1 0 0 .00115 30 28
9 671 0 269 270 281 0 +-.00202222844343161 .00876986842105263 .004105 0 0 -1 30
 281 670 0 277 289 285 0 -.00202222844343161 .00876986842105263 .004105 0 0 -1 3
1 285 669 0 159 281 121 0 +0 .0095 .0047 0 0 1 1 0 0 .00215 31 121 490 0 158 285
 115 0 +0 0 .0056 0 0 -1 -1 0 0 .004 16 158 461 251 ?462 125 154 121 0 0 1 17 46
2 0 102 462 462 0 463 158 0 0 +15 102 479 0 462 101 0 17 463 0 189 463 463 0 462
 158 0 0 -15 189 467 0 463 188 0 14 101 79 464 ?227 443 86 4 218 +0 0 227 443 22
 81 1 464 1539 194 101 465 0 466 228 467 14 443 182 466 ?101 213 441 4 468 +0 0
 101 213 22 50 218 93 0 101 212 215 0 +0 0 .0056 0 0 1 1 0 0 51 212 190 0 213 46
8 218 0 -0 0 .0056 0 0 -1 .009 -1 0 0 14 213 172 469 ?443 222 456 4 212 -95 245
 443 222 22 50 468 191 0 443 246 212 0 +0 0 .0047 0 0 1 1 0 0 51 246 309 0 242 2
37 468 0 +0 0 .0047 0 0 -1 .0065 -1 0 0 51 237 483 0 188 470 246 0 -0 0 0 0 0 -1
 .004 -1 0 0 50 470 484 0 236 314 237 0 +.004 0 .00175 0 0 -1 -1 0 0 14 236 468
 471 ?290 188 472 4 470 +0 0 290 188 22 51 314 665 0 304 306 470 0 +0 .0095 .004
7 0 0 -1 .00215 -1 0 0 50 306 666 0 295 297 314 0 +0 .0095 .0026 0 0 -1 -1 0 0 5
1 297 667 0 290 367 306 0 +0 .0095 -.0204111266421947 0 0 -1 .00115 -1 0 0 51 36
7 876 0 360 374 297 0 +-.0095 11128825963534e-30 .0047 0 0 -1 .00215 -1 0 0 50 3
74 877 0 355 357 367 0 +-.0095 11128825963534e-30 .0026 0 0 -1 -1 0 0 51 357 878
 0 312 427 374 0 +-.0095 11128825963534e-30 -.0204111266421947 0 0 -1 .00115 -1
 0 0 51 427 1090 0 412 414 357 0 +0 -.0095 .0047 0 0 -1 .00215 -1 0 0 50 414 109
1 0 407 421 427 0 +0 -.0095 .0026 0 0 -1 -1 0 0 51 421 1092 0 365 203 414 0 +0 -
.0095 -.0204111266421947 0 0 -1 .00115 -1 0 0 51 203 1304 0 82 473 421 0 +.0095
 -354959016373897e-31 .0047 0 0 -1 .00215 -1 0 0 50 473 1305 0 202 474 203 0 +.0
095 -354959016373897e-31 .0026 0 0 -1 -1 0 0 14 202 1289 475 ?82 426 476 4 473 -
0 0 82 426 22 51 474 1306 0 426 201 473 0 +.0095 -354959016373897e-31 -.02041112
66421947 0 0 -1 .00115 -1 0 0 14 426 1283 477 ?202 412 478 4 474 -0 0 202 412 22
 51 201 1488 0 192 479 474 0 -0 0 .0018 0 0 -1 .0145 -1 0 0 50 479 1490 0 199 0
 201 0 +0 0 .0018 0 0 1 1 0 0 14 199 1475 480 ?0 192 481 4 479 -0 0 0 192 22 81
 1 480 1577 194 199 482 0 197 0 483 15 481 1478 0 484 199 485 17 484 0 481 484 4
84 0 486 19 0 0 +15 485 1479 0 487 199 0 17 487 0 485 487 487 0 488 489 0 0 -17
 488 0 200 488 488 0 487 489 0 0 +16 489 1446 490 ?488 19 491 492 0 0 1 81 1 490
 1511 108 489 0 0 493 494 495 16 19 1441 493 ?484 430 489 6 0 0 1 16 491 1451 49
6 ?497 489 0 498 0 0 1 31 492 1494 0 489 0 498 0 -0 0 .0018 0 0 1 1 0 0 .0145 31
 498 1492 0 491 492 434 0 +0 0 0 0 0 1 1 0 0 .0145 31 434 1314 0 430 498 439 0 -
.0095 -354959016373897e-31 .0026 0 0 -1 -1 0 0 .00215 81 1 496 1509 108 491 0 0
 499 493 500 17 497 0 501 497 497 0 502 491 0 0 +15 501 1474 0 497 192 0 17 502
 0 503 502 502 0 497 491 0 0 -15 503 1426 0 502 15 0 81 1 499 1396 108 17 0 195
 504 496 505 81 1 493 1510 108 19 0 0 496 490 506 84 32 500 4573b855d6791e8c8ae5
d57c52fd1c2d84 32 506 a42760aaccb788b6e338fcc6d81ee2ef81 1 195 1572 261 17 499 1
91 507 508 509 81 1 504 1395 108 236 0 298 184 499 510 84 32 505 f7fc592e332c217
ea70e4569bbcc2c5181 1 298 1546 261 236 504 471 511 291 512 81 1 184 1394 108 188
 0 511 182 504 513 84 32 510 d0845e8e1f9a04a930d8ab159df2192581 1 511 1544 261 1
88 184 234 233 298 514 84 32 513 7ae59212b37a37b38f88e78b38e37d8480 1 261 515 51
6 8015 0 0 0 0 3 5 0 0 0 FFFFTFFFFFFFFF2 81 1 234 1545 194 188 511 0 231 471 517
 81 1 233 1542 261 229 256 231 518 511 519 83 255 1 514 0 81 1 256 418 108 229 0
 233 147 251 520 81 1 518 1540 261 227 521 228 465 233 522 83 1 519 0 81 1 521 3
74 108 227 0 518 523 143 524 81 1 228 1541 194 227 518 0 464 231 525 81 1 465 15
38 261 101 526 464 527 518 528 83 1 522 0 81 1 526 1350 108 101 0 465 461 529 53
0 81 1 527 1536 261 443 529 466 531 465 532 83 1 528 0 81 1 529 1351 108 443 0 5
27 526 533 534 81 1 466 1537 194 443 527 0 469 464 535 81 1 531 1534 261 213 536
 469 537 527 538 83 1 532 0 81 1 536 1353 108 213 0 531 533 539 540 81 1 469 153
5 194 213 531 0 225 466 541 81 1 537 1532 261 222 542 225 543 531 544 83 1 538 0
 81 1 542 1513 108 222 0 537 494 545 546 81 1 225 1533 194 222 537 0 221 469 547
 81 1 543 1530 261 219 548 221 263 537 549 83 1 544 0 81 1 548 113 108 219 0 543
 131 139 550 81 1 221 1531 194 219 543 0 551 225 552 81 1 263 1528 261 217 523 5
51 258 543 553 83 1 549 0 14 217 85 551 ?219 242 554 4 215 +0 0 219 242 22 81 1
 523 372 108 217 0 263 135 521 555 81 1 551 1529 194 217 263 0 244 221 556 83 1
 553 0 80 1 194 0 557 8001 0 0 0 0 3 5 0 0 0 FFFFTFTFFFFFFF2 81 1 244 1527 194 2
42 258 0 348 551 558 83 3 556 .6 .6 .6 81 1 348 1525 194 245 262 0 403 244 559 8
3 3 558 .6 .6 .6 81 1 403 1523 194 211 350 0 209 348 560 83 3 559 .6 .6 .6 81 1
 209 1521 194 95 405 0 205 403 561 83 3 560 .6 .6 .6 81 1 405 1520 261 95 533 20
9 208 350 562 83 3 561 .6 .6 .6 81 1 533 1352 108 95 0 405 529 536 563 81 1 208
 1518 261 15 494 205 0 405 564 83 1 562 0 81 1 494 1512 108 15 0 208 490 542 565
 83 1 564 0 84 32 565 d838de4fee443e9ada445ca502ed772984 32 563 77bd41ba5447680e
ba0596826a8fe69479 255 15 557 SDL/TYSA_COLOUR81 1 135 371 108 133 0 0 139 523 56
6 84 32 555 f043e97555eeb463f71d9508092356e281 1 139 370 108 137 0 0 548 135 567
 84 32 566 b8b197d0ddd4933b1796f31a117267f284 32 567 74acc9b21496c382c57c6797f83
835a615 554 331 0 136 217 568 17 136 0 554 136 136 0 569 133 0 0 +15 568 88 0 13
2 217 0 17 132 0 568 132 132 0 570 129 0 0 +17 570 0 223 570 570 0 132 129 0 0 -
15 223 43 0 570 219 571 15 571 14 0 572 219 0 17 572 0 571 572 572 0 128 119 0 0
 -17 128 0 573 128 128 0 572 119 0 0 +15 573 13 0 128 222 0 17 569 0 574 569 569
 0 136 133 0 0 -15 574 356 0 569 227 0 83 3 552 .6 .6 .6 81 1 131 109 108 129 0
 0 127 548 575 84 32 550 8ae3413c46b3965e7b412c20ded5c72b81 1 127 29 108 119 0 0
 0 131 576 84 32 575 659a0edc707d6e2da802e31e56715f5284 32 576 22ae944bf21930509
e8b8f5fb9df68e383 3 547 .6 .6 .6 81 1 545 1514 108 192 0 508 542 577 578 84 32 5
46 18a6fc07917ecf5c320ede80451515cc81 1 508 1574 261 192 545 197 195 482 579 81
 1 577 1515 108 199 0 482 545 0 580 84 32 578 000f73f27aacd8c660ae99c883ad0d2981
 1 482 1576 261 199 577 480 508 0 581 84 32 580 358e97c9a05bdffac2fbf6a3139ab49f
83 1 581 0 81 1 197 1575 194 192 508 0 191 480 582 83 1 579 0 83 3 582 .6 .6 .6
 83 3 541 .6 .6 .6 81 1 539 1354 108 82 0 507 536 583 584 84 32 540 f5a30a92af78
251607b41c19f5bfbf5481 1 507 1570 261 82 539 196 585 195 586 81 1 583 1355 108 2
02 0 585 539 587 588 84 32 584 8debe49207abb7563e7ff1b18709b35481 1 585 1568 261
 202 583 475 428 507 589 81 1 587 1356 108 426 0 428 583 23 590 84 32 588 df6ecd
ed273df7c687ab9eb808cdeaca81 1 428 1566 261 426 587 477 415 585 591 81 1 23 1392
 108 9 0 0 587 182 592 84 32 590 06d293294880a0c91c0d28292aba8f2684 32 592 9e7b0
616b46b4fe38eb39a670f13b03181 1 477 1567 194 426 428 0 425 475 593 83 1 591 0 81
 1 425 1565 194 412 415 0 411 477 594 81 1 475 1569 194 202 585 0 477 196 595 83
 3 593 .6 .6 .6 81 1 196 1571 194 82 507 0 475 191 596 83 3 595 .6 .6 .6 83 3 59
6 .6 .6 .6 81 1 411 1563 194 407 408 0 419 425 597 83 3 594 .6 .6 .6 81 1 419 15
61 194 365 368 0 364 411 598 83 3 597 .6 .6 .6 81 1 364 1559 194 360 361 0 372 4
19 599 83 3 598 .6 .6 .6 81 1 372 1557 194 355 358 0 354 364 600 83 3 599 .6 .6
 .6 81 1 354 1555 194 312 315 0 311 372 601 83 3 600 .6 .6 .6 81 1 311 1553 194
 304 307 0 303 354 602 83 3 601 .6 .6 .6 81 1 303 1551 194 295 299 0 294 311 603
 83 3 602 .6 .6 .6 81 1 294 1549 194 290 291 0 471 303 604 83 3 603 .6 .6 .6 81
 1 471 1547 194 236 298 0 234 294 605 83 3 604 .6 .6 .6 83 3 605 .6 .6 .6 83 1 5
89 0 83 1 586 0 83 3 535 .6 .6 .6 84 32 534 f39ae808859d4bbdca2bd2b3a3e9653a81 1
 461 1348 108 99 0 0 98 526 606 84 32 530 fe557e9b7f412b3ce62e5ae1c67e2ec281 1 9
8 1347 108 84 0 0 457 461 607 84 32 606 033931cd3592a63b39dd26d072eac4db84 32 60
7 3812733b00b296ccc071243823ebaada83 3 525 .6 .6 .6 81 1 143 414 108 141 0 0 521
 147 608 84 32 524 b46e036bca25d45457333a7600dc133181 1 147 415 108 145 0 0 143
 256 609 84 32 608 2cf5a718e773fa97f7798f07de053eaa84 32 609 e3e92b83078c7638bf9
2ac1c84b15a0784 32 520 42afb0a951d158377d5f34c9bc581c1383 3 517 .6 .6 .6 79 21 5
16 SDL/TYSA_TRANSLUCENCY83 1 512 0 83 1 509 0 84 32 495 9501012be4062a0c2a62676e
bf7676fc15 200 1473 0 488 192 501 17 486 0 226 486 486 0 484 19 0 0 -15 226 1419
 0 486 222 573 83 3 483 .6 .6 .6 15 478 1287 0 180 426 610 17 180 0 478 180 180
 0 611 177 0 0 +15 610 1288 0 438 426 0 17 438 0 610 438 438 0 612 433 0 0 +17 6
12 0 476 612 612 0 438 433 0 0 -15 476 1293 0 612 202 613 15 613 1294 0 432 202
 0 17 432 0 613 432 432 0 614 430 0 0 +17 614 0 83 614 614 0 432 430 0 0 -15 83
 1300 0 614 82 0 17 611 0 615 611 611 0 180 177 0 0 -15 615 1213 0 611 15 503 15
 472 1365 0 24 236 249 17 24 0 472 24 24 0 204 9 0 0 +15 249 471 0 248 236 0 17
 204 0 193 204 204 0 24 9 0 0 -83 3 467 .6 .6 .6 17 30 0 28 26 76 77 85 99 0 31
 +81 1 89 1345 108 80 0 0 123 457 616 84 32 459 bb5dbcf0c831d79abaf305c2c367f952
81 1 123 1344 108 114 0 0 110 89 617 84 32 616 3ccd87418019dcc1ba25cb0cb8d1e4a28
1 1 110 1343 108 106 0 0 104 123 618 84 32 617 71e498669ebd43cc04f50b26ead461688
4 32 618 8501d46dd404da7bac29bf8ebd1f481c17 56 0 86 152 33 54 88 106 0 455 +17 1
52 0 86 118 56 43 455 149 0 448 +15 454 661 0 619 304 0 17 619 0 454 619 619 0 2
72 167 0 0 -17 272 0 620 272 272 0 619 167 0 0 +15 620 655 0 272 295 0 17 62 0 4
41 450 442 60 445 329 0 335 +17 335 0 366 42 59 60 450 168 0 344 +17 344 0 404 4
45 447 60 42 326 0 0 +15 449 872 0 621 360 0 17 621 0 449 621 621 0 318 174 0 0
 -17 318 0 622 318 318 0 621 174 0 0 +15 622 866 0 318 355 0 15 446 1086 0 623 4
12 0 17 623 0 446 623 623 0 377 181 0 0 -17 377 0 624 377 377 0 623 181 0 0 +15
 624 1080 0 377 407 0 15 444 339 0 140 443 0 17 140 0 444 140 140 0 625 137 0 0
 +17 625 0 230 625 625 0 140 137 0 0 -15 230 355 0 625 227 574 83 1 429 0 83 1 4
22 0 15 420 1073 0 173 365 626 17 173 0 420 173 173 0 627 171 0 0 +15 626 1074 0
 383 365 0 17 383 0 626 383 383 0 628 378 0 0 +17 628 0 413 628 628 0 383 378 0
 0 -15 413 1079 0 628 407 624 17 627 0 629 627 627 0 173 171 0 0 -15 629 999 0 6
27 15 615 83 1 416 0 83 1 406 0 83 1 375 0 15 373 865 0 630 355 622 17 630 0 373
 630 630 0 325 319 0 0 -17 325 0 631 325 325 0 630 319 0 0 +15 631 860 0 325 312
 0 83 1 369 0 83 1 359 0 15 356 859 0 166 312 631 17 166 0 356 166 166 0 632 163
 0 0 +17 632 0 633 632 632 0 166 163 0 0 -15 633 785 0 632 15 629 83 1 351 0 83
 1 316 0 83 1 308 0 15 305 654 0 634 295 620 17 634 0 305 634 634 0 268 265 0 0
 -17 268 0 635 268 268 0 634 265 0 0 +15 635 649 0 268 290 0 83 1 300 0 15 296 6
48 0 157 290 635 17 157 0 296 157 157 0 636 154 0 0 +17 636 0 214 636 636 0 157
 154 0 0 -15 214 574 0 636 15 633 83 1 264 0 84 32 257 e36a9bcd0e5866570621780aa
c52a55479 15 255 UGS/ObjectState17 148 0 206 148 148 0 238 145 0 0 +83 3 235 .6
 .6 .6 83 3 210 .6 .6 .6 83 3 198 .6 .6 .6 84 32 185 8f79fe8868475be4ffdf74656c8
c368b84 32 111 df4893501517fb8ed313b22490ae51d919 16 5 0 1 0 8 4 S0 74 4 CI16 in
dex_map_offset0 0 1 dCCZ20 14 6 0 0 577 637 12 482 480 2 0 0 0 0 0 0 0 0 0 0 0 0
 0 0 81 2 637 1508 638 1 0 12 0 0 639 640 81 1 12 1517 641 1 637 2 0 0 642 80 1
 641 643 644 9000 0 0 0 0 3 5 0 0 0 FFTFFFFFFFFFFF1 82 255 1 642 -1 79 19 644 UG
2/PMARK_ATTRIBUTE80 2 638 645 646 8004 0 0 0 0 3 5 0 0 0 FFTFFFFFFFFFFF2 3 83 1
 639 .001 84 8 640 Kg/Cu M 79 16 646 SDL/TYSA_DENSITY80 1 11 647 648 9000 0 0 0
 0 3 5 0 0 0 FFTFFFFFFFFFFF1 82 1 13 87 79 24 648 UG2/BODY_COLOR_ATTRIBUTE1 0 
