**ABCDEFGHIJKLMNOPQRSTUVWXYZabcdefghijklmnopqrstuvwxyz**************************
**PARASOLID !"#$%&'()*+,-./:;<=>?@[\]^_`{|}~0123456789**************************
**PART1;
MC=x64/Windows NT;
MC_MODEL=genuineintel family 6 model 10 stepping 5, intel(r) xeon(r) cpu           w3550  @ 3.07ghz;
MC_ID=pc1401;
OS=windows nt (x64);
OS_RELEASE=6.3 windows 10 enterprise (build 17763) ;
FRU=mdc_ugii_v7.0_djl_can_vrh;
APPL=unigraphics;
SITE=unknown;
USER=huge;
FORMAT=text;
GUISE=transmit;
KEY=32-GPT_flange_a;
FILE=D:\Daten-Huge\PLM_Export\A_Internet_Modelle\Getriebe\32-x\32-GPT\32-GPT_flange_a.x_t;
DATE=23-jul-2019;
**PART2;
SCH=SCH_3001232_30100;
USFLD_SIZE=0;
**PART3;
**END_OF_HEADER*****************************************************************
T51 : TRANSMIT FILE created by modeller version 300123223 SCH_3001232_30100_1300
6214 0 12 34 CCCCCCI4 mesh1006 0 I8 polyline1008 0 CCCCCCCDI5 owner1040 0 CCCCCC
I13 boundary_mesh1006 0 I17 boundary_polyline1008 0 CCCA16 index_map_offset0 0 1
 dA9 index_map82 0 A17 node_id_index_map82 0 A20 schema_embedding_map82 0 A5 chi
ld12 0 A14 lowest_node_id0 0 1 dA16 mesh_offset_data206 0 Z1 2080 2 3 0 0 0 0 0
 0 1e3 1e-8 0 0 0 1 0 1 1 4 5 6 7 0 0 8 9 10 0 0 0 0 0 0 0 81 255 1 2 2080 11 1
 12 0 0 0 13 70 11 CI9 list_type0 0 1 uI10 notransmit0 0 1 lCCCDCCDI12 finger_in
dex0 0 1 dI12 finger_block1012 0 CZ3 0 4 T1 0 0 6 20 1 14 14 13 255 4 3 0 1 0 15
 0 0 16 0 52 255 5 1865 0 17 18 0 0 -0 0 .00225 0 0 -1 .004 .5 .866025403784439
 -1 0 0 31 255 6 1906 0 19 20 0 0 -0 0 .0018 0 0 1 1 0 0 .016 29 255 7 1642 0 10
 21 0 -.00866882697004786 .002418974775265505 .0056 19 8 CCCCCCCA5 owner12 0 Z8
 1 0 1 16 0 22 V0 16 255 9 1846 23 ?24 0 25 20 0 0 1 18 255 10 1638 0 26 0 27 7
 ?1 17 255 26 0 28 29 30 10 31 32 0 33 -18 27 1415 0 34 10 35 21 ?1 17 34 0 36 3
7 38 27 39 40 0 41 -18 35 1194 0 42 27 43 44 ?1 29 21 1419 0 27 44 7 .0022395198
7853026 -.00871691176470588 .0056 29 44 1198 0 35 45 21 .00642930709151763 .0062
9793698944036 .0056 29 45 975 0 43 46 44 .00866882697004786 -.002418974775265515
 .0056 18 43 971 0 47 35 48 45 ?1 29 46 752 0 48 49 45 -.00223951987853026 .0087
1691176470588 .0056 18 48 748 0 50 43 51 46 ?1 29 49 543 0 51 52 46 -.0064293070
9151762 -.00629793698944038 .0056 18 51 539 0 53 48 54 49 ?1 29 52 688 0 54 55 4
9 -.00642930709151762 -.00629793698944038 .0047 18 54 626 0 56 51 57 52 ?1 29 55
 689 0 57 58 52 -.00866882697004787 -.00241897477526548 .0047 18 57 628 0 59 54
 60 55 ?1 29 58 691 0 60 61 55 -.00866882697004787 -.00241897477526548 .0056 18
 60 627 0 62 57 63 58 ?1 29 61 906 0 63 64 58 -.00223951987853026 .0087169117647
0588 .0047 18 63 844 0 65 60 66 61 ?1 29 64 907 0 66 67 61 .002239519878530265 .
00871691176470588 .0047 18 66 846 0 68 63 69 64 ?1 29 67 908 0 69 70 64 .0022395
1987853026 .00871691176470588 .0056 18 69 845 0 71 66 72 67 ?1 29 70 1129 0 72 7
3 67 .00866882697004786 -.002418974775265515 .0047 18 72 1067 0 74 69 75 70 ?1 2
9 73 1130 0 75 76 70 .00642930709151759 -.0062979369894404 .0047 18 75 1069 0 77
 72 78 73 ?1 29 76 1131 0 78 79 73 .00642930709151759 -.0062979369894404 .0056 1
8 78 1068 0 80 75 81 76 ?1 29 79 1352 0 81 82 76 .00642930709151763 .00629793698
944036 .0047 18 81 1290 0 83 78 84 79 ?1 29 82 1353 0 84 85 79 .0086688269700478
8 .002418974775265455 .0047 18 84 1292 0 86 81 87 82 ?1 29 85 1354 0 87 88 82 .0
0866882697004788 .00241897477526546 .0056 18 87 1291 0 89 84 90 85 ?1 29 88 1573
 0 90 91 85 .00223951987853026 -.00871691176470588 .0047 18 90 1511 0 38 87 92 8
8 ?1 29 91 1574 0 92 93 88 -.002239519878530265 -.00871691176470588 .0047 18 92
 1513 0 94 90 95 91 ?1 29 93 1575 0 95 96 91 -.00223951987853026 -.0087169117647
0588 .0056 18 95 1512 0 37 92 97 93 ?1 29 96 1796 0 97 98 93 -.00866882697004786
 .002418974775265505 .0047 18 97 1734 0 30 95 99 96 ?1 29 98 1797 0 99 100 96 -.
0064293070915176 .0062979369894404 .0047 18 99 1736 0 101 97 102 98 ?1 29 100 17
99 0 102 0 98 -.0064293070915176 .00629793698944039 .0056 18 102 1735 0 29 99 0
 100 ?1 17 29 0 28 101 26 102 33 103 0 104 -15 255 28 1753 0 30 105 0 17 101 0 2
8 30 29 99 104 106 0 107 -17 33 0 108 62 109 10 29 103 0 110 +16 103 1715 111 ?3
3 112 19 113 0 0 1 17 104 0 114 115 116 102 101 106 0 109 +15 114 1668 0 116 117
 0 17 115 0 114 118 104 48 109 119 0 0 -17 116 0 114 104 118 99 65 120 0 0 -16 1
06 1712 121 ?104 122 32 123 0 0 1 17 109 0 108 33 124 102 115 119 0 0 +15 108 16
44 0 33 125 126 17 124 0 108 109 71 48 127 128 0 115 +16 119 749 129 ?109 130 13
1 132 133 134 1 81 1 129 1830 135 119 0 0 136 137 138 16 130 1195 139 ?71 134 11
9 132 134 140 1 16 131 1639 141 ?62 119 142 132 140 133 1 31 132 195 0 133 143 1
44 0 +0 0 .0056 0 0 1 1 0 0 .009 16 133 148 145 ?146 147 140 132 131 119 1 16 13
4 972 148 ?149 140 130 132 119 130 1 81 1 148 1384 135 134 0 0 150 151 152 17 14
9 0 108 153 154 87 155 134 0 0 +16 140 1416 156 ?80 133 134 132 130 131 1 81 1 1
56 1605 135 140 0 0 157 158 159 17 80 0 108 154 41 78 160 140 0 161 +17 154 0 10
8 149 80 43 161 162 0 155 +17 41 0 108 80 146 27 37 163 0 160 +17 160 0 164 39 1
65 27 80 140 0 0 -17 161 0 166 77 47 78 154 162 0 165 -15 166 1086 0 167 168 0 1
7 77 0 166 167 161 75 165 169 0 170 -17 47 0 166 161 167 43 171 172 0 154 -16 16
2 1064 173 ?154 174 175 176 0 0 1 17 165 0 164 160 177 78 77 169 0 0 +15 164 100
9 0 160 178 0 17 177 0 164 165 39 75 179 180 0 0 -16 169 1045 181 ?165 182 172 1
83 0 0 1 81 1 181 1162 135 169 0 0 184 185 186 16 182 1042 187 ?188 128 169 189
 0 0 1 16 172 1052 184 ?171 169 190 191 0 0 1 30 255 183 1122 0 169 191 192 0 -.
00642930709151759 -.0062979369894404 .0039 0 0 -1 30 191 1123 0 172 193 183 0 +.
00866882697004786 -.00241897477526552 .0039 0 0 -1 31 192 905 0 128 183 194 0 +1
95992473735542e-32 .0085 .0056 0 0 -1 -1 0 0 .00225 16 128 841 195 ?124 196 182
 192 0 0 1 31 194 904 0 196 192 197 0 -195992473735542e-32 .0085 .0022 0 0 -1 -1
 0 0 .00225 16 196 836 198 ?199 200 128 194 0 0 1 31 197 903 0 200 194 201 0 -19
5992473735542e-32 .0085 .0022 0 0 -1 -1 0 0 .00115 16 200 834 202 ?203 204 196 1
97 0 0 1 31 201 901 0 204 197 205 0 +195992473735542e-32 .0085 .0047 0 0 1 1 0 0
 .00225 16 204 838 206 ?207 208 200 201 0 0 1 30 205 900 0 208 201 209 0 +-.0022
39519878530255 .00871691176470588 .0039 0 0 -1 16 208 829 210 ?118 211 204 205 0
 0 1 30 209 899 0 211 205 212 0 -.00223951987853026 .00871691176470588 .0039 0 0
 -1 16 211 822 213 ?214 215 208 209 0 0 1 31 212 687 0 216 209 217 0 +-.00736121
593216774 -.00425 .0056 0 0 -1 -1 0 0 .00225 16 216 607 218 ?219 220 215 212 0 0
 1 31 217 686 0 220 212 221 0 --.00736121593216774 -.00425 .0022 0 0 -1 -1 0 0 .
00225 16 220 618 222 ?223 224 216 217 0 0 1 31 221 685 0 224 217 225 0 --.007361
21593216774 -.00425 .0022 0 0 -1 -1 0 0 .00115 16 224 616 226 ?227 228 220 221 0
 0 1 31 225 683 0 228 221 229 0 +-.00736121593216774 -.00425 .0047 0 0 1 1 0 0 .
00225 16 228 620 230 ?231 232 224 225 0 0 1 30 229 682 0 232 225 233 0 +-.006429
30709151762 -.00629793698944037 .0039 0 0 -1 16 232 611 234 ?235 236 228 229 0 0
 1 30 233 681 0 236 229 237 0 --.00866882697004787 -.00241897477526548 .0039 0 0
 -1 16 236 604 238 ?239 240 232 233 0 0 1 31 237 490 0 241 233 143 0 +0 0 .0056
 0 0 -1 -1 0 0 .004 16 241 461 242 ?243 244 240 237 0 0 1 31 143 488 0 245 237 1
32 0 +0 0 .00175 0 0 -1 -1 0 0 .005 16 245 436 246 ?247 25 248 143 0 0 1 81 1 24
6 508 135 245 0 0 242 249 250 17 247 0 251 247 247 0 252 245 0 0 +16 25 1840 253
 ?254 9 245 255 0 0 1 16 248 384 256 ?257 245 258 259 0 0 1 81 1 256 415 135 248
 0 0 260 261 262 17 257 0 263 257 257 0 264 248 0 0 +16 258 376 260 ?265 248 266
 267 0 0 1 31 259 387 0 248 267 268 0 -0 0 0 0 0 -1 -1 0 0 .00517320508075689 31
 267 379 0 258 269 259 0 +0 0 3e-4 0 0 -1 -1 0 0 .005 31 268 576 0 240 259 270 0
 +-.00736121593216774 -.00425 0 0 0 -1 -1 0 0 .00115 16 240 598 271 ?272 241 236
 268 0 0 1 31 270 794 0 215 268 189 0 +195992473735542e-32 .0085 0 0 0 -1 -1 0 0
 .00115 16 215 816 273 ?274 216 211 270 0 0 1 31 189 1003 0 182 270 275 0 +.0073
6121593216772 -.00425 0 0 0 -1 -1 0 0 .00115 31 275 1226 0 175 189 276 0 +.00736
121593216775 .00425 0 0 0 -1 -1 0 0 .00115 16 175 1265 277 ?278 162 279 275 0 0
 1 31 276 1447 0 280 275 281 0 +-195992473735542e-32 -.0085 0 0 0 -1 -1 0 0 .001
15 16 280 1486 282 ?283 284 285 276 0 0 1 31 281 1684 0 122 276 255 0 +-.0073612
1593216772 .00425 0 0 0 -1 -1 0 0 .00115 16 122 1706 286 ?287 163 106 281 0 0 1
 31 255 1843 0 25 281 20 0 +0 0 .00225 0 0 -1 -1 0 0 .004 31 20 1849 0 9 255 6 0
 -0 0 .00175 0 0 -1 -1 0 0 .004288675134594815 81 1 286 1820 135 122 0 0 288 289
 290 17 287 0 291 287 287 0 292 122 0 0 +16 163 1508 293 ?41 294 122 295 0 0 1 8
1 1 293 1600 135 163 0 0 296 297 298 16 294 1503 296 ?299 300 163 301 0 0 1 31 2
95 1572 0 163 123 301 0 +-195992473735542e-32 -.0085 .0056 0 0 -1 -1 0 0 .00225
 30 123 1789 0 106 302 295 0 --.0064293070915176 .00629793698944039 .0039 0 0 -1
 31 301 1571 0 294 295 303 0 --195992473735542e-32 -.0085 .0022 0 0 -1 -1 0 0 .0
0225 31 303 1570 0 300 301 304 0 --195992473735542e-32 -.0085 .0022 0 0 -1 -1 0
 0 .00115 16 300 1501 305 ?306 307 294 303 0 0 1 31 304 1568 0 307 303 308 0 +-1
95992473735542e-32 -.0085 .0047 0 0 1 1 0 0 .00225 16 307 1505 309 ?38 40 300 30
4 0 0 1 30 308 1567 0 40 304 310 0 +.002239519878530255 -.00871691176470588 .003
9 0 0 -1 16 40 1496 157 ?39 285 307 308 0 0 1 30 310 1566 0 285 308 311 0 --.002
23951987853026 -.00871691176470588 .0039 0 0 -1 16 285 1489 312 ?313 280 40 310
 0 0 1 31 311 1351 0 284 310 314 0 +.00736121593216775 .00425 .0056 0 0 -1 -1 0
 0 .00225 16 284 1287 315 ?153 316 280 311 0 0 1 31 314 1350 0 316 311 317 0 -.0
0736121593216775 .00425 .0022 0 0 -1 -1 0 0 .00225 16 316 1282 318 ?319 320 284
 314 0 0 1 31 317 1349 0 320 314 321 0 -.00736121593216775 .00425 .0022 0 0 -1 -
1 0 0 .00115 16 320 1280 322 ?323 324 316 317 0 0 1 31 321 1347 0 324 317 325 0
 +.00736121593216775 .00425 .0047 0 0 1 1 0 0 .00225 16 324 1284 150 ?83 326 320
 321 0 0 1 30 325 1346 0 326 321 327 0 +.00642930709151763 .00629793698944036 .0
039 0 0 -1 16 326 1275 328 ?329 279 324 325 0 0 1 30 327 1345 0 279 325 176 0 -.
00866882697004788 .00241897477526546 .0039 0 0 -1 16 279 1268 330 ?331 175 326 3
27 0 0 1 31 176 1128 0 162 327 332 0 +.00736121593216772 -.00425 .0056 0 0 -1 -1
 0 0 .00225 31 332 1127 0 174 176 333 0 -.00736121593216772 -.00425 .0022 0 0 -1
 -1 0 0 .00225 16 174 1059 334 ?335 336 162 332 0 0 1 31 333 1126 0 336 332 193
 0 -.00736121593216772 -.00425 .0022 0 0 -1 -1 0 0 .00115 16 336 1057 337 ?338 1
90 174 333 0 0 1 31 193 1124 0 190 333 191 0 +.00736121593216772 -.00425 .0047 0
 0 1 1 0 0 .00225 16 190 1061 185 ?167 172 336 193 0 0 1 81 1 185 1163 135 190 0
 0 181 339 340 17 167 0 166 47 77 72 170 190 0 171 +17 170 0 341 179 74 75 167 1
90 0 177 -17 171 0 342 343 155 72 47 172 0 0 +15 342 1232 0 343 344 0 17 343 0 3
42 331 171 84 74 345 0 0 -17 155 0 342 171 331 43 149 134 0 0 -17 331 0 342 155
 343 87 86 279 0 149 +17 86 0 346 83 89 84 331 279 0 347 -15 346 1309 0 83 348 0
 17 83 0 346 42 86 81 347 324 0 329 +17 89 0 346 86 42 87 153 284 0 331 -17 347
 0 341 74 349 84 83 324 0 343 -15 341 1661 0 107 350 351 17 74 0 341 170 347 72
 343 345 0 167 +17 349 0 341 347 352 81 353 354 0 0 +17 352 0 341 349 65 66 207
 204 0 353 -17 353 0 355 214 329 66 349 354 0 0 -16 354 766 356 ?349 120 345 144
 142 180 1 81 1 356 1380 135 354 0 0 315 139 357 16 120 1656 358 ?65 142 354 144
 244 142 1 16 345 1212 151 ?74 354 180 144 180 244 1 31 144 193 0 142 132 359 0
 -0 0 .0047 0 0 1 1 0 0 .009 16 142 155 360 ?361 131 120 144 120 354 1 16 180 98
9 158 ?179 345 244 144 354 345 1 81 1 158 1606 135 180 0 0 156 312 362 17 179 0
 341 363 170 90 177 180 0 0 +16 244 1433 297 ?56 180 241 144 345 120 1 81 1 297
 1601 135 244 0 0 293 145 364 17 56 0 341 365 363 54 366 244 0 231 +17 365 0 341
 361 56 57 231 228 0 367 -17 363 0 341 56 179 92 38 307 0 366 -17 366 0 368 313
 235 92 56 244 0 0 -17 231 0 369 53 59 54 365 228 0 235 +15 369 645 0 231 370 0
 17 53 0 369 371 231 51 235 232 0 219 -17 59 0 369 231 371 57 239 236 0 365 -17
 235 0 368 366 372 54 53 232 0 0 +15 368 1453 0 366 373 0 17 372 0 368 235 313 5
1 146 133 0 0 -17 313 0 368 372 366 95 94 285 0 146 +17 146 0 108 41 219 95 372
 133 0 0 +17 219 0 108 146 62 51 371 216 0 372 +17 62 0 108 219 33 60 110 131 0
 371 +17 371 0 369 59 53 60 219 216 0 239 -17 239 0 374 110 367 60 59 236 0 0 +1
5 374 175 0 110 375 0 17 110 0 374 31 239 10 62 131 0 0 -17 367 0 374 239 31 57
 361 142 0 0 -17 31 0 374 367 110 97 26 32 0 361 +17 361 0 341 107 365 97 367 14
2 0 0 +17 107 0 341 65 361 99 30 376 0 116 -17 65 0 341 352 107 63 116 120 0 207
 +17 30 0 28 26 101 97 107 376 0 31 +16 376 1728 136 ?30 32 377 378 0 0 1 81 1 1
36 1829 135 376 0 0 121 129 379 16 32 1719 380 ?31 106 376 302 0 0 1 16 377 1724
 289 ?381 376 112 382 0 0 1 31 378 1791 0 376 382 302 0 +-.00736121593216772 .00
425 .0047 0 0 1 1 0 0 .00225 31 382 1793 0 377 383 378 0 --.00736121593216772 .0
0425 .0022 0 0 -1 -1 0 0 .00115 30 302 1790 0 32 378 123 0 +-.00866882697004786
 .00241897477526551 .0039 0 0 -1 31 383 1794 0 112 113 382 0 --.0073612159321677
2 .00425 .0022 0 0 -1 -1 0 0 .00225 16 112 1726 384 ?385 377 103 383 0 0 1 31 11
3 1795 0 103 386 383 0 +-.00736121593216772 .00425 .0056 0 0 -1 -1 0 0 .00225 31
 386 1978 0 387 388 113 0 +0 0 0 0 0 1 1 0 0 .0145 16 387 1937 389 ?390 391 0 38
6 0 0 1 31 388 1980 0 391 0 386 0 -0 0 .0018 0 0 1 1 0 0 .0145 16 391 1932 392 ?
393 19 387 388 0 0 1 81 1 392 1996 135 391 0 0 389 394 395 17 393 0 396 393 393
 0 397 391 0 0 +16 19 1927 394 ?398 103 391 6 0 0 1 81 1 394 1997 135 19 0 0 392
 399 400 17 398 0 401 398 398 0 402 19 0 0 +15 401 1964 0 398 403 404 17 402 0 4
05 402 402 0 398 19 0 0 -15 405 1905 0 402 406 407 14 255 406 2 408 ?375 409 405
 4 410 +0 0 375 409 22 15 407 13 0 411 406 0 17 411 0 407 411 411 0 412 147 0 0
 +17 412 0 413 412 412 0 411 147 0 0 -16 147 12 414 ?411 415 133 359 0 0 1 81 1
 414 29 135 147 0 0 0 416 417 16 415 41 416 ?418 419 147 420 0 0 1 31 359 16 0 1
47 144 420 0 +0 0 .0029 0 0 -1 -1 0 0 .016 31 420 44 0 415 359 421 0 +0 0 .0029
 0 0 1 1 0 0 .0149 31 421 333 0 419 420 269 0 -0 0 .0044 0 0 1 1 0 0 .0149 16 41
9 330 422 ?423 266 415 421 0 0 1 31 269 341 0 266 421 267 0 +0 0 .0047 0 0 1 1 0
 0 .0147267949192431 16 266 338 424 ?425 258 419 269 0 0 1 81 1 424 370 135 266
 0 0 426 422 427 17 425 0 351 425 425 0 428 266 0 0 +15 351 339 0 425 350 0 17 4
28 0 429 428 428 0 425 266 0 0 -15 429 355 0 428 430 431 14 430 354 432 ?433 125
 429 4 434 +0 0 433 125 22 15 431 356 0 435 430 0 17 435 0 431 435 435 0 423 419
 0 0 -17 423 0 436 423 423 0 435 419 0 0 +15 436 331 0 423 437 438 14 437 85 439
 ?409 440 436 4 441 +0 0 409 440 22 15 438 88 0 418 437 0 17 418 0 438 418 418 0
 442 415 0 0 +17 442 0 443 442 442 0 418 415 0 0 -15 443 43 0 442 409 413 14 409
 15 444 ?406 437 443 4 445 +0 0 406 437 22 15 413 14 0 412 409 0 81 1 444 2021 4
46 409 447 0 439 408 448 50 255 445 17 0 409 449 410 0 +0 0 .0029 0 0 1 1 0 0 13
 22 4 0 0 0 0 0 0 8 15 14 15 9 450 ?117 0 263 4 449 +0 0 117 0 22 81 1 450 2005
 446 15 451 0 0 452 453 14 117 1669 452 ?373 15 114 4 454 -373 375 373 15 22 15
 263 385 0 257 15 455 50 449 11 0 15 441 445 0 +0 0 0 0 0 -1 -1 0 0 51 255 441 9
2 0 437 456 449 0 +0 0 0 0 0 1 .0149 1 0 0 50 456 93 0 125 454 441 0 +0 0 .0056
 0 0 1 1 0 0 14 125 79 457 ?430 350 108 4 456 +0 0 430 350 22 51 454 190 0 375 4
58 456 0 -0 0 .0056 0 0 -1 .009 -1 0 0 14 375 172 459 ?350 406 374 4 454 -117 46
0 350 406 22 50 458 191 0 350 461 454 0 +0 0 .0047 0 0 1 1 0 0 14 350 182 462 ?1
25 375 341 4 458 +0 0 125 375 22 51 461 309 0 440 463 458 0 +0 0 .0047 0 0 -1 .0
05 -1 0 0 14 440 300 464 ?437 460 465 4 461 -0 0 437 460 22 51 463 483 0 466 467
 461 0 -0 0 0 0 0 -1 .004 -1 0 0 14 466 463 468 ?469 433 470 4 463 +0 0 469 433
 22 50 467 484 0 469 471 463 0 +.004 0 .00175 0 0 -1 -1 0 0 14 469 468 472 ?370
 466 473 4 467 +0 0 370 466 22 51 471 675 0 370 474 467 0 +-.00736121593216774 -
.00425 .0056 0 0 -1 .00225 -1 0 0 14 370 668 475 ?476 469 477 4 471 -0 0 476 469
 22 50 474 676 0 478 479 471 0 +-.00736121593216774 -.00425 .0022 0 0 -1 -1 0 0
 14 478 662 480 ?481 476 482 4 474 -0 0 481 476 22 51 479 677 0 476 483 474 0 +-
.00736121593216774 -.00425 -.02079568604639415 0 0 -1 .00115 -1 0 0 14 476 656 4
84 ?478 370 485 4 479 -0 0 478 370 22 51 483 893 0 481 486 479 0 +19599247373554
2e-32 .0085 .0056 0 0 -1 .00225 -1 0 0 14 481 886 487 ?488 478 489 4 483 -0 0 48
8 478 22 50 486 894 0 490 491 483 0 +195992473735542e-32 .0085 .0022 0 0 -1 -1 0
 0 14 490 880 492 ?168 488 493 4 486 -0 0 168 488 22 51 491 895 0 488 494 486 0
 +195992473735542e-32 .0085 -.02079568604639415 0 0 -1 .00115 -1 0 0 14 488 874
 495 ?490 481 496 4 491 -0 0 490 481 22 51 494 1116 0 168 497 491 0 +.0073612159
3216772 -.00425 .0056 0 0 -1 .00225 -1 0 0 14 168 1109 498 ?499 490 500 4 494 -0
 0 499 490 22 50 497 1117 0 501 502 494 0 +.00736121593216772 -.00425 .0022 0 0
 -1 -1 0 0 14 501 1103 503 ?348 499 504 4 497 -0 0 348 499 22 51 502 1118 0 499
 505 497 0 +.00736121593216772 -.00425 -.02079568604639415 0 0 -1 .00115 -1 0 0
 14 499 1097 506 ?501 168 507 4 502 -0 0 501 168 22 51 505 1339 0 348 508 502 0
 +.00736121593216775 .00425 .0056 0 0 -1 .00225 -1 0 0 14 348 1332 509 ?510 501
 511 4 505 -0 0 510 501 22 50 508 1340 0 512 513 505 0 +.00736121593216775 .0042
5 .0022 0 0 -1 -1 0 0 14 512 1326 514 ?515 510 516 4 508 -0 0 515 510 22 51 513
 1341 0 510 517 508 0 +.00736121593216775 .00425 -.02079568604639415 0 0 -1 .001
15 -1 0 0 14 510 1320 518 ?512 348 519 4 513 -0 0 512 348 22 51 517 1560 0 515 5
20 513 0 +-195992473735542e-32 -.0085 .0056 0 0 -1 .00225 -1 0 0 14 515 1553 521
 ?522 512 523 4 517 -0 0 522 512 22 50 520 1561 0 524 525 517 0 +-19599247373554
2e-32 -.0085 .0022 0 0 -1 -1 0 0 14 524 1547 526 ?105 522 527 4 520 -0 0 105 522
 22 51 525 1562 0 522 528 520 0 +-195992473735542e-32 -.0085 -.02079568604639415
 0 0 -1 .00115 -1 0 0 14 522 1541 529 ?524 515 530 4 525 -0 0 524 515 22 51 528
 1783 0 105 531 525 0 +-.00736121593216772 .00425 .0056 0 0 -1 .00225 -1 0 0 14
 105 1776 532 ?533 524 534 4 528 -0 0 533 524 22 50 531 1784 0 535 536 528 0 +-.
00736121593216772 .00425 .0022 0 0 -1 -1 0 0 14 535 1770 537 ?17 533 538 4 531 -
0 0 17 533 22 51 536 1785 0 533 539 531 0 +-.00736121593216772 .00425 -.02079568
604639415 0 0 -1 .00115 -1 0 0 14 533 1764 540 ?535 105 291 4 536 -0 0 535 105 2
2 51 539 1974 0 541 542 536 0 -0 0 .0018 0 0 -1 .0145 -1 0 0 14 541 1956 543 ?40
3 17 396 4 539 -0 0 403 17 22 50 542 1976 0 403 0 539 0 +0 0 .0018 0 0 1 1 0 0 1
4 403 1961 544 ?0 541 401 4 542 -0 0 0 541 22 81 1 544 2079 446 403 545 0 543 0
 546 80 255 1 446 0 547 8001 0 0 0 0 3 5 0 0 0 FFFFTFTFFFFFFF2 81 1 545 2078 548
 403 549 544 550 0 551 81 1 543 2077 446 541 550 0 552 544 553 83 255 3 546 .6 .
6 .6 81 1 550 2076 548 541 554 543 555 545 556 81 1 552 2075 446 17 555 0 537 54
3 557 83 3 553 .6 .6 .6 14 17 1858 552 ?541 535 558 4 5 +0 0 541 535 22 81 1 555
 2074 548 17 559 552 560 550 561 81 1 537 2073 446 535 560 0 540 552 562 83 3 55
7 .6 .6 .6 81 1 560 2072 548 535 563 537 564 555 565 81 1 540 2071 446 533 564 0
 532 537 566 83 3 562 .6 .6 .6 81 1 564 2070 548 533 567 540 568 560 569 81 1 53
2 2069 446 105 568 0 526 540 570 83 3 566 .6 .6 .6 81 1 568 2068 548 105 571 532
 572 564 573 81 1 526 2067 446 524 572 0 529 532 574 83 3 570 .6 .6 .6 81 1 572
 2066 548 524 575 526 576 568 577 81 1 529 2065 446 522 576 0 521 526 578 83 3 5
74 .6 .6 .6 81 1 576 2064 548 522 579 529 580 572 581 81 1 521 2063 446 515 580
 0 514 529 582 83 3 578 .6 .6 .6 81 1 580 2062 548 515 583 521 584 576 585 81 1
 514 2061 446 512 584 0 518 521 586 83 3 582 .6 .6 .6 81 1 584 2060 548 512 587
 514 588 580 589 81 1 518 2059 446 510 588 0 509 514 590 83 3 586 .6 .6 .6 81 1
 588 2058 548 510 591 518 592 584 593 81 1 509 2057 446 348 592 0 503 518 594 83
 3 590 .6 .6 .6 81 1 592 2056 548 348 595 509 596 588 597 81 1 503 2055 446 501
 596 0 506 509 598 83 3 594 .6 .6 .6 81 1 596 2054 548 501 599 503 600 592 601 8
1 1 506 2053 446 499 600 0 498 503 602 83 3 598 .6 .6 .6 81 1 600 2052 548 499 3
39 506 603 596 604 81 1 498 2051 446 168 603 0 492 506 605 83 3 602 .6 .6 .6 81
 1 603 2050 548 168 606 498 607 600 608 81 1 492 2049 446 490 607 0 495 498 609
 83 3 605 .6 .6 .6 81 1 607 2048 548 490 610 492 611 603 612 81 1 495 2047 446 4
88 611 0 487 492 613 83 3 609 .6 .6 .6 81 1 611 2046 548 488 614 495 615 607 616
 81 1 487 2045 446 481 615 0 480 495 617 83 3 613 .6 .6 .6 81 1 615 2044 548 481
 618 487 619 611 620 81 1 480 2043 446 478 619 0 484 487 621 83 3 617 .6 .6 .6 8
1 1 619 2042 548 478 622 480 623 615 624 81 1 484 2041 446 476 623 0 475 480 625
 83 3 621 .6 .6 .6 81 1 623 2040 548 476 626 484 627 619 628 81 1 475 2039 446 3
70 627 0 472 484 629 83 3 625 .6 .6 .6 81 1 627 2038 548 370 630 475 631 623 632
 81 1 472 2037 446 469 631 0 468 475 633 83 3 629 .6 .6 .6 81 1 631 2036 548 469
 634 472 635 627 636 81 1 468 2035 446 466 635 0 637 472 638 83 3 633 .6 .6 .6 8
1 1 635 2034 548 466 639 468 640 631 641 81 1 637 2033 446 433 640 0 432 468 642
 83 3 638 .6 .6 .6 14 433 398 637 ?466 430 643 4 18 +0 0 466 430 22 81 1 640 203
2 548 433 261 637 644 635 645 81 1 432 2031 446 430 644 0 457 637 646 83 3 642 .
6 .6 .6 81 1 644 2030 548 430 647 432 648 640 649 81 1 457 2029 446 125 648 0 46
2 432 650 83 3 646 .6 .6 .6 81 1 648 2028 548 125 137 457 651 644 652 81 1 462 2
027 446 350 651 0 459 457 653 83 3 650 .6 .6 .6 81 1 651 2026 548 350 654 462 65
5 648 656 81 1 459 2025 446 375 655 0 408 462 657 83 3 653 .6 .6 .6 81 1 655 202
4 548 375 658 459 659 651 660 81 1 408 2023 446 406 659 0 444 459 661 83 3 657 .
6 .6 .6 81 1 659 2022 548 406 662 408 447 655 663 83 3 661 .6 .6 .6 80 1 548 664
 665 8015 0 0 0 0 3 5 0 0 0 FFFFTFFFFFFFFF2 81 1 662 1999 135 406 0 659 399 554
 666 81 1 447 2020 548 409 426 444 667 659 668 83 1 663 0 81 1 426 113 135 409 0
 447 416 424 669 81 1 667 2018 548 437 670 439 671 447 672 83 1 668 0 81 1 670 3
72 135 437 0 667 422 647 673 81 1 439 2019 446 437 667 0 464 444 674 81 1 671 20
16 548 440 249 464 675 667 676 83 1 672 0 81 1 249 511 135 440 0 671 246 271 677
 81 1 464 2017 446 440 671 0 678 439 679 81 1 675 2014 548 460 680 678 681 671 6
82 83 1 676 0 14 460 779 678 ?440 178 355 4 454 -375 178 440 178 22 81 1 680 139
3 135 460 0 675 587 683 684 81 1 678 2015 446 460 675 0 685 464 686 81 1 681 201
2 548 178 288 685 687 675 688 83 1 682 0 14 178 1010 685 ?460 344 164 4 454 -460
 344 460 344 22 81 1 288 1615 135 178 0 681 689 286 690 81 1 685 2013 446 178 68
1 0 691 678 692 81 1 687 2010 548 344 683 691 693 681 694 83 1 688 0 14 344 1233
 691 ?178 373 342 4 454 -178 373 178 373 22 81 1 683 1394 135 344 0 687 680 282
 695 81 1 691 2011 446 344 687 0 696 685 697 81 1 693 2008 548 373 689 696 698 6
87 699 83 1 694 0 14 373 1454 696 ?344 117 368 4 454 -344 117 344 117 22 81 1 68
9 1614 135 373 0 693 575 288 700 81 1 696 2009 446 373 693 0 452 691 701 81 1 69
8 2006 548 117 702 452 451 693 703 83 1 699 0 81 1 702 1838 135 117 0 698 658 23
 704 81 1 452 2007 446 117 698 0 450 696 705 81 1 451 2004 548 15 399 450 0 698
 706 83 1 703 0 81 1 399 1998 135 15 0 451 394 662 707 83 1 706 0 80 1 135 708 7
09 9000 1 1 1 1 1 1 1 1 0 FFFFTFTFFFFFFF3 84 255 32 707 dae8180b7bf04857d26d7e3e
614f4e2c79 255 15 709 UGS/ObjectState83 3 705 .6 .6 .6 81 1 658 1837 135 375 0 6
55 654 702 710 81 1 23 1874 135 9 0 0 702 253 711 84 32 704 72db41388dbe88ace46b
1f758a6c49c681 1 253 1875 135 25 0 0 23 639 712 84 32 711 9e7b0616b46b4fe38eb39a
670f13b03181 1 639 1876 135 466 0 635 253 634 713 84 32 712 8f79fe8868475be4ffdf
74656c8c368b81 1 634 1877 135 469 0 631 639 559 714 84 32 713 7ae59212b37a37b38f
88e78b38e37d8481 1 559 1878 135 17 0 555 634 389 715 84 32 714 ec2b96f361e3bc049
5717ece722c17b581 1 389 1995 135 387 0 0 559 392 716 84 32 715 f7fc592e332c217ea
70e4569bbcc2c5184 32 716 4573b855d6791e8c8ae5d57c52fd1c2d81 1 654 1836 135 350 0
 651 563 658 717 84 32 710 e7ba4b87b0d9469f3c8246f4468afe5c81 1 563 1835 135 535
 0 560 571 654 718 84 32 717 9f3322d82dc02e875104b55c22bcd89581 1 571 1834 135 1
05 0 568 567 563 719 84 32 718 e56fd89026d8acaa38916ad0ae8c8bd581 1 567 1833 135
 533 0 564 137 571 720 84 32 719 f04eeffb8c84d7459aed50ac85914d1d81 1 137 1832 1
35 125 0 648 129 567 721 84 32 720 a0cd4a65927b8e683fa154bddc3e66f284 32 721 9da
98b3ab279109bb476c8a916ea007683 3 701 .6 .6 .6 81 1 575 1612 135 524 0 572 583 6
89 722 84 32 700 084a4ea91743f4e7fcde331e6c59d78281 1 583 1611 135 515 0 580 579
 575 723 84 32 722 5e580eb073a58522cc014abad6798fca81 1 579 1610 135 522 0 576 3
12 583 724 84 32 723 d595a6d3b2963f6b03762db8f739114581 1 312 1607 135 285 0 0 1
58 579 725 84 32 724 6c0299f16dc1ea3e65aae3ddbff4587484 32 725 2a1fb691446ece241
3da77fb13ce957483 3 697 .6 .6 .6 81 1 282 1597 135 280 0 0 683 305 726 84 32 695
 c77fef43fa884072bcb904aed6e1516c81 1 305 1598 135 300 0 0 282 296 727 84 32 726
 f5763614e35c6b6d2054db4e5f942d0b81 1 296 1599 135 294 0 0 305 293 728 84 32 727
 29e1ccf9be2466593ded08577561c77b84 32 728 74d21bb64a12a68368653647892c3d2783 3
 692 .6 .6 .6 84 32 690 cbbd5a6e34355b1d487198fca07c7ead83 3 686 .6 .6 .6 81 1 5
87 1391 135 512 0 584 595 680 729 84 32 684 b070089877e16cdb07a1ff341831d47881 1
 595 1390 135 348 0 592 591 587 730 84 32 729 7d7fdd605f2bbdc8f1fbdf21a3c5ca0e81
 1 591 1389 135 510 0 588 328 595 731 84 32 730 f32826b0ed4098e7e9ed69e72d23886d
81 1 328 1386 135 326 0 0 151 591 732 84 32 731 ba50a25ac28f7e944db2609fbe489186
81 1 151 1385 135 345 0 0 148 328 733 84 32 732 83c8bdb3eb71fec6a00bda65cebf3798
84 32 733 1201a3d15ec3467e77f2bf3c4506f7df15 355 778 0 734 460 0 17 734 0 355 32
9 214 35 71 130 0 0 -17 329 0 355 353 734 81 42 326 0 349 +17 214 0 355 734 353
 69 68 211 0 0 +17 71 0 108 124 153 69 734 130 0 127 +17 153 0 108 71 149 35 89
 284 0 734 +17 127 0 735 68 50 69 124 128 0 214 -15 735 863 0 207 481 0 17 68 0
 735 207 127 66 214 211 0 352 -17 50 0 735 127 207 48 118 208 0 124 -17 207 0 73
5 50 68 63 352 204 0 118 +17 118 0 114 116 115 63 50 208 0 0 +17 42 0 346 89 83
 35 329 326 0 153 -83 3 679 .6 .6 .6 81 1 271 712 135 240 0 0 249 226 736 84 32
 677 509af3404db8e0ea99b8dee88c57a7ce81 1 226 713 135 224 0 0 271 222 737 84 32
 736 7e821615ea969146bf34c730a54fa0e481 1 222 714 135 220 0 0 226 218 738 84 32
 737 4ff07317d0518cb67b5b1a60fcdbba7581 1 218 715 135 216 0 0 222 238 739 84 32
 738 b8a195e6a6a7d4bf85e77b793869837f81 1 238 718 135 236 0 0 218 230 740 84 32
 739 06d53d7e321313b9e14f4d32a79c705681 1 230 719 135 228 0 0 238 234 741 84 32
 740 d64198cf780396f2b023363937f2166481 1 234 720 135 232 0 0 230 626 742 84 32
 741 8f66fa67352f0ba15ab47c6cabd172a881 1 626 723 135 476 0 623 234 630 743 84 3
2 742 ebdd8b5b3883e3d11581b959e355c30d81 1 630 724 135 370 0 627 626 622 744 84
 32 743 e77ba1c2c3cd211e4051986c182cad5181 1 622 725 135 478 0 619 630 273 745 8
4 32 744 7fcb97a2843ef2f6ed6d7b2058ba765481 1 273 930 135 215 0 0 622 202 746 84
 32 745 084df58c9457795aafb5e15b110c76fc81 1 202 931 135 200 0 0 273 198 747 84
 32 746 254e0d2eca10303714eb09789dd5839681 1 198 932 135 196 0 0 202 195 748 84
 32 747 25cf82bac5a263b3cc1d8d237c68d5e681 1 195 933 135 128 0 0 198 210 749 84
 32 748 9378836c09faf8de2b02a64d8d41452781 1 210 937 135 208 0 0 195 213 750 84
 32 749 9a1af45145a0dcdbc68aeec455595a4c81 1 213 939 135 211 0 0 210 206 751 84
 32 750 f05aaef9cfb0d1874d8ce6ea5c04d7a081 1 206 940 135 204 0 0 213 614 752 84
 32 751 4cc4bcd5f3441f221093eea6911616b681 1 614 943 135 488 0 611 206 618 753 8
4 32 752 6b1a9e3b0c728abf54cea88e29f1242381 1 618 944 135 481 0 615 614 610 754
 84 32 753 ed79f2d88ec5b8e3e008559f9f36562681 1 610 945 135 490 0 607 618 187 75
5 84 32 754 7e7fcd1f215d50e2d290acf3ca8eb06a81 1 187 1153 135 182 0 0 610 337 75
6 84 32 755 44dfe41b23b47e515c7ba96882508a4981 1 337 1154 135 336 0 0 187 334 75
7 84 32 756 2e0f4889c56ef8895e173b1b446b973c81 1 334 1155 135 174 0 0 337 173 75
8 84 32 757 c14f1f97f4beed19e54ffef50b89303381 1 173 1156 135 162 0 0 334 184 75
9 84 32 758 1de3de1c42218edf6300a5e815ceb9fd81 1 184 1159 135 172 0 0 173 181 76
0 84 32 759 ae2e8fed2102f08bc803ab0140d594ef84 32 760 555133163d3d162f5e585a36b5
5e48a483 3 674 .6 .6 .6 81 1 422 371 135 419 0 0 424 670 761 81 1 647 374 135 43
0 0 644 670 260 762 84 32 673 f043e97555eeb463f71d9508092356e281 1 260 414 135 2
58 0 0 647 256 763 84 32 762 b46e036bca25d45457333a7600dc133184 32 763 b0349985d
5cfcfbd71805d12798ef5c584 32 761 b8b197d0ddd4933b1796f31a117267f281 1 416 109 13
5 415 0 0 414 426 764 84 32 669 8ae3413c46b3965e7b412c20ded5c72b84 32 764 659a0e
dc707d6e2da802e31e56715f5281 1 554 2000 135 541 0 550 662 549 765 84 32 666 18a6
fc07917ecf5c320ede80451515cc81 1 549 2001 135 403 0 545 554 0 766 84 32 765 000f
73f27aacd8c660ae99c883ad0d2984 32 766 358e97c9a05bdffac2fbf6a3139ab49f79 21 665
 SDL/TYSA_TRANSLUCENCY83 1 660 0 83 1 656 0 83 1 652 0 83 1 649 0 81 1 261 418 1
35 433 0 640 256 242 767 83 1 645 0 81 1 242 507 135 241 0 0 261 246 768 84 32 7
67 697bd8c89b7a0d2ed5638872c001854e84 32 768 e36a9bcd0e5866570621780aac52a55415
 643 399 0 264 433 769 52 18 405 0 433 434 5 0 -0 0 3e-4 0 0 -1 .005 .5 .8660254
03784439 -1 0 0 52 434 361 0 430 410 18 0 +0 0 .0044 0 0 -1 .0149 .5 .8660254037
84438 -1 0 0 51 410 18 0 406 445 434 0 +0 0 0 0 0 1 .016 1 0 0 17 264 0 643 264
 264 0 257 248 0 0 -15 769 400 0 770 433 0 17 770 0 769 770 770 0 265 258 0 0 -1
7 265 0 465 265 265 0 770 258 0 0 +15 465 377 0 265 440 771 15 771 438 0 252 440
 0 17 252 0 771 252 252 0 247 245 0 0 -83 1 641 0 83 1 636 0 83 1 632 0 83 1 628
 0 83 1 624 0 83 1 620 0 83 1 616 0 83 1 612 0 81 1 606 1167 135 168 0 603 339 5
99 772 83 1 608 0 81 1 339 1166 135 499 0 600 185 606 773 81 1 599 1168 135 501
 0 596 606 277 774 84 32 772 b2ed39b5846426dfc64721d780fb483c81 1 277 1376 135 1
75 0 0 599 322 775 84 32 774 4765f859d93a2a1ef5616423aaa17eab81 1 322 1377 135 3
20 0 0 277 318 776 84 32 775 4f3f923b780b30fbde8c604502476c1881 1 318 1378 135 3
16 0 0 322 315 777 84 32 776 3a2bc039f4154a4340dad142f3c214d081 1 315 1379 135 2
84 0 0 318 356 778 84 32 777 bbbf5f6eb05bd7b35c40bf9640942df284 32 778 7b121c792
d343c75f2f48ac88087db8284 32 773 14fe35901c45782589d4ea62f80ad5a483 1 604 0 83 1
 601 0 83 1 597 0 83 1 593 0 83 1 589 0 83 1 585 0 83 1 581 0 83 1 577 0 83 1 57
3 0 83 1 569 0 83 1 565 0 83 1 561 0 15 558 1859 0 779 17 780 17 779 0 558 779 7
79 0 24 9 0 0 -15 780 1860 0 781 17 0 17 781 0 780 781 781 0 254 25 0 0 -17 254
 0 470 254 254 0 781 25 0 0 +15 470 1841 0 254 466 782 15 782 467 0 783 466 0 17
 783 0 782 783 783 0 243 241 0 0 -17 243 0 126 243 243 0 783 241 0 0 +15 126 479
 0 243 125 0 17 24 0 473 24 24 0 779 9 0 0 +15 473 1847 0 24 469 251 15 251 471
 0 247 469 0 83 1 556 0 83 1 551 0 79 15 547 SDL/TYSA_COLOUR15 396 1959 0 393 54
1 784 15 784 1960 0 390 541 0 17 390 0 784 390 390 0 785 387 0 0 +17 785 0 786 7
85 785 0 390 387 0 0 -15 786 1912 0 785 15 0 15 291 1768 0 287 533 787 15 787 17
69 0 381 533 0 17 381 0 787 381 381 0 788 377 0 0 +17 788 0 538 788 788 0 381 37
7 0 0 -15 538 1774 0 788 535 789 15 789 1775 0 385 535 0 17 385 0 789 385 385 0
 790 112 0 0 +17 790 0 534 790 790 0 385 112 0 0 -15 534 1752 0 790 105 28 15 53
0 1545 0 283 522 791 17 283 0 530 283 283 0 792 280 0 0 +15 791 1546 0 306 522 0
 17 306 0 791 306 306 0 793 300 0 0 +17 793 0 527 793 793 0 306 300 0 0 -15 527
 1551 0 793 524 794 15 794 1552 0 299 524 0 17 299 0 794 299 299 0 795 294 0 0 +
17 795 0 523 795 795 0 299 294 0 0 -15 523 1529 0 795 515 36 15 36 1530 0 38 515
 0 17 38 0 36 34 94 90 363 307 0 39 +17 94 0 36 38 37 92 313 285 0 363 -17 39 0
 164 177 160 90 34 40 0 179 +17 37 0 36 94 34 95 41 163 0 313 -17 792 0 796 792
 792 0 283 280 0 0 -15 796 1446 0 792 15 797 15 797 1683 0 292 15 786 17 292 0 7
97 292 292 0 287 122 0 0 -15 519 1324 0 278 510 798 17 278 0 519 278 278 0 799 1
75 0 0 +15 798 1325 0 323 510 0 17 323 0 798 323 323 0 800 320 0 0 +17 800 0 516
 800 800 0 323 320 0 0 -15 516 1330 0 800 512 801 15 801 1331 0 319 512 0 17 319
 0 801 319 319 0 802 316 0 0 +17 802 0 511 802 802 0 319 316 0 0 -15 511 1308 0
 802 348 346 17 799 0 803 799 799 0 278 175 0 0 -15 803 1225 0 799 15 796 15 507
 1101 0 188 499 804 17 188 0 507 188 188 0 805 182 0 0 +15 804 1102 0 338 499 0
 17 338 0 804 338 338 0 806 336 0 0 +17 806 0 504 806 806 0 338 336 0 0 -15 504
 1107 0 806 501 807 15 807 1108 0 335 501 0 17 335 0 807 335 335 0 808 174 0 0 +
17 808 0 500 808 808 0 335 174 0 0 -15 500 1085 0 808 168 166 17 805 0 809 805 8
05 0 188 182 0 0 -15 809 1002 0 805 15 803 15 496 878 0 274 488 810 17 274 0 496
 274 274 0 811 215 0 0 +15 810 879 0 203 488 0 17 203 0 810 203 203 0 812 200 0
 0 +17 812 0 493 812 812 0 203 200 0 0 -15 493 884 0 812 490 813 15 813 885 0 19
9 490 0 17 199 0 813 199 199 0 814 196 0 0 +17 814 0 489 814 814 0 199 196 0 0 -
15 489 862 0 814 481 735 17 811 0 815 811 811 0 274 215 0 0 -15 815 793 0 811 15
 809 15 485 660 0 272 476 816 17 272 0 485 272 272 0 817 240 0 0 +15 816 661 0 2
27 476 0 17 227 0 816 227 227 0 818 224 0 0 +17 818 0 482 818 818 0 227 224 0 0
 -15 482 666 0 818 478 819 15 819 667 0 223 478 0 17 223 0 819 223 223 0 820 220
 0 0 +17 820 0 477 820 820 0 223 220 0 0 -15 477 644 0 820 370 369 17 817 0 455
 817 817 0 272 240 0 0 -15 455 575 0 817 15 815 83 3 453 .6 .6 .6 83 3 448 .6 .6
 .6 84 32 427 74acc9b21496c382c57c6797f83835a684 32 417 22ae944bf21930509e8b8f5f
b9df68e315 404 1965 0 397 403 0 17 397 0 404 397 397 0 393 391 0 0 -84 32 400 a4
2760aaccb788b6e338fcc6d81ee2ef84 32 395 9501012be4062a0c2a62676ebf7676fc81 1 384
 1822 135 112 0 0 289 111 821 81 1 289 1821 135 377 0 0 286 384 822 81 1 111 182
3 135 103 0 0 384 141 823 84 32 821 af2813513058ca53a4fb667b890678d081 1 141 182
4 135 131 0 0 111 360 824 84 32 823 c3b3df3cb5ab2d0d4407fde55b0a7bfe81 1 360 182
5 135 142 0 0 141 358 825 84 32 824 d3147b21b74406a3f227bcadca3f723c81 1 358 182
6 135 120 0 0 360 380 826 84 32 825 85e2d8f92ed5b03b001e59a022ba122581 1 380 182
7 135 32 0 0 358 121 827 84 32 826 a9a87cb51d8acd7128292844c23035e281 1 121 1828
 135 106 0 0 380 136 828 84 32 827 acc571d7a6a614f39d8b45e402a0a6b384 32 828 8e1
8221ff97949f47c9c36855f69e16084 32 822 c83ecd6fda0130f681d6380d4ffd2d1784 32 379
 9e84c830f59d7f16fa3de919c68f58dc81 1 145 1602 135 133 0 0 297 309 829 84 32 364
 eb0fc79442f5f782b7f1a29a023925c081 1 309 1603 135 307 0 0 145 157 830 84 32 829
 e85815e951933cb759578ac528676ba681 1 157 1604 135 40 0 0 309 156 831 84 32 830
 e362a79950f344243d85fee7c1fc61a384 32 831 8b7511660a37322c1f938b24a114f0b184 32
 362 211991612d293131ab2e113b502ce0b181 1 139 1381 135 130 0 0 356 330 832 84 32
 357 69cf1c58e0fd525d94377190c5d8a15981 1 330 1382 135 279 0 0 139 150 833 84 32
 832 b05174945eeb9d9b844ef3c2c199b8ba81 1 150 1383 135 324 0 0 330 148 834 84 32
 833 9711b874d2af5850bf639b207f53c11f84 32 834 913c907782686d13c5e4403b51735b3a8
4 32 340 3347636e31cdf4c7723d958220b932ec84 32 298 5594bc06899475b0f05b31f0770f0
ca984 32 290 944baa8661704f593a86472d9cde25c384 32 262 ec7a360fb8d24445684bc4b65
b3c330b84 32 250 14752a4f954b568031e81aa78574336284 32 186 8bbdf740d7ecd48a0dd38
445b125eaf884 32 159 712d654b8367e160b4e40f88cf72764584 32 152 e520b87666ccc87f4
a3b0aa9c9b7dc4584 32 138 0ff753590aed03d14608a76d66399f1519 16 5 0 1 0 8 4 S0 74
 4 CI16 index_map_offset0 0 1 dCCZ20 14 6 0 0 549 835 12 545 544 2 0 0 0 0 0 0 0
 0 0 0 0 0 0 0 81 2 835 1994 836 1 0 12 0 0 837 838 81 1 12 2003 839 1 835 2 0 0
 840 80 1 839 841 842 9000 0 0 0 0 3 5 0 0 0 FFTFFFFFFFFFFF1 82 255 1 840 -1 79
 19 842 UG2/PMARK_ATTRIBUTE80 2 836 843 844 8004 0 0 0 0 3 5 0 0 0 FFTFFFFFFFFFF
F2 3 83 1 837 .001 84 8 838 Kg/Cu M 79 16 844 SDL/TYSA_DENSITY80 1 11 845 846 90
00 0 0 0 0 3 5 0 0 0 FFTFFFFFFFFFFF1 82 1 13 87 79 24 846 UG2/BODY_COLOR_ATTRIBU
TE1 0 
