%TF.GenerationSoftware,KiCad,Pcbnew,8.0.5*%
%TF.CreationDate,2025-02-26T19:01:25+01:00*%
%TF.ProjectId,carte 5V,63617274-6520-4355-962e-6b696361645f,rev?*%
%TF.SameCoordinates,Original*%
%TF.FileFunction,Legend,Top*%
%TF.FilePolarity,Positive*%
%FSLAX46Y46*%
G04 Gerber Fmt 4.6, Leading zero omitted, Abs format (unit mm)*
G04 Created by KiCad (PCBNEW 8.0.5) date 2025-02-26 19:01:25*
%MOMM*%
%LPD*%
G01*
G04 APERTURE LIST*
%ADD10C,0.150000*%
%ADD11C,0.120000*%
G04 APERTURE END LIST*
D10*
X175024580Y-86391792D02*
X175072200Y-86439411D01*
X175072200Y-86439411D02*
X175119819Y-86582268D01*
X175119819Y-86582268D02*
X175119819Y-86677506D01*
X175119819Y-86677506D02*
X175072200Y-86820363D01*
X175072200Y-86820363D02*
X174976961Y-86915601D01*
X174976961Y-86915601D02*
X174881723Y-86963220D01*
X174881723Y-86963220D02*
X174691247Y-87010839D01*
X174691247Y-87010839D02*
X174548390Y-87010839D01*
X174548390Y-87010839D02*
X174357914Y-86963220D01*
X174357914Y-86963220D02*
X174262676Y-86915601D01*
X174262676Y-86915601D02*
X174167438Y-86820363D01*
X174167438Y-86820363D02*
X174119819Y-86677506D01*
X174119819Y-86677506D02*
X174119819Y-86582268D01*
X174119819Y-86582268D02*
X174167438Y-86439411D01*
X174167438Y-86439411D02*
X174215057Y-86391792D01*
X175119819Y-85534649D02*
X174596009Y-85534649D01*
X174596009Y-85534649D02*
X174500771Y-85582268D01*
X174500771Y-85582268D02*
X174453152Y-85677506D01*
X174453152Y-85677506D02*
X174453152Y-85867982D01*
X174453152Y-85867982D02*
X174500771Y-85963220D01*
X175072200Y-85534649D02*
X175119819Y-85629887D01*
X175119819Y-85629887D02*
X175119819Y-85867982D01*
X175119819Y-85867982D02*
X175072200Y-85963220D01*
X175072200Y-85963220D02*
X174976961Y-86010839D01*
X174976961Y-86010839D02*
X174881723Y-86010839D01*
X174881723Y-86010839D02*
X174786485Y-85963220D01*
X174786485Y-85963220D02*
X174738866Y-85867982D01*
X174738866Y-85867982D02*
X174738866Y-85629887D01*
X174738866Y-85629887D02*
X174691247Y-85534649D01*
X175119819Y-85058458D02*
X174453152Y-85058458D01*
X174643628Y-85058458D02*
X174548390Y-85010839D01*
X174548390Y-85010839D02*
X174500771Y-84963220D01*
X174500771Y-84963220D02*
X174453152Y-84867982D01*
X174453152Y-84867982D02*
X174453152Y-84772744D01*
X174453152Y-84582267D02*
X174453152Y-84201315D01*
X174119819Y-84439410D02*
X174976961Y-84439410D01*
X174976961Y-84439410D02*
X175072200Y-84391791D01*
X175072200Y-84391791D02*
X175119819Y-84296553D01*
X175119819Y-84296553D02*
X175119819Y-84201315D01*
X175072200Y-83487029D02*
X175119819Y-83582267D01*
X175119819Y-83582267D02*
X175119819Y-83772743D01*
X175119819Y-83772743D02*
X175072200Y-83867981D01*
X175072200Y-83867981D02*
X174976961Y-83915600D01*
X174976961Y-83915600D02*
X174596009Y-83915600D01*
X174596009Y-83915600D02*
X174500771Y-83867981D01*
X174500771Y-83867981D02*
X174453152Y-83772743D01*
X174453152Y-83772743D02*
X174453152Y-83582267D01*
X174453152Y-83582267D02*
X174500771Y-83487029D01*
X174500771Y-83487029D02*
X174596009Y-83439410D01*
X174596009Y-83439410D02*
X174691247Y-83439410D01*
X174691247Y-83439410D02*
X174786485Y-83915600D01*
X174119819Y-81772743D02*
X174119819Y-82248933D01*
X174119819Y-82248933D02*
X174596009Y-82296552D01*
X174596009Y-82296552D02*
X174548390Y-82248933D01*
X174548390Y-82248933D02*
X174500771Y-82153695D01*
X174500771Y-82153695D02*
X174500771Y-81915600D01*
X174500771Y-81915600D02*
X174548390Y-81820362D01*
X174548390Y-81820362D02*
X174596009Y-81772743D01*
X174596009Y-81772743D02*
X174691247Y-81725124D01*
X174691247Y-81725124D02*
X174929342Y-81725124D01*
X174929342Y-81725124D02*
X175024580Y-81772743D01*
X175024580Y-81772743D02*
X175072200Y-81820362D01*
X175072200Y-81820362D02*
X175119819Y-81915600D01*
X175119819Y-81915600D02*
X175119819Y-82153695D01*
X175119819Y-82153695D02*
X175072200Y-82248933D01*
X175072200Y-82248933D02*
X175024580Y-82296552D01*
X174119819Y-81439409D02*
X175119819Y-81106076D01*
X175119819Y-81106076D02*
X174119819Y-80772743D01*
X174834104Y-79725123D02*
X174834104Y-79248933D01*
X175119819Y-79820361D02*
X174119819Y-79487028D01*
X174119819Y-79487028D02*
X175119819Y-79153695D01*
X175072200Y-78391790D02*
X175119819Y-78487028D01*
X175119819Y-78487028D02*
X175119819Y-78677504D01*
X175119819Y-78677504D02*
X175072200Y-78772742D01*
X175072200Y-78772742D02*
X175024580Y-78820361D01*
X175024580Y-78820361D02*
X174929342Y-78867980D01*
X174929342Y-78867980D02*
X174643628Y-78867980D01*
X174643628Y-78867980D02*
X174548390Y-78820361D01*
X174548390Y-78820361D02*
X174500771Y-78772742D01*
X174500771Y-78772742D02*
X174453152Y-78677504D01*
X174453152Y-78677504D02*
X174453152Y-78487028D01*
X174453152Y-78487028D02*
X174500771Y-78391790D01*
X174453152Y-78106075D02*
X174453152Y-77725123D01*
X174119819Y-77963218D02*
X174976961Y-77963218D01*
X174976961Y-77963218D02*
X175072200Y-77915599D01*
X175072200Y-77915599D02*
X175119819Y-77820361D01*
X175119819Y-77820361D02*
X175119819Y-77725123D01*
X175119819Y-77391789D02*
X174453152Y-77391789D01*
X174119819Y-77391789D02*
X174167438Y-77439408D01*
X174167438Y-77439408D02*
X174215057Y-77391789D01*
X174215057Y-77391789D02*
X174167438Y-77344170D01*
X174167438Y-77344170D02*
X174119819Y-77391789D01*
X174119819Y-77391789D02*
X174215057Y-77391789D01*
X175119819Y-76772742D02*
X175072200Y-76867980D01*
X175072200Y-76867980D02*
X175024580Y-76915599D01*
X175024580Y-76915599D02*
X174929342Y-76963218D01*
X174929342Y-76963218D02*
X174643628Y-76963218D01*
X174643628Y-76963218D02*
X174548390Y-76915599D01*
X174548390Y-76915599D02*
X174500771Y-76867980D01*
X174500771Y-76867980D02*
X174453152Y-76772742D01*
X174453152Y-76772742D02*
X174453152Y-76629885D01*
X174453152Y-76629885D02*
X174500771Y-76534647D01*
X174500771Y-76534647D02*
X174548390Y-76487028D01*
X174548390Y-76487028D02*
X174643628Y-76439409D01*
X174643628Y-76439409D02*
X174929342Y-76439409D01*
X174929342Y-76439409D02*
X175024580Y-76487028D01*
X175024580Y-76487028D02*
X175072200Y-76534647D01*
X175072200Y-76534647D02*
X175119819Y-76629885D01*
X175119819Y-76629885D02*
X175119819Y-76772742D01*
X174453152Y-76010837D02*
X175119819Y-76010837D01*
X174548390Y-76010837D02*
X174500771Y-75963218D01*
X174500771Y-75963218D02*
X174453152Y-75867980D01*
X174453152Y-75867980D02*
X174453152Y-75725123D01*
X174453152Y-75725123D02*
X174500771Y-75629885D01*
X174500771Y-75629885D02*
X174596009Y-75582266D01*
X174596009Y-75582266D02*
X175119819Y-75582266D01*
X174453152Y-75106075D02*
X175119819Y-75106075D01*
X174548390Y-75106075D02*
X174500771Y-75058456D01*
X174500771Y-75058456D02*
X174453152Y-74963218D01*
X174453152Y-74963218D02*
X174453152Y-74820361D01*
X174453152Y-74820361D02*
X174500771Y-74725123D01*
X174500771Y-74725123D02*
X174596009Y-74677504D01*
X174596009Y-74677504D02*
X175119819Y-74677504D01*
X175072200Y-73820361D02*
X175119819Y-73915599D01*
X175119819Y-73915599D02*
X175119819Y-74106075D01*
X175119819Y-74106075D02*
X175072200Y-74201313D01*
X175072200Y-74201313D02*
X174976961Y-74248932D01*
X174976961Y-74248932D02*
X174596009Y-74248932D01*
X174596009Y-74248932D02*
X174500771Y-74201313D01*
X174500771Y-74201313D02*
X174453152Y-74106075D01*
X174453152Y-74106075D02*
X174453152Y-73915599D01*
X174453152Y-73915599D02*
X174500771Y-73820361D01*
X174500771Y-73820361D02*
X174596009Y-73772742D01*
X174596009Y-73772742D02*
X174691247Y-73772742D01*
X174691247Y-73772742D02*
X174786485Y-74248932D01*
X174453152Y-72915599D02*
X175119819Y-72915599D01*
X174453152Y-73344170D02*
X174976961Y-73344170D01*
X174976961Y-73344170D02*
X175072200Y-73296551D01*
X175072200Y-73296551D02*
X175119819Y-73201313D01*
X175119819Y-73201313D02*
X175119819Y-73058456D01*
X175119819Y-73058456D02*
X175072200Y-72963218D01*
X175072200Y-72963218D02*
X175024580Y-72915599D01*
X175119819Y-72439408D02*
X174453152Y-72439408D01*
X174643628Y-72439408D02*
X174548390Y-72391789D01*
X174548390Y-72391789D02*
X174500771Y-72344170D01*
X174500771Y-72344170D02*
X174453152Y-72248932D01*
X174453152Y-72248932D02*
X174453152Y-72153694D01*
X175072200Y-71867979D02*
X175119819Y-71772741D01*
X175119819Y-71772741D02*
X175119819Y-71582265D01*
X175119819Y-71582265D02*
X175072200Y-71487027D01*
X175072200Y-71487027D02*
X174976961Y-71439408D01*
X174976961Y-71439408D02*
X174929342Y-71439408D01*
X174929342Y-71439408D02*
X174834104Y-71487027D01*
X174834104Y-71487027D02*
X174786485Y-71582265D01*
X174786485Y-71582265D02*
X174786485Y-71725122D01*
X174786485Y-71725122D02*
X174738866Y-71820360D01*
X174738866Y-71820360D02*
X174643628Y-71867979D01*
X174643628Y-71867979D02*
X174596009Y-71867979D01*
X174596009Y-71867979D02*
X174500771Y-71820360D01*
X174500771Y-71820360D02*
X174453152Y-71725122D01*
X174453152Y-71725122D02*
X174453152Y-71582265D01*
X174453152Y-71582265D02*
X174500771Y-71487027D01*
X185131429Y-53874819D02*
X185702857Y-53874819D01*
X185417143Y-54874819D02*
X185417143Y-53874819D01*
X186179048Y-54874819D02*
X186083810Y-54827200D01*
X186083810Y-54827200D02*
X186036191Y-54779580D01*
X186036191Y-54779580D02*
X185988572Y-54684342D01*
X185988572Y-54684342D02*
X185988572Y-54398628D01*
X185988572Y-54398628D02*
X186036191Y-54303390D01*
X186036191Y-54303390D02*
X186083810Y-54255771D01*
X186083810Y-54255771D02*
X186179048Y-54208152D01*
X186179048Y-54208152D02*
X186321905Y-54208152D01*
X186321905Y-54208152D02*
X186417143Y-54255771D01*
X186417143Y-54255771D02*
X186464762Y-54303390D01*
X186464762Y-54303390D02*
X186512381Y-54398628D01*
X186512381Y-54398628D02*
X186512381Y-54684342D01*
X186512381Y-54684342D02*
X186464762Y-54779580D01*
X186464762Y-54779580D02*
X186417143Y-54827200D01*
X186417143Y-54827200D02*
X186321905Y-54874819D01*
X186321905Y-54874819D02*
X186179048Y-54874819D01*
X186940953Y-54874819D02*
X186940953Y-53874819D01*
X187369524Y-53970057D02*
X187417143Y-53922438D01*
X187417143Y-53922438D02*
X187512381Y-53874819D01*
X187512381Y-53874819D02*
X187750476Y-53874819D01*
X187750476Y-53874819D02*
X187845714Y-53922438D01*
X187845714Y-53922438D02*
X187893333Y-53970057D01*
X187893333Y-53970057D02*
X187940952Y-54065295D01*
X187940952Y-54065295D02*
X187940952Y-54160533D01*
X187940952Y-54160533D02*
X187893333Y-54303390D01*
X187893333Y-54303390D02*
X187321905Y-54874819D01*
X187321905Y-54874819D02*
X187940952Y-54874819D01*
X188940952Y-54779580D02*
X188893333Y-54827200D01*
X188893333Y-54827200D02*
X188750476Y-54874819D01*
X188750476Y-54874819D02*
X188655238Y-54874819D01*
X188655238Y-54874819D02*
X188512381Y-54827200D01*
X188512381Y-54827200D02*
X188417143Y-54731961D01*
X188417143Y-54731961D02*
X188369524Y-54636723D01*
X188369524Y-54636723D02*
X188321905Y-54446247D01*
X188321905Y-54446247D02*
X188321905Y-54303390D01*
X188321905Y-54303390D02*
X188369524Y-54112914D01*
X188369524Y-54112914D02*
X188417143Y-54017676D01*
X188417143Y-54017676D02*
X188512381Y-53922438D01*
X188512381Y-53922438D02*
X188655238Y-53874819D01*
X188655238Y-53874819D02*
X188750476Y-53874819D01*
X188750476Y-53874819D02*
X188893333Y-53922438D01*
X188893333Y-53922438D02*
X188940952Y-53970057D01*
X189893333Y-54874819D02*
X189321905Y-54874819D01*
X189607619Y-54874819D02*
X189607619Y-53874819D01*
X189607619Y-53874819D02*
X189512381Y-54017676D01*
X189512381Y-54017676D02*
X189417143Y-54112914D01*
X189417143Y-54112914D02*
X189321905Y-54160533D01*
X151824819Y-62773809D02*
X151824819Y-62202381D01*
X152824819Y-62488095D02*
X151824819Y-62488095D01*
X152824819Y-61726190D02*
X152777200Y-61821428D01*
X152777200Y-61821428D02*
X152729580Y-61869047D01*
X152729580Y-61869047D02*
X152634342Y-61916666D01*
X152634342Y-61916666D02*
X152348628Y-61916666D01*
X152348628Y-61916666D02*
X152253390Y-61869047D01*
X152253390Y-61869047D02*
X152205771Y-61821428D01*
X152205771Y-61821428D02*
X152158152Y-61726190D01*
X152158152Y-61726190D02*
X152158152Y-61583333D01*
X152158152Y-61583333D02*
X152205771Y-61488095D01*
X152205771Y-61488095D02*
X152253390Y-61440476D01*
X152253390Y-61440476D02*
X152348628Y-61392857D01*
X152348628Y-61392857D02*
X152634342Y-61392857D01*
X152634342Y-61392857D02*
X152729580Y-61440476D01*
X152729580Y-61440476D02*
X152777200Y-61488095D01*
X152777200Y-61488095D02*
X152824819Y-61583333D01*
X152824819Y-61583333D02*
X152824819Y-61726190D01*
X152824819Y-60392857D02*
X152348628Y-60726190D01*
X152824819Y-60964285D02*
X151824819Y-60964285D01*
X151824819Y-60964285D02*
X151824819Y-60583333D01*
X151824819Y-60583333D02*
X151872438Y-60488095D01*
X151872438Y-60488095D02*
X151920057Y-60440476D01*
X151920057Y-60440476D02*
X152015295Y-60392857D01*
X152015295Y-60392857D02*
X152158152Y-60392857D01*
X152158152Y-60392857D02*
X152253390Y-60440476D01*
X152253390Y-60440476D02*
X152301009Y-60488095D01*
X152301009Y-60488095D02*
X152348628Y-60583333D01*
X152348628Y-60583333D02*
X152348628Y-60964285D01*
X152824819Y-59535714D02*
X152301009Y-59535714D01*
X152301009Y-59535714D02*
X152205771Y-59583333D01*
X152205771Y-59583333D02*
X152158152Y-59678571D01*
X152158152Y-59678571D02*
X152158152Y-59869047D01*
X152158152Y-59869047D02*
X152205771Y-59964285D01*
X152777200Y-59535714D02*
X152824819Y-59630952D01*
X152824819Y-59630952D02*
X152824819Y-59869047D01*
X152824819Y-59869047D02*
X152777200Y-59964285D01*
X152777200Y-59964285D02*
X152681961Y-60011904D01*
X152681961Y-60011904D02*
X152586723Y-60011904D01*
X152586723Y-60011904D02*
X152491485Y-59964285D01*
X152491485Y-59964285D02*
X152443866Y-59869047D01*
X152443866Y-59869047D02*
X152443866Y-59630952D01*
X152443866Y-59630952D02*
X152396247Y-59535714D01*
X152777200Y-59107142D02*
X152824819Y-59011904D01*
X152824819Y-59011904D02*
X152824819Y-58821428D01*
X152824819Y-58821428D02*
X152777200Y-58726190D01*
X152777200Y-58726190D02*
X152681961Y-58678571D01*
X152681961Y-58678571D02*
X152634342Y-58678571D01*
X152634342Y-58678571D02*
X152539104Y-58726190D01*
X152539104Y-58726190D02*
X152491485Y-58821428D01*
X152491485Y-58821428D02*
X152491485Y-58964285D01*
X152491485Y-58964285D02*
X152443866Y-59059523D01*
X152443866Y-59059523D02*
X152348628Y-59107142D01*
X152348628Y-59107142D02*
X152301009Y-59107142D01*
X152301009Y-59107142D02*
X152205771Y-59059523D01*
X152205771Y-59059523D02*
X152158152Y-58964285D01*
X152158152Y-58964285D02*
X152158152Y-58821428D01*
X152158152Y-58821428D02*
X152205771Y-58726190D01*
X152158152Y-58249999D02*
X153158152Y-58249999D01*
X152205771Y-58249999D02*
X152158152Y-58154761D01*
X152158152Y-58154761D02*
X152158152Y-57964285D01*
X152158152Y-57964285D02*
X152205771Y-57869047D01*
X152205771Y-57869047D02*
X152253390Y-57821428D01*
X152253390Y-57821428D02*
X152348628Y-57773809D01*
X152348628Y-57773809D02*
X152634342Y-57773809D01*
X152634342Y-57773809D02*
X152729580Y-57821428D01*
X152729580Y-57821428D02*
X152777200Y-57869047D01*
X152777200Y-57869047D02*
X152824819Y-57964285D01*
X152824819Y-57964285D02*
X152824819Y-58154761D01*
X152824819Y-58154761D02*
X152777200Y-58249999D01*
X152824819Y-56821428D02*
X152824819Y-57392856D01*
X152824819Y-57107142D02*
X151824819Y-57107142D01*
X151824819Y-57107142D02*
X151967676Y-57202380D01*
X151967676Y-57202380D02*
X152062914Y-57297618D01*
X152062914Y-57297618D02*
X152110533Y-57392856D01*
X196104819Y-80327142D02*
X196104819Y-79755714D01*
X197104819Y-80041428D02*
X196104819Y-80041428D01*
X197057200Y-79041428D02*
X197104819Y-79136666D01*
X197104819Y-79136666D02*
X197104819Y-79327142D01*
X197104819Y-79327142D02*
X197057200Y-79422380D01*
X197057200Y-79422380D02*
X196961961Y-79469999D01*
X196961961Y-79469999D02*
X196581009Y-79469999D01*
X196581009Y-79469999D02*
X196485771Y-79422380D01*
X196485771Y-79422380D02*
X196438152Y-79327142D01*
X196438152Y-79327142D02*
X196438152Y-79136666D01*
X196438152Y-79136666D02*
X196485771Y-79041428D01*
X196485771Y-79041428D02*
X196581009Y-78993809D01*
X196581009Y-78993809D02*
X196676247Y-78993809D01*
X196676247Y-78993809D02*
X196771485Y-79469999D01*
X197057200Y-78184285D02*
X197104819Y-78279523D01*
X197104819Y-78279523D02*
X197104819Y-78469999D01*
X197104819Y-78469999D02*
X197057200Y-78565237D01*
X197057200Y-78565237D02*
X196961961Y-78612856D01*
X196961961Y-78612856D02*
X196581009Y-78612856D01*
X196581009Y-78612856D02*
X196485771Y-78565237D01*
X196485771Y-78565237D02*
X196438152Y-78469999D01*
X196438152Y-78469999D02*
X196438152Y-78279523D01*
X196438152Y-78279523D02*
X196485771Y-78184285D01*
X196485771Y-78184285D02*
X196581009Y-78136666D01*
X196581009Y-78136666D02*
X196676247Y-78136666D01*
X196676247Y-78136666D02*
X196771485Y-78612856D01*
X196438152Y-77708094D02*
X197104819Y-77708094D01*
X196533390Y-77708094D02*
X196485771Y-77660475D01*
X196485771Y-77660475D02*
X196438152Y-77565237D01*
X196438152Y-77565237D02*
X196438152Y-77422380D01*
X196438152Y-77422380D02*
X196485771Y-77327142D01*
X196485771Y-77327142D02*
X196581009Y-77279523D01*
X196581009Y-77279523D02*
X197104819Y-77279523D01*
X197057200Y-76850951D02*
X197104819Y-76755713D01*
X197104819Y-76755713D02*
X197104819Y-76565237D01*
X197104819Y-76565237D02*
X197057200Y-76469999D01*
X197057200Y-76469999D02*
X196961961Y-76422380D01*
X196961961Y-76422380D02*
X196914342Y-76422380D01*
X196914342Y-76422380D02*
X196819104Y-76469999D01*
X196819104Y-76469999D02*
X196771485Y-76565237D01*
X196771485Y-76565237D02*
X196771485Y-76708094D01*
X196771485Y-76708094D02*
X196723866Y-76803332D01*
X196723866Y-76803332D02*
X196628628Y-76850951D01*
X196628628Y-76850951D02*
X196581009Y-76850951D01*
X196581009Y-76850951D02*
X196485771Y-76803332D01*
X196485771Y-76803332D02*
X196438152Y-76708094D01*
X196438152Y-76708094D02*
X196438152Y-76565237D01*
X196438152Y-76565237D02*
X196485771Y-76469999D01*
X196438152Y-76089046D02*
X197104819Y-75850951D01*
X196438152Y-75612856D02*
X197104819Y-75850951D01*
X197104819Y-75850951D02*
X197342914Y-75946189D01*
X197342914Y-75946189D02*
X197390533Y-75993808D01*
X197390533Y-75993808D02*
X197438152Y-76089046D01*
X197104819Y-74708094D02*
X197104819Y-75279522D01*
X197104819Y-74993808D02*
X196104819Y-74993808D01*
X196104819Y-74993808D02*
X196247676Y-75089046D01*
X196247676Y-75089046D02*
X196342914Y-75184284D01*
X196342914Y-75184284D02*
X196390533Y-75279522D01*
X153154819Y-82122857D02*
X152154819Y-82122857D01*
X152154819Y-82122857D02*
X152869104Y-81789524D01*
X152869104Y-81789524D02*
X152154819Y-81456191D01*
X152154819Y-81456191D02*
X153154819Y-81456191D01*
X153154819Y-80837143D02*
X153107200Y-80932381D01*
X153107200Y-80932381D02*
X153059580Y-80980000D01*
X153059580Y-80980000D02*
X152964342Y-81027619D01*
X152964342Y-81027619D02*
X152678628Y-81027619D01*
X152678628Y-81027619D02*
X152583390Y-80980000D01*
X152583390Y-80980000D02*
X152535771Y-80932381D01*
X152535771Y-80932381D02*
X152488152Y-80837143D01*
X152488152Y-80837143D02*
X152488152Y-80694286D01*
X152488152Y-80694286D02*
X152535771Y-80599048D01*
X152535771Y-80599048D02*
X152583390Y-80551429D01*
X152583390Y-80551429D02*
X152678628Y-80503810D01*
X152678628Y-80503810D02*
X152964342Y-80503810D01*
X152964342Y-80503810D02*
X153059580Y-80551429D01*
X153059580Y-80551429D02*
X153107200Y-80599048D01*
X153107200Y-80599048D02*
X153154819Y-80694286D01*
X153154819Y-80694286D02*
X153154819Y-80837143D01*
X152488152Y-80218095D02*
X152488152Y-79837143D01*
X152154819Y-80075238D02*
X153011961Y-80075238D01*
X153011961Y-80075238D02*
X153107200Y-80027619D01*
X153107200Y-80027619D02*
X153154819Y-79932381D01*
X153154819Y-79932381D02*
X153154819Y-79837143D01*
X153107200Y-79122857D02*
X153154819Y-79218095D01*
X153154819Y-79218095D02*
X153154819Y-79408571D01*
X153154819Y-79408571D02*
X153107200Y-79503809D01*
X153107200Y-79503809D02*
X153011961Y-79551428D01*
X153011961Y-79551428D02*
X152631009Y-79551428D01*
X152631009Y-79551428D02*
X152535771Y-79503809D01*
X152535771Y-79503809D02*
X152488152Y-79408571D01*
X152488152Y-79408571D02*
X152488152Y-79218095D01*
X152488152Y-79218095D02*
X152535771Y-79122857D01*
X152535771Y-79122857D02*
X152631009Y-79075238D01*
X152631009Y-79075238D02*
X152726247Y-79075238D01*
X152726247Y-79075238D02*
X152821485Y-79551428D01*
X152488152Y-78218095D02*
X153154819Y-78218095D01*
X152488152Y-78646666D02*
X153011961Y-78646666D01*
X153011961Y-78646666D02*
X153107200Y-78599047D01*
X153107200Y-78599047D02*
X153154819Y-78503809D01*
X153154819Y-78503809D02*
X153154819Y-78360952D01*
X153154819Y-78360952D02*
X153107200Y-78265714D01*
X153107200Y-78265714D02*
X153059580Y-78218095D01*
X153154819Y-77741904D02*
X152488152Y-77741904D01*
X152678628Y-77741904D02*
X152583390Y-77694285D01*
X152583390Y-77694285D02*
X152535771Y-77646666D01*
X152535771Y-77646666D02*
X152488152Y-77551428D01*
X152488152Y-77551428D02*
X152488152Y-77456190D01*
X153107200Y-77170475D02*
X153154819Y-77075237D01*
X153154819Y-77075237D02*
X153154819Y-76884761D01*
X153154819Y-76884761D02*
X153107200Y-76789523D01*
X153107200Y-76789523D02*
X153011961Y-76741904D01*
X153011961Y-76741904D02*
X152964342Y-76741904D01*
X152964342Y-76741904D02*
X152869104Y-76789523D01*
X152869104Y-76789523D02*
X152821485Y-76884761D01*
X152821485Y-76884761D02*
X152821485Y-77027618D01*
X152821485Y-77027618D02*
X152773866Y-77122856D01*
X152773866Y-77122856D02*
X152678628Y-77170475D01*
X152678628Y-77170475D02*
X152631009Y-77170475D01*
X152631009Y-77170475D02*
X152535771Y-77122856D01*
X152535771Y-77122856D02*
X152488152Y-77027618D01*
X152488152Y-77027618D02*
X152488152Y-76884761D01*
X152488152Y-76884761D02*
X152535771Y-76789523D01*
X153154819Y-75789523D02*
X153154819Y-76360951D01*
X153154819Y-76075237D02*
X152154819Y-76075237D01*
X152154819Y-76075237D02*
X152297676Y-76170475D01*
X152297676Y-76170475D02*
X152392914Y-76265713D01*
X152392914Y-76265713D02*
X152440533Y-76360951D01*
X169583333Y-54251009D02*
X169250000Y-54251009D01*
X169250000Y-54774819D02*
X169250000Y-53774819D01*
X169250000Y-53774819D02*
X169726190Y-53774819D01*
X170107143Y-54774819D02*
X170107143Y-54108152D01*
X170107143Y-54298628D02*
X170154762Y-54203390D01*
X170154762Y-54203390D02*
X170202381Y-54155771D01*
X170202381Y-54155771D02*
X170297619Y-54108152D01*
X170297619Y-54108152D02*
X170392857Y-54108152D01*
X170869048Y-54774819D02*
X170773810Y-54727200D01*
X170773810Y-54727200D02*
X170726191Y-54679580D01*
X170726191Y-54679580D02*
X170678572Y-54584342D01*
X170678572Y-54584342D02*
X170678572Y-54298628D01*
X170678572Y-54298628D02*
X170726191Y-54203390D01*
X170726191Y-54203390D02*
X170773810Y-54155771D01*
X170773810Y-54155771D02*
X170869048Y-54108152D01*
X170869048Y-54108152D02*
X171011905Y-54108152D01*
X171011905Y-54108152D02*
X171107143Y-54155771D01*
X171107143Y-54155771D02*
X171154762Y-54203390D01*
X171154762Y-54203390D02*
X171202381Y-54298628D01*
X171202381Y-54298628D02*
X171202381Y-54584342D01*
X171202381Y-54584342D02*
X171154762Y-54679580D01*
X171154762Y-54679580D02*
X171107143Y-54727200D01*
X171107143Y-54727200D02*
X171011905Y-54774819D01*
X171011905Y-54774819D02*
X170869048Y-54774819D01*
X171630953Y-54774819D02*
X171630953Y-54108152D01*
X171630953Y-54203390D02*
X171678572Y-54155771D01*
X171678572Y-54155771D02*
X171773810Y-54108152D01*
X171773810Y-54108152D02*
X171916667Y-54108152D01*
X171916667Y-54108152D02*
X172011905Y-54155771D01*
X172011905Y-54155771D02*
X172059524Y-54251009D01*
X172059524Y-54251009D02*
X172059524Y-54774819D01*
X172059524Y-54251009D02*
X172107143Y-54155771D01*
X172107143Y-54155771D02*
X172202381Y-54108152D01*
X172202381Y-54108152D02*
X172345238Y-54108152D01*
X172345238Y-54108152D02*
X172440477Y-54155771D01*
X172440477Y-54155771D02*
X172488096Y-54251009D01*
X172488096Y-54251009D02*
X172488096Y-54774819D01*
X173297619Y-54251009D02*
X173440476Y-54298628D01*
X173440476Y-54298628D02*
X173488095Y-54346247D01*
X173488095Y-54346247D02*
X173535714Y-54441485D01*
X173535714Y-54441485D02*
X173535714Y-54584342D01*
X173535714Y-54584342D02*
X173488095Y-54679580D01*
X173488095Y-54679580D02*
X173440476Y-54727200D01*
X173440476Y-54727200D02*
X173345238Y-54774819D01*
X173345238Y-54774819D02*
X172964286Y-54774819D01*
X172964286Y-54774819D02*
X172964286Y-53774819D01*
X172964286Y-53774819D02*
X173297619Y-53774819D01*
X173297619Y-53774819D02*
X173392857Y-53822438D01*
X173392857Y-53822438D02*
X173440476Y-53870057D01*
X173440476Y-53870057D02*
X173488095Y-53965295D01*
X173488095Y-53965295D02*
X173488095Y-54060533D01*
X173488095Y-54060533D02*
X173440476Y-54155771D01*
X173440476Y-54155771D02*
X173392857Y-54203390D01*
X173392857Y-54203390D02*
X173297619Y-54251009D01*
X173297619Y-54251009D02*
X172964286Y-54251009D01*
X174535714Y-54679580D02*
X174488095Y-54727200D01*
X174488095Y-54727200D02*
X174345238Y-54774819D01*
X174345238Y-54774819D02*
X174250000Y-54774819D01*
X174250000Y-54774819D02*
X174107143Y-54727200D01*
X174107143Y-54727200D02*
X174011905Y-54631961D01*
X174011905Y-54631961D02*
X173964286Y-54536723D01*
X173964286Y-54536723D02*
X173916667Y-54346247D01*
X173916667Y-54346247D02*
X173916667Y-54203390D01*
X173916667Y-54203390D02*
X173964286Y-54012914D01*
X173964286Y-54012914D02*
X174011905Y-53917676D01*
X174011905Y-53917676D02*
X174107143Y-53822438D01*
X174107143Y-53822438D02*
X174250000Y-53774819D01*
X174250000Y-53774819D02*
X174345238Y-53774819D01*
X174345238Y-53774819D02*
X174488095Y-53822438D01*
X174488095Y-53822438D02*
X174535714Y-53870057D01*
X175440476Y-53774819D02*
X174964286Y-53774819D01*
X174964286Y-53774819D02*
X174916667Y-54251009D01*
X174916667Y-54251009D02*
X174964286Y-54203390D01*
X174964286Y-54203390D02*
X175059524Y-54155771D01*
X175059524Y-54155771D02*
X175297619Y-54155771D01*
X175297619Y-54155771D02*
X175392857Y-54203390D01*
X175392857Y-54203390D02*
X175440476Y-54251009D01*
X175440476Y-54251009D02*
X175488095Y-54346247D01*
X175488095Y-54346247D02*
X175488095Y-54584342D01*
X175488095Y-54584342D02*
X175440476Y-54679580D01*
X175440476Y-54679580D02*
X175392857Y-54727200D01*
X175392857Y-54727200D02*
X175297619Y-54774819D01*
X175297619Y-54774819D02*
X175059524Y-54774819D01*
X175059524Y-54774819D02*
X174964286Y-54727200D01*
X174964286Y-54727200D02*
X174916667Y-54679580D01*
X175773810Y-53774819D02*
X176107143Y-54774819D01*
X176107143Y-54774819D02*
X176440476Y-53774819D01*
X177297619Y-54774819D02*
X176726191Y-54774819D01*
X177011905Y-54774819D02*
X177011905Y-53774819D01*
X177011905Y-53774819D02*
X176916667Y-53917676D01*
X176916667Y-53917676D02*
X176821429Y-54012914D01*
X176821429Y-54012914D02*
X176726191Y-54060533D01*
X172605238Y-68024819D02*
X172605238Y-67024819D01*
X172605238Y-67024819D02*
X172843333Y-67024819D01*
X172843333Y-67024819D02*
X172986190Y-67072438D01*
X172986190Y-67072438D02*
X173081428Y-67167676D01*
X173081428Y-67167676D02*
X173129047Y-67262914D01*
X173129047Y-67262914D02*
X173176666Y-67453390D01*
X173176666Y-67453390D02*
X173176666Y-67596247D01*
X173176666Y-67596247D02*
X173129047Y-67786723D01*
X173129047Y-67786723D02*
X173081428Y-67881961D01*
X173081428Y-67881961D02*
X172986190Y-67977200D01*
X172986190Y-67977200D02*
X172843333Y-68024819D01*
X172843333Y-68024819D02*
X172605238Y-68024819D01*
X173605238Y-68024819D02*
X173605238Y-67358152D01*
X173605238Y-67548628D02*
X173652857Y-67453390D01*
X173652857Y-67453390D02*
X173700476Y-67405771D01*
X173700476Y-67405771D02*
X173795714Y-67358152D01*
X173795714Y-67358152D02*
X173890952Y-67358152D01*
X174224286Y-68024819D02*
X174224286Y-67358152D01*
X174224286Y-67024819D02*
X174176667Y-67072438D01*
X174176667Y-67072438D02*
X174224286Y-67120057D01*
X174224286Y-67120057D02*
X174271905Y-67072438D01*
X174271905Y-67072438D02*
X174224286Y-67024819D01*
X174224286Y-67024819D02*
X174224286Y-67120057D01*
X174605238Y-67358152D02*
X174843333Y-68024819D01*
X174843333Y-68024819D02*
X175081428Y-67358152D01*
X175843333Y-67977200D02*
X175748095Y-68024819D01*
X175748095Y-68024819D02*
X175557619Y-68024819D01*
X175557619Y-68024819D02*
X175462381Y-67977200D01*
X175462381Y-67977200D02*
X175414762Y-67881961D01*
X175414762Y-67881961D02*
X175414762Y-67501009D01*
X175414762Y-67501009D02*
X175462381Y-67405771D01*
X175462381Y-67405771D02*
X175557619Y-67358152D01*
X175557619Y-67358152D02*
X175748095Y-67358152D01*
X175748095Y-67358152D02*
X175843333Y-67405771D01*
X175843333Y-67405771D02*
X175890952Y-67501009D01*
X175890952Y-67501009D02*
X175890952Y-67596247D01*
X175890952Y-67596247D02*
X175414762Y-67691485D01*
X176319524Y-68024819D02*
X176319524Y-67358152D01*
X176319524Y-67548628D02*
X176367143Y-67453390D01*
X176367143Y-67453390D02*
X176414762Y-67405771D01*
X176414762Y-67405771D02*
X176510000Y-67358152D01*
X176510000Y-67358152D02*
X176605238Y-67358152D01*
X177462381Y-68024819D02*
X176890953Y-68024819D01*
X177176667Y-68024819D02*
X177176667Y-67024819D01*
X177176667Y-67024819D02*
X177081429Y-67167676D01*
X177081429Y-67167676D02*
X176986191Y-67262914D01*
X176986191Y-67262914D02*
X176890953Y-67310533D01*
X159259580Y-97446666D02*
X159307200Y-97494285D01*
X159307200Y-97494285D02*
X159354819Y-97637142D01*
X159354819Y-97637142D02*
X159354819Y-97732380D01*
X159354819Y-97732380D02*
X159307200Y-97875237D01*
X159307200Y-97875237D02*
X159211961Y-97970475D01*
X159211961Y-97970475D02*
X159116723Y-98018094D01*
X159116723Y-98018094D02*
X158926247Y-98065713D01*
X158926247Y-98065713D02*
X158783390Y-98065713D01*
X158783390Y-98065713D02*
X158592914Y-98018094D01*
X158592914Y-98018094D02*
X158497676Y-97970475D01*
X158497676Y-97970475D02*
X158402438Y-97875237D01*
X158402438Y-97875237D02*
X158354819Y-97732380D01*
X158354819Y-97732380D02*
X158354819Y-97637142D01*
X158354819Y-97637142D02*
X158402438Y-97494285D01*
X158402438Y-97494285D02*
X158450057Y-97446666D01*
X158450057Y-97065713D02*
X158402438Y-97018094D01*
X158402438Y-97018094D02*
X158354819Y-96922856D01*
X158354819Y-96922856D02*
X158354819Y-96684761D01*
X158354819Y-96684761D02*
X158402438Y-96589523D01*
X158402438Y-96589523D02*
X158450057Y-96541904D01*
X158450057Y-96541904D02*
X158545295Y-96494285D01*
X158545295Y-96494285D02*
X158640533Y-96494285D01*
X158640533Y-96494285D02*
X158783390Y-96541904D01*
X158783390Y-96541904D02*
X159354819Y-97113332D01*
X159354819Y-97113332D02*
X159354819Y-96494285D01*
X189759580Y-99166666D02*
X189807200Y-99214285D01*
X189807200Y-99214285D02*
X189854819Y-99357142D01*
X189854819Y-99357142D02*
X189854819Y-99452380D01*
X189854819Y-99452380D02*
X189807200Y-99595237D01*
X189807200Y-99595237D02*
X189711961Y-99690475D01*
X189711961Y-99690475D02*
X189616723Y-99738094D01*
X189616723Y-99738094D02*
X189426247Y-99785713D01*
X189426247Y-99785713D02*
X189283390Y-99785713D01*
X189283390Y-99785713D02*
X189092914Y-99738094D01*
X189092914Y-99738094D02*
X188997676Y-99690475D01*
X188997676Y-99690475D02*
X188902438Y-99595237D01*
X188902438Y-99595237D02*
X188854819Y-99452380D01*
X188854819Y-99452380D02*
X188854819Y-99357142D01*
X188854819Y-99357142D02*
X188902438Y-99214285D01*
X188902438Y-99214285D02*
X188950057Y-99166666D01*
X189854819Y-98214285D02*
X189854819Y-98785713D01*
X189854819Y-98499999D02*
X188854819Y-98499999D01*
X188854819Y-98499999D02*
X188997676Y-98595237D01*
X188997676Y-98595237D02*
X189092914Y-98690475D01*
X189092914Y-98690475D02*
X189140533Y-98785713D01*
X168464285Y-125904819D02*
X167892857Y-125904819D01*
X168178571Y-125904819D02*
X168178571Y-124904819D01*
X168178571Y-124904819D02*
X168083333Y-125047676D01*
X168083333Y-125047676D02*
X167988095Y-125142914D01*
X167988095Y-125142914D02*
X167892857Y-125190533D01*
X168845238Y-125000057D02*
X168892857Y-124952438D01*
X168892857Y-124952438D02*
X168988095Y-124904819D01*
X168988095Y-124904819D02*
X169226190Y-124904819D01*
X169226190Y-124904819D02*
X169321428Y-124952438D01*
X169321428Y-124952438D02*
X169369047Y-125000057D01*
X169369047Y-125000057D02*
X169416666Y-125095295D01*
X169416666Y-125095295D02*
X169416666Y-125190533D01*
X169416666Y-125190533D02*
X169369047Y-125333390D01*
X169369047Y-125333390D02*
X168797619Y-125904819D01*
X168797619Y-125904819D02*
X169416666Y-125904819D01*
X169702381Y-124904819D02*
X170035714Y-125904819D01*
X170035714Y-125904819D02*
X170369047Y-124904819D01*
X170702381Y-125904819D02*
X170702381Y-125238152D01*
X170702381Y-124904819D02*
X170654762Y-124952438D01*
X170654762Y-124952438D02*
X170702381Y-125000057D01*
X170702381Y-125000057D02*
X170750000Y-124952438D01*
X170750000Y-124952438D02*
X170702381Y-124904819D01*
X170702381Y-124904819D02*
X170702381Y-125000057D01*
X171178571Y-125238152D02*
X171178571Y-125904819D01*
X171178571Y-125333390D02*
X171226190Y-125285771D01*
X171226190Y-125285771D02*
X171321428Y-125238152D01*
X171321428Y-125238152D02*
X171464285Y-125238152D01*
X171464285Y-125238152D02*
X171559523Y-125285771D01*
X171559523Y-125285771D02*
X171607142Y-125381009D01*
X171607142Y-125381009D02*
X171607142Y-125904819D01*
X172607142Y-125904819D02*
X172035714Y-125904819D01*
X172321428Y-125904819D02*
X172321428Y-124904819D01*
X172321428Y-124904819D02*
X172226190Y-125047676D01*
X172226190Y-125047676D02*
X172130952Y-125142914D01*
X172130952Y-125142914D02*
X172035714Y-125190533D01*
D11*
%TO.C,ToI2C1*%
X182480000Y-55690000D02*
X182480000Y-63310000D01*
X182480000Y-63310000D02*
X192640000Y-63310000D01*
X192640000Y-55690000D02*
X182480000Y-55690000D01*
X192640000Y-62040000D02*
X182480000Y-62040000D01*
X192640000Y-63310000D02*
X192640000Y-55690000D01*
%TO.C,ToRasp1*%
X153640000Y-64830000D02*
X161260000Y-64830000D01*
X161260000Y-64830000D02*
X161260000Y-54670000D01*
X153640000Y-54670000D02*
X153640000Y-64830000D01*
X159990000Y-54670000D02*
X159990000Y-64830000D01*
X161260000Y-54670000D02*
X153640000Y-54670000D01*
%TO.C,Teensy1*%
X188190000Y-85120000D02*
X195810000Y-85120000D01*
X188190000Y-69880000D02*
X188190000Y-85120000D01*
X188190000Y-69880000D02*
X195810000Y-69880000D01*
X189460000Y-69880000D02*
X189460000Y-85120000D01*
X195810000Y-69880000D02*
X195810000Y-85120000D01*
%TO.C,Moteurs1*%
X161310000Y-68800000D02*
X153690000Y-68800000D01*
X160040000Y-68800000D02*
X160040000Y-89120000D01*
X161310000Y-89120000D02*
X161310000Y-68800000D01*
X153690000Y-89120000D02*
X153690000Y-68800000D01*
X153690000Y-89120000D02*
X161310000Y-89120000D01*
%TO.C,FromBC5V1*%
X168170000Y-55590000D02*
X168170000Y-63210000D01*
X168170000Y-63210000D02*
X178330000Y-63210000D01*
X178330000Y-55590000D02*
X168170000Y-55590000D01*
X178330000Y-61940000D02*
X168170000Y-61940000D01*
X178330000Y-63210000D02*
X178330000Y-55590000D01*
%TO.C,Driver1*%
X182760000Y-89290000D02*
X182760000Y-68710000D01*
X182760000Y-68710000D02*
X169930000Y-68710000D01*
X180090000Y-68710000D02*
X180090000Y-89290000D01*
X169930000Y-71380000D02*
X169930000Y-89290000D01*
X169930000Y-71380000D02*
X167260000Y-71380000D01*
X169930000Y-68710000D02*
X169930000Y-71380000D01*
X168660000Y-68710000D02*
X167260000Y-68710000D01*
X167260000Y-89290000D02*
X182760000Y-89290000D01*
X167260000Y-71380000D02*
X167260000Y-89290000D01*
X167260000Y-68710000D02*
X167260000Y-70110000D01*
%TO.C,C2*%
X192170000Y-97050000D02*
G75*
G02*
X179430000Y-97050000I-6370000J0D01*
G01*
X179430000Y-97050000D02*
G75*
G02*
X192170000Y-97050000I6370000J0D01*
G01*
%TO.C,C1*%
X171020000Y-97510000D02*
G75*
G02*
X158280000Y-97510000I-6370000J0D01*
G01*
X158280000Y-97510000D02*
G75*
G02*
X171020000Y-97510000I6370000J0D01*
G01*
%TO.C,12Vin1*%
X170170000Y-104940000D02*
X170170000Y-112560000D01*
X170170000Y-106210000D02*
X180330000Y-106210000D01*
X170170000Y-112560000D02*
X180330000Y-112560000D01*
X180330000Y-104940000D02*
X170170000Y-104940000D01*
X180330000Y-112560000D02*
X180330000Y-104940000D01*
%TD*%
M02*
