%TF.GenerationSoftware,KiCad,Pcbnew,8.0.5*%
%TF.CreationDate,2025-02-26T19:01:25+01:00*%
%TF.ProjectId,carte 5V,63617274-6520-4355-962e-6b696361645f,rev?*%
%TF.SameCoordinates,Original*%
%TF.FileFunction,Copper,L1,Top*%
%TF.FilePolarity,Positive*%
%FSLAX46Y46*%
G04 Gerber Fmt 4.6, Leading zero omitted, Abs format (unit mm)*
G04 Created by KiCad (PCBNEW 8.0.5) date 2025-02-26 19:01:25*
%MOMM*%
%LPD*%
G01*
G04 APERTURE LIST*
%TA.AperFunction,ComponentPad*%
%ADD10R,3.000000X3.000000*%
%TD*%
%TA.AperFunction,ComponentPad*%
%ADD11C,3.000000*%
%TD*%
%TA.AperFunction,ComponentPad*%
%ADD12O,1.600000X1.600000*%
%TD*%
%TA.AperFunction,ComponentPad*%
%ADD13R,1.600000X1.600000*%
%TD*%
%TA.AperFunction,ComponentPad*%
%ADD14C,1.600000*%
%TD*%
%TA.AperFunction,Conductor*%
%ADD15C,1.000000*%
%TD*%
%TA.AperFunction,Conductor*%
%ADD16C,2.500000*%
%TD*%
%TA.AperFunction,Conductor*%
%ADD17C,0.500000*%
%TD*%
G04 APERTURE END LIST*
D10*
%TO.P,ToI2C1,1,Pin_1*%
%TO.N,GND*%
X185020000Y-59500000D03*
D11*
%TO.P,ToI2C1,2,Pin_2*%
%TO.N,+5V*%
X190100000Y-59500000D03*
%TD*%
D10*
%TO.P,ToRasp1,1,Pin_1*%
%TO.N,+5V*%
X157450000Y-62290000D03*
D11*
%TO.P,ToRasp1,2*%
%TO.N,N/C*%
X157450000Y-57210000D03*
%TD*%
%TO.P,Teensy1,3,Pin_3*%
%TO.N,Enable1*%
X192000000Y-82580000D03*
%TO.P,Teensy1,2,Pin_2*%
%TO.N,Step1*%
X192000000Y-77500000D03*
D10*
%TO.P,Teensy1,1,Pin_1*%
%TO.N,Dir1*%
X192000000Y-72420000D03*
%TD*%
D11*
%TO.P,Moteurs1,4,Pin_4*%
%TO.N,1B1*%
X157500000Y-71340000D03*
%TO.P,Moteurs1,3,Pin_3*%
%TO.N,1A1*%
X157500000Y-76420000D03*
%TO.P,Moteurs1,2,Pin_2*%
%TO.N,2A1*%
X157500000Y-81500000D03*
D10*
%TO.P,Moteurs1,1,Pin_1*%
%TO.N,2B1*%
X157500000Y-86580000D03*
%TD*%
%TO.P,FromBC5V1,1,Pin_1*%
%TO.N,GND*%
X170710000Y-59400000D03*
D11*
%TO.P,FromBC5V1,2,Pin_2*%
%TO.N,+5V*%
X175790000Y-59400000D03*
%TD*%
D12*
%TO.P,Driver1,16,DIR*%
%TO.N,Dir1*%
X181360000Y-70110000D03*
%TO.P,Driver1,15,STEP*%
%TO.N,Step1*%
X181360000Y-72650000D03*
%TO.P,Driver1,14,~{SLEEP}*%
%TO.N,unconnected-(Driver1-~{SLEEP}-Pad14)*%
X181360000Y-75190000D03*
%TO.P,Driver1,13,~{RESET}*%
%TO.N,unconnected-(Driver1-~{RESET}-Pad13)*%
X181360000Y-77730000D03*
%TO.P,Driver1,12,MS3*%
%TO.N,GND*%
X181360000Y-80270000D03*
%TO.P,Driver1,11,MS2*%
X181360000Y-82810000D03*
%TO.P,Driver1,10,MS1*%
X181360000Y-85350000D03*
%TO.P,Driver1,9,~{ENABLE}*%
%TO.N,Enable1*%
X181360000Y-87890000D03*
%TO.P,Driver1,8,VMOT*%
%TO.N,+12V*%
X168660000Y-87890000D03*
%TO.P,Driver1,7,GND*%
%TO.N,GND*%
X168660000Y-85350000D03*
%TO.P,Driver1,6,2B*%
%TO.N,2B1*%
X168660000Y-82810000D03*
%TO.P,Driver1,5,2A*%
%TO.N,2A1*%
X168660000Y-80270000D03*
%TO.P,Driver1,4,1A*%
%TO.N,1A1*%
X168660000Y-77730000D03*
%TO.P,Driver1,3,1B*%
%TO.N,1B1*%
X168660000Y-75190000D03*
%TO.P,Driver1,2,VDD*%
%TO.N,+5V*%
X168660000Y-72650000D03*
D13*
%TO.P,Driver1,1,GND*%
%TO.N,GND*%
X168660000Y-70110000D03*
%TD*%
D14*
%TO.P,C2,2*%
%TO.N,GND*%
X185800000Y-94550000D03*
%TO.P,C2,1*%
%TO.N,+12V*%
X185800000Y-99550000D03*
%TD*%
%TO.P,C1,1*%
%TO.N,+12V*%
X164650000Y-100010000D03*
%TO.P,C1,2*%
%TO.N,GND*%
X164650000Y-95010000D03*
%TD*%
D11*
%TO.P,12Vin1,2,Pin_2*%
%TO.N,+12V*%
X172710000Y-108750000D03*
D10*
%TO.P,12Vin1,1,Pin_1*%
%TO.N,GND*%
X177790000Y-108750000D03*
%TD*%
D15*
%TO.N,+5V*%
X157450000Y-62950000D02*
X157450000Y-62290000D01*
X159800000Y-65300000D02*
X157450000Y-62950000D01*
D16*
%TO.N,+12V*%
X185800000Y-99550000D02*
X180310000Y-99550000D01*
X180310000Y-99550000D02*
X172710000Y-91950000D01*
X172710000Y-91950000D02*
X172710000Y-91940000D01*
X164650000Y-100010000D02*
X172710000Y-91950000D01*
X172710000Y-91940000D02*
X168660000Y-87890000D01*
X172710000Y-108750000D02*
X172710000Y-91940000D01*
D15*
%TO.N,+5V*%
X184350000Y-65250000D02*
X190100000Y-59500000D01*
X175790000Y-65250000D02*
X184350000Y-65250000D01*
X178140000Y-65300000D02*
X159800000Y-65300000D01*
X175790000Y-65250000D02*
X175790000Y-66651370D01*
X175790000Y-59400000D02*
X175790000Y-65250000D01*
X169791370Y-72650000D02*
X168660000Y-72650000D01*
X175790000Y-66651370D02*
X169791370Y-72650000D01*
%TO.N,Enable1*%
X186690000Y-87890000D02*
X181360000Y-87890000D01*
X192000000Y-82580000D02*
X186690000Y-87890000D01*
%TO.N,Dir1*%
X189690000Y-70110000D02*
X181360000Y-70110000D01*
X192000000Y-72420000D02*
X189690000Y-70110000D01*
%TO.N,Step1*%
X191000000Y-77500000D02*
X186150000Y-72650000D01*
X186150000Y-72650000D02*
X181360000Y-72650000D01*
X192000000Y-77500000D02*
X191000000Y-77500000D01*
%TO.N,2B1*%
X161270000Y-82810000D02*
X157500000Y-86580000D01*
X168660000Y-82810000D02*
X161270000Y-82810000D01*
%TO.N,2A1*%
X158730000Y-80270000D02*
X157500000Y-81500000D01*
X168660000Y-80270000D02*
X158730000Y-80270000D01*
%TO.N,1A1*%
X158810000Y-77730000D02*
X157500000Y-76420000D01*
X168660000Y-77730000D02*
X158810000Y-77730000D01*
%TO.N,1B1*%
X161350000Y-75190000D02*
X157500000Y-71340000D01*
X168660000Y-75190000D02*
X161350000Y-75190000D01*
D17*
%TO.N,+5V*%
X157790000Y-62630000D02*
X157450000Y-62290000D01*
%TD*%
M02*
