M48
; DRILL file {KiCad 8.0.5} date 2025-02-26T19:01:21+0100
; FORMAT={-:-/ absolute / metric / decimal}
; #@! TF.CreationDate,2025-02-26T19:01:21+01:00
; #@! TF.GenerationSoftware,Kicad,Pcbnew,8.0.5
; #@! TF.FileFunction,Plated,1,2,PTH
FMAT,2
METRIC
; #@! TA.AperFunction,Plated,PTH,ComponentDrill
T1C0.800
; #@! TA.AperFunction,Plated,PTH,ComponentDrill
T2C1.520
%
G90
G05
T1
X164.65Y-95.01
X164.65Y-100.01
X168.66Y-70.11
X168.66Y-72.65
X168.66Y-75.19
X168.66Y-77.73
X168.66Y-80.27
X168.66Y-82.81
X168.66Y-85.35
X168.66Y-87.89
X181.36Y-70.11
X181.36Y-72.65
X181.36Y-75.19
X181.36Y-77.73
X181.36Y-80.27
X181.36Y-82.81
X181.36Y-85.35
X181.36Y-87.89
X185.8Y-94.55
X185.8Y-99.55
T2
X157.45Y-57.21
X157.45Y-62.29
X157.5Y-71.34
X157.5Y-76.42
X157.5Y-81.5
X157.5Y-86.58
X170.71Y-59.4
X172.71Y-108.75
X175.79Y-59.4
X177.79Y-108.75
X185.02Y-59.5
X190.1Y-59.5
X192.0Y-72.42
X192.0Y-77.5
X192.0Y-82.58
M30
