%TF.GenerationSoftware,KiCad,Pcbnew,8.0.5*%
%TF.CreationDate,2025-02-26T19:01:25+01:00*%
%TF.ProjectId,carte 5V,63617274-6520-4355-962e-6b696361645f,rev?*%
%TF.SameCoordinates,Original*%
%TF.FileFunction,Copper,L2,Bot*%
%TF.FilePolarity,Positive*%
%FSLAX46Y46*%
G04 Gerber Fmt 4.6, Leading zero omitted, Abs format (unit mm)*
G04 Created by KiCad (PCBNEW 8.0.5) date 2025-02-26 19:01:25*
%MOMM*%
%LPD*%
G01*
G04 APERTURE LIST*
%TA.AperFunction,ComponentPad*%
%ADD10R,3.000000X3.000000*%
%TD*%
%TA.AperFunction,ComponentPad*%
%ADD11C,3.000000*%
%TD*%
%TA.AperFunction,ComponentPad*%
%ADD12O,1.600000X1.600000*%
%TD*%
%TA.AperFunction,ComponentPad*%
%ADD13R,1.600000X1.600000*%
%TD*%
%TA.AperFunction,ComponentPad*%
%ADD14C,1.600000*%
%TD*%
G04 APERTURE END LIST*
D10*
%TO.P,ToI2C1,1,Pin_1*%
%TO.N,GND*%
X185020000Y-59500000D03*
D11*
%TO.P,ToI2C1,2,Pin_2*%
%TO.N,+5V*%
X190100000Y-59500000D03*
%TD*%
D10*
%TO.P,ToRasp1,1,Pin_1*%
%TO.N,+5V*%
X157450000Y-62290000D03*
D11*
%TO.P,ToRasp1,2*%
%TO.N,N/C*%
X157450000Y-57210000D03*
%TD*%
%TO.P,Teensy1,3,Pin_3*%
%TO.N,Enable1*%
X192000000Y-82580000D03*
%TO.P,Teensy1,2,Pin_2*%
%TO.N,Step1*%
X192000000Y-77500000D03*
D10*
%TO.P,Teensy1,1,Pin_1*%
%TO.N,Dir1*%
X192000000Y-72420000D03*
%TD*%
D11*
%TO.P,Moteurs1,4,Pin_4*%
%TO.N,1B1*%
X157500000Y-71340000D03*
%TO.P,Moteurs1,3,Pin_3*%
%TO.N,1A1*%
X157500000Y-76420000D03*
%TO.P,Moteurs1,2,Pin_2*%
%TO.N,2A1*%
X157500000Y-81500000D03*
D10*
%TO.P,Moteurs1,1,Pin_1*%
%TO.N,2B1*%
X157500000Y-86580000D03*
%TD*%
%TO.P,FromBC5V1,1,Pin_1*%
%TO.N,GND*%
X170710000Y-59400000D03*
D11*
%TO.P,FromBC5V1,2,Pin_2*%
%TO.N,+5V*%
X175790000Y-59400000D03*
%TD*%
D12*
%TO.P,Driver1,16,DIR*%
%TO.N,Dir1*%
X181360000Y-70110000D03*
%TO.P,Driver1,15,STEP*%
%TO.N,Step1*%
X181360000Y-72650000D03*
%TO.P,Driver1,14,~{SLEEP}*%
%TO.N,unconnected-(Driver1-~{SLEEP}-Pad14)*%
X181360000Y-75190000D03*
%TO.P,Driver1,13,~{RESET}*%
%TO.N,unconnected-(Driver1-~{RESET}-Pad13)*%
X181360000Y-77730000D03*
%TO.P,Driver1,12,MS3*%
%TO.N,GND*%
X181360000Y-80270000D03*
%TO.P,Driver1,11,MS2*%
X181360000Y-82810000D03*
%TO.P,Driver1,10,MS1*%
X181360000Y-85350000D03*
%TO.P,Driver1,9,~{ENABLE}*%
%TO.N,Enable1*%
X181360000Y-87890000D03*
%TO.P,Driver1,8,VMOT*%
%TO.N,+12V*%
X168660000Y-87890000D03*
%TO.P,Driver1,7,GND*%
%TO.N,GND*%
X168660000Y-85350000D03*
%TO.P,Driver1,6,2B*%
%TO.N,2B1*%
X168660000Y-82810000D03*
%TO.P,Driver1,5,2A*%
%TO.N,2A1*%
X168660000Y-80270000D03*
%TO.P,Driver1,4,1A*%
%TO.N,1A1*%
X168660000Y-77730000D03*
%TO.P,Driver1,3,1B*%
%TO.N,1B1*%
X168660000Y-75190000D03*
%TO.P,Driver1,2,VDD*%
%TO.N,+5V*%
X168660000Y-72650000D03*
D13*
%TO.P,Driver1,1,GND*%
%TO.N,GND*%
X168660000Y-70110000D03*
%TD*%
D14*
%TO.P,C2,2*%
%TO.N,GND*%
X185800000Y-94550000D03*
%TO.P,C2,1*%
%TO.N,+12V*%
X185800000Y-99550000D03*
%TD*%
%TO.P,C1,1*%
%TO.N,+12V*%
X164650000Y-100010000D03*
%TO.P,C1,2*%
%TO.N,GND*%
X164650000Y-95010000D03*
%TD*%
D11*
%TO.P,12Vin1,2,Pin_2*%
%TO.N,+12V*%
X172710000Y-108750000D03*
D10*
%TO.P,12Vin1,1,Pin_1*%
%TO.N,GND*%
X177790000Y-108750000D03*
%TD*%
%TA.AperFunction,Conductor*%
%TO.N,GND*%
G36*
X181610000Y-85034314D02*
G01*
X181605606Y-85029920D01*
X181514394Y-84977259D01*
X181412661Y-84950000D01*
X181307339Y-84950000D01*
X181205606Y-84977259D01*
X181114394Y-85029920D01*
X181110000Y-85034314D01*
X181110000Y-83125686D01*
X181114394Y-83130080D01*
X181205606Y-83182741D01*
X181307339Y-83210000D01*
X181412661Y-83210000D01*
X181514394Y-83182741D01*
X181605606Y-83130080D01*
X181610000Y-83125686D01*
X181610000Y-85034314D01*
G37*
%TD.AperFunction*%
%TA.AperFunction,Conductor*%
G36*
X181610000Y-82494314D02*
G01*
X181605606Y-82489920D01*
X181514394Y-82437259D01*
X181412661Y-82410000D01*
X181307339Y-82410000D01*
X181205606Y-82437259D01*
X181114394Y-82489920D01*
X181110000Y-82494314D01*
X181110000Y-80585686D01*
X181114394Y-80590080D01*
X181205606Y-80642741D01*
X181307339Y-80670000D01*
X181412661Y-80670000D01*
X181514394Y-80642741D01*
X181605606Y-80590080D01*
X181610000Y-80585686D01*
X181610000Y-82494314D01*
G37*
%TD.AperFunction*%
%TA.AperFunction,Conductor*%
G36*
X197942539Y-53020185D02*
G01*
X197988294Y-53072989D01*
X197999500Y-53124500D01*
X197999500Y-113375500D01*
X197979815Y-113442539D01*
X197927011Y-113488294D01*
X197875500Y-113499500D01*
X150124500Y-113499500D01*
X150057461Y-113479815D01*
X150011706Y-113427011D01*
X150000500Y-113375500D01*
X150000500Y-108749998D01*
X170704390Y-108749998D01*
X170704390Y-108750001D01*
X170724804Y-109035433D01*
X170785628Y-109315037D01*
X170785630Y-109315043D01*
X170785631Y-109315046D01*
X170847452Y-109480793D01*
X170885635Y-109583166D01*
X171022770Y-109834309D01*
X171022775Y-109834317D01*
X171194254Y-110063387D01*
X171194270Y-110063405D01*
X171396594Y-110265729D01*
X171396612Y-110265745D01*
X171625682Y-110437224D01*
X171625690Y-110437229D01*
X171876833Y-110574364D01*
X171876832Y-110574364D01*
X171876836Y-110574365D01*
X171876839Y-110574367D01*
X172144954Y-110674369D01*
X172144960Y-110674370D01*
X172144962Y-110674371D01*
X172424566Y-110735195D01*
X172424568Y-110735195D01*
X172424572Y-110735196D01*
X172678220Y-110753337D01*
X172709999Y-110755610D01*
X172710000Y-110755610D01*
X172710001Y-110755610D01*
X172738595Y-110753564D01*
X172995428Y-110735196D01*
X173275046Y-110674369D01*
X173543161Y-110574367D01*
X173794315Y-110437226D01*
X174023395Y-110265739D01*
X174225739Y-110063395D01*
X174397226Y-109834315D01*
X174534367Y-109583161D01*
X174634369Y-109315046D01*
X174695196Y-109035428D01*
X174715610Y-108750000D01*
X174695196Y-108464572D01*
X174634369Y-108184954D01*
X174534367Y-107916839D01*
X174397226Y-107665685D01*
X174397224Y-107665682D01*
X174225745Y-107436612D01*
X174225729Y-107436594D01*
X174023405Y-107234270D01*
X174023387Y-107234254D01*
X173980508Y-107202155D01*
X175790000Y-107202155D01*
X175790000Y-108500000D01*
X177070936Y-108500000D01*
X177059207Y-108528316D01*
X177030000Y-108675147D01*
X177030000Y-108824853D01*
X177059207Y-108971684D01*
X177070936Y-109000000D01*
X175790000Y-109000000D01*
X175790000Y-110297844D01*
X175796401Y-110357372D01*
X175796403Y-110357379D01*
X175846645Y-110492086D01*
X175846649Y-110492093D01*
X175932809Y-110607187D01*
X175932812Y-110607190D01*
X176047906Y-110693350D01*
X176047913Y-110693354D01*
X176182620Y-110743596D01*
X176182627Y-110743598D01*
X176242155Y-110749999D01*
X176242172Y-110750000D01*
X177540000Y-110750000D01*
X177540000Y-109469064D01*
X177568316Y-109480793D01*
X177715147Y-109510000D01*
X177864853Y-109510000D01*
X178011684Y-109480793D01*
X178040000Y-109469064D01*
X178040000Y-110750000D01*
X179337828Y-110750000D01*
X179337844Y-110749999D01*
X179397372Y-110743598D01*
X179397379Y-110743596D01*
X179532086Y-110693354D01*
X179532093Y-110693350D01*
X179647187Y-110607190D01*
X179647190Y-110607187D01*
X179733350Y-110492093D01*
X179733354Y-110492086D01*
X179783596Y-110357379D01*
X179783598Y-110357372D01*
X179789999Y-110297844D01*
X179790000Y-110297827D01*
X179790000Y-109000000D01*
X178509064Y-109000000D01*
X178520793Y-108971684D01*
X178550000Y-108824853D01*
X178550000Y-108675147D01*
X178520793Y-108528316D01*
X178509064Y-108500000D01*
X179790000Y-108500000D01*
X179790000Y-107202172D01*
X179789999Y-107202155D01*
X179783598Y-107142627D01*
X179783596Y-107142620D01*
X179733354Y-107007913D01*
X179733350Y-107007906D01*
X179647190Y-106892812D01*
X179647187Y-106892809D01*
X179532093Y-106806649D01*
X179532086Y-106806645D01*
X179397379Y-106756403D01*
X179397372Y-106756401D01*
X179337844Y-106750000D01*
X178040000Y-106750000D01*
X178040000Y-108030935D01*
X178011684Y-108019207D01*
X177864853Y-107990000D01*
X177715147Y-107990000D01*
X177568316Y-108019207D01*
X177540000Y-108030935D01*
X177540000Y-106750000D01*
X176242155Y-106750000D01*
X176182627Y-106756401D01*
X176182620Y-106756403D01*
X176047913Y-106806645D01*
X176047906Y-106806649D01*
X175932812Y-106892809D01*
X175932809Y-106892812D01*
X175846649Y-107007906D01*
X175846645Y-107007913D01*
X175796403Y-107142620D01*
X175796401Y-107142627D01*
X175790000Y-107202155D01*
X173980508Y-107202155D01*
X173794317Y-107062775D01*
X173794309Y-107062770D01*
X173543166Y-106925635D01*
X173543167Y-106925635D01*
X173435915Y-106885632D01*
X173275046Y-106825631D01*
X173275043Y-106825630D01*
X173275037Y-106825628D01*
X172995433Y-106764804D01*
X172710001Y-106744390D01*
X172709999Y-106744390D01*
X172424566Y-106764804D01*
X172144962Y-106825628D01*
X171876833Y-106925635D01*
X171625690Y-107062770D01*
X171625682Y-107062775D01*
X171396612Y-107234254D01*
X171396594Y-107234270D01*
X171194270Y-107436594D01*
X171194254Y-107436612D01*
X171022775Y-107665682D01*
X171022770Y-107665690D01*
X170885635Y-107916833D01*
X170785628Y-108184962D01*
X170724804Y-108464566D01*
X170704390Y-108749998D01*
X150000500Y-108749998D01*
X150000500Y-100009998D01*
X163344532Y-100009998D01*
X163344532Y-100010001D01*
X163364364Y-100236686D01*
X163364366Y-100236697D01*
X163423258Y-100456488D01*
X163423261Y-100456497D01*
X163519431Y-100662732D01*
X163519432Y-100662734D01*
X163649954Y-100849141D01*
X163810858Y-101010045D01*
X163810861Y-101010047D01*
X163997266Y-101140568D01*
X164203504Y-101236739D01*
X164423308Y-101295635D01*
X164585230Y-101309801D01*
X164649998Y-101315468D01*
X164650000Y-101315468D01*
X164650002Y-101315468D01*
X164706673Y-101310509D01*
X164876692Y-101295635D01*
X165096496Y-101236739D01*
X165302734Y-101140568D01*
X165489139Y-101010047D01*
X165650047Y-100849139D01*
X165780568Y-100662734D01*
X165876739Y-100456496D01*
X165935635Y-100236692D01*
X165955468Y-100010000D01*
X165935635Y-99783308D01*
X165876739Y-99563504D01*
X165870441Y-99549998D01*
X184494532Y-99549998D01*
X184494532Y-99550001D01*
X184514364Y-99776686D01*
X184514366Y-99776697D01*
X184573258Y-99996488D01*
X184573261Y-99996497D01*
X184669431Y-100202732D01*
X184669432Y-100202734D01*
X184799954Y-100389141D01*
X184960858Y-100550045D01*
X184960861Y-100550047D01*
X185147266Y-100680568D01*
X185353504Y-100776739D01*
X185573308Y-100835635D01*
X185727682Y-100849141D01*
X185799998Y-100855468D01*
X185800000Y-100855468D01*
X185800002Y-100855468D01*
X185856673Y-100850509D01*
X186026692Y-100835635D01*
X186246496Y-100776739D01*
X186452734Y-100680568D01*
X186639139Y-100550047D01*
X186800047Y-100389139D01*
X186930568Y-100202734D01*
X187026739Y-99996496D01*
X187085635Y-99776692D01*
X187105468Y-99550000D01*
X187085635Y-99323308D01*
X187026739Y-99103504D01*
X186930568Y-98897266D01*
X186800047Y-98710861D01*
X186800045Y-98710858D01*
X186639141Y-98549954D01*
X186452734Y-98419432D01*
X186452732Y-98419431D01*
X186246497Y-98323261D01*
X186246488Y-98323258D01*
X186026697Y-98264366D01*
X186026693Y-98264365D01*
X186026692Y-98264365D01*
X186026691Y-98264364D01*
X186026686Y-98264364D01*
X185800002Y-98244532D01*
X185799998Y-98244532D01*
X185573313Y-98264364D01*
X185573302Y-98264366D01*
X185353511Y-98323258D01*
X185353502Y-98323261D01*
X185147267Y-98419431D01*
X185147265Y-98419432D01*
X184960858Y-98549954D01*
X184799954Y-98710858D01*
X184669432Y-98897265D01*
X184669431Y-98897267D01*
X184573261Y-99103502D01*
X184573258Y-99103511D01*
X184514366Y-99323302D01*
X184514364Y-99323313D01*
X184494532Y-99549998D01*
X165870441Y-99549998D01*
X165780568Y-99357266D01*
X165650047Y-99170861D01*
X165650045Y-99170858D01*
X165489141Y-99009954D01*
X165302734Y-98879432D01*
X165302732Y-98879431D01*
X165096497Y-98783261D01*
X165096488Y-98783258D01*
X164876697Y-98724366D01*
X164876693Y-98724365D01*
X164876692Y-98724365D01*
X164876691Y-98724364D01*
X164876686Y-98724364D01*
X164650002Y-98704532D01*
X164649998Y-98704532D01*
X164423313Y-98724364D01*
X164423302Y-98724366D01*
X164203511Y-98783258D01*
X164203502Y-98783261D01*
X163997267Y-98879431D01*
X163997265Y-98879432D01*
X163810858Y-99009954D01*
X163649954Y-99170858D01*
X163519432Y-99357265D01*
X163519431Y-99357267D01*
X163423261Y-99563502D01*
X163423258Y-99563511D01*
X163364366Y-99783302D01*
X163364364Y-99783313D01*
X163344532Y-100009998D01*
X150000500Y-100009998D01*
X150000500Y-95009997D01*
X163345034Y-95009997D01*
X163345034Y-95010002D01*
X163364858Y-95236599D01*
X163364860Y-95236610D01*
X163423730Y-95456317D01*
X163423735Y-95456331D01*
X163519863Y-95662478D01*
X163570974Y-95735472D01*
X164250000Y-95056446D01*
X164250000Y-95062661D01*
X164277259Y-95164394D01*
X164329920Y-95255606D01*
X164404394Y-95330080D01*
X164495606Y-95382741D01*
X164597339Y-95410000D01*
X164603553Y-95410000D01*
X163924526Y-96089025D01*
X163997513Y-96140132D01*
X163997521Y-96140136D01*
X164203668Y-96236264D01*
X164203682Y-96236269D01*
X164423389Y-96295139D01*
X164423400Y-96295141D01*
X164649998Y-96314966D01*
X164650002Y-96314966D01*
X164876599Y-96295141D01*
X164876610Y-96295139D01*
X165096317Y-96236269D01*
X165096331Y-96236264D01*
X165302478Y-96140136D01*
X165375471Y-96089024D01*
X164696447Y-95410000D01*
X164702661Y-95410000D01*
X164804394Y-95382741D01*
X164895606Y-95330080D01*
X164970080Y-95255606D01*
X165022741Y-95164394D01*
X165050000Y-95062661D01*
X165050000Y-95056447D01*
X165729024Y-95735471D01*
X165780136Y-95662478D01*
X165876264Y-95456331D01*
X165876269Y-95456317D01*
X165935139Y-95236610D01*
X165935141Y-95236599D01*
X165954966Y-95010002D01*
X165954966Y-95009997D01*
X165935141Y-94783400D01*
X165935139Y-94783389D01*
X165876269Y-94563682D01*
X165876264Y-94563668D01*
X165869889Y-94549997D01*
X184495034Y-94549997D01*
X184495034Y-94550002D01*
X184514858Y-94776599D01*
X184514860Y-94776610D01*
X184573730Y-94996317D01*
X184573735Y-94996331D01*
X184669863Y-95202478D01*
X184720974Y-95275472D01*
X185400000Y-94596446D01*
X185400000Y-94602661D01*
X185427259Y-94704394D01*
X185479920Y-94795606D01*
X185554394Y-94870080D01*
X185645606Y-94922741D01*
X185747339Y-94950000D01*
X185753553Y-94950000D01*
X185074526Y-95629025D01*
X185147513Y-95680132D01*
X185147521Y-95680136D01*
X185353668Y-95776264D01*
X185353682Y-95776269D01*
X185573389Y-95835139D01*
X185573400Y-95835141D01*
X185799998Y-95854966D01*
X185800002Y-95854966D01*
X186026599Y-95835141D01*
X186026610Y-95835139D01*
X186246317Y-95776269D01*
X186246331Y-95776264D01*
X186452478Y-95680136D01*
X186525471Y-95629024D01*
X185846447Y-94950000D01*
X185852661Y-94950000D01*
X185954394Y-94922741D01*
X186045606Y-94870080D01*
X186120080Y-94795606D01*
X186172741Y-94704394D01*
X186200000Y-94602661D01*
X186200000Y-94596447D01*
X186879024Y-95275471D01*
X186930136Y-95202478D01*
X187026264Y-94996331D01*
X187026269Y-94996317D01*
X187085139Y-94776610D01*
X187085141Y-94776599D01*
X187104966Y-94550002D01*
X187104966Y-94549997D01*
X187085141Y-94323400D01*
X187085139Y-94323389D01*
X187026269Y-94103682D01*
X187026264Y-94103668D01*
X186930136Y-93897521D01*
X186930132Y-93897513D01*
X186879025Y-93824526D01*
X186200000Y-94503551D01*
X186200000Y-94497339D01*
X186172741Y-94395606D01*
X186120080Y-94304394D01*
X186045606Y-94229920D01*
X185954394Y-94177259D01*
X185852661Y-94150000D01*
X185846448Y-94150000D01*
X186525472Y-93470974D01*
X186452478Y-93419863D01*
X186246331Y-93323735D01*
X186246317Y-93323730D01*
X186026610Y-93264860D01*
X186026599Y-93264858D01*
X185800002Y-93245034D01*
X185799998Y-93245034D01*
X185573400Y-93264858D01*
X185573389Y-93264860D01*
X185353682Y-93323730D01*
X185353673Y-93323734D01*
X185147516Y-93419866D01*
X185147512Y-93419868D01*
X185074526Y-93470973D01*
X185074526Y-93470974D01*
X185753553Y-94150000D01*
X185747339Y-94150000D01*
X185645606Y-94177259D01*
X185554394Y-94229920D01*
X185479920Y-94304394D01*
X185427259Y-94395606D01*
X185400000Y-94497339D01*
X185400000Y-94503552D01*
X184720974Y-93824526D01*
X184720973Y-93824526D01*
X184669868Y-93897512D01*
X184669866Y-93897516D01*
X184573734Y-94103673D01*
X184573730Y-94103682D01*
X184514860Y-94323389D01*
X184514858Y-94323400D01*
X184495034Y-94549997D01*
X165869889Y-94549997D01*
X165780136Y-94357521D01*
X165780132Y-94357513D01*
X165729025Y-94284526D01*
X165050000Y-94963551D01*
X165050000Y-94957339D01*
X165022741Y-94855606D01*
X164970080Y-94764394D01*
X164895606Y-94689920D01*
X164804394Y-94637259D01*
X164702661Y-94610000D01*
X164696448Y-94610000D01*
X165375472Y-93930974D01*
X165302478Y-93879863D01*
X165096331Y-93783735D01*
X165096317Y-93783730D01*
X164876610Y-93724860D01*
X164876599Y-93724858D01*
X164650002Y-93705034D01*
X164649998Y-93705034D01*
X164423400Y-93724858D01*
X164423389Y-93724860D01*
X164203682Y-93783730D01*
X164203673Y-93783734D01*
X163997516Y-93879866D01*
X163997512Y-93879868D01*
X163924526Y-93930973D01*
X163924526Y-93930974D01*
X164603553Y-94610000D01*
X164597339Y-94610000D01*
X164495606Y-94637259D01*
X164404394Y-94689920D01*
X164329920Y-94764394D01*
X164277259Y-94855606D01*
X164250000Y-94957339D01*
X164250000Y-94963552D01*
X163570974Y-94284526D01*
X163570973Y-94284526D01*
X163519868Y-94357512D01*
X163519866Y-94357516D01*
X163423734Y-94563673D01*
X163423730Y-94563682D01*
X163364860Y-94783389D01*
X163364858Y-94783400D01*
X163345034Y-95009997D01*
X150000500Y-95009997D01*
X150000500Y-85032135D01*
X155499500Y-85032135D01*
X155499500Y-88127870D01*
X155499501Y-88127876D01*
X155505908Y-88187483D01*
X155556202Y-88322328D01*
X155556206Y-88322335D01*
X155642452Y-88437544D01*
X155642455Y-88437547D01*
X155757664Y-88523793D01*
X155757671Y-88523797D01*
X155892517Y-88574091D01*
X155892516Y-88574091D01*
X155899444Y-88574835D01*
X155952127Y-88580500D01*
X159047872Y-88580499D01*
X159107483Y-88574091D01*
X159242331Y-88523796D01*
X159357546Y-88437546D01*
X159443796Y-88322331D01*
X159494091Y-88187483D01*
X159500500Y-88127873D01*
X159500499Y-85032128D01*
X159494091Y-84972517D01*
X159468417Y-84903682D01*
X159443797Y-84837671D01*
X159443793Y-84837664D01*
X159357547Y-84722455D01*
X159357544Y-84722452D01*
X159242335Y-84636206D01*
X159242328Y-84636202D01*
X159107482Y-84585908D01*
X159107483Y-84585908D01*
X159047883Y-84579501D01*
X159047881Y-84579500D01*
X159047873Y-84579500D01*
X159047864Y-84579500D01*
X155952129Y-84579500D01*
X155952123Y-84579501D01*
X155892516Y-84585908D01*
X155757671Y-84636202D01*
X155757664Y-84636206D01*
X155642455Y-84722452D01*
X155642452Y-84722455D01*
X155556206Y-84837664D01*
X155556202Y-84837671D01*
X155505908Y-84972517D01*
X155499737Y-85029920D01*
X155499501Y-85032123D01*
X155499500Y-85032135D01*
X150000500Y-85032135D01*
X150000500Y-81499998D01*
X155494390Y-81499998D01*
X155494390Y-81500001D01*
X155514804Y-81785433D01*
X155575628Y-82065037D01*
X155575630Y-82065043D01*
X155575631Y-82065046D01*
X155610028Y-82157267D01*
X155675635Y-82333166D01*
X155812770Y-82584309D01*
X155812775Y-82584317D01*
X155984254Y-82813387D01*
X155984270Y-82813405D01*
X156186594Y-83015729D01*
X156186612Y-83015745D01*
X156415682Y-83187224D01*
X156415690Y-83187229D01*
X156666833Y-83324364D01*
X156666832Y-83324364D01*
X156666836Y-83324365D01*
X156666839Y-83324367D01*
X156934954Y-83424369D01*
X156934960Y-83424370D01*
X156934962Y-83424371D01*
X157214566Y-83485195D01*
X157214568Y-83485195D01*
X157214572Y-83485196D01*
X157468220Y-83503337D01*
X157499999Y-83505610D01*
X157500000Y-83505610D01*
X157500001Y-83505610D01*
X157528595Y-83503564D01*
X157785428Y-83485196D01*
X157888685Y-83462734D01*
X158065037Y-83424371D01*
X158065037Y-83424370D01*
X158065046Y-83424369D01*
X158333161Y-83324367D01*
X158584315Y-83187226D01*
X158813395Y-83015739D01*
X159015739Y-82813395D01*
X159187226Y-82584315D01*
X159324367Y-82333161D01*
X159424369Y-82065046D01*
X159435266Y-82014954D01*
X159485195Y-81785433D01*
X159485195Y-81785432D01*
X159485196Y-81785428D01*
X159505610Y-81500000D01*
X159505301Y-81495685D01*
X159498499Y-81400570D01*
X159485196Y-81214572D01*
X159452496Y-81064254D01*
X159424371Y-80934962D01*
X159424370Y-80934960D01*
X159424369Y-80934954D01*
X159324367Y-80666839D01*
X159318245Y-80655628D01*
X159187229Y-80415690D01*
X159187224Y-80415682D01*
X159015745Y-80186612D01*
X159015729Y-80186594D01*
X158813405Y-79984270D01*
X158813387Y-79984254D01*
X158584317Y-79812775D01*
X158584309Y-79812770D01*
X158333166Y-79675635D01*
X158333167Y-79675635D01*
X158176673Y-79617266D01*
X158065046Y-79575631D01*
X158065043Y-79575630D01*
X158065037Y-79575628D01*
X157785433Y-79514804D01*
X157500001Y-79494390D01*
X157499999Y-79494390D01*
X157214566Y-79514804D01*
X156934962Y-79575628D01*
X156666833Y-79675635D01*
X156415690Y-79812770D01*
X156415682Y-79812775D01*
X156186612Y-79984254D01*
X156186594Y-79984270D01*
X155984270Y-80186594D01*
X155984254Y-80186612D01*
X155812775Y-80415682D01*
X155812770Y-80415690D01*
X155675635Y-80666833D01*
X155575628Y-80934962D01*
X155514804Y-81214566D01*
X155494390Y-81499998D01*
X150000500Y-81499998D01*
X150000500Y-76419998D01*
X155494390Y-76419998D01*
X155494390Y-76420001D01*
X155514804Y-76705433D01*
X155575628Y-76985037D01*
X155575630Y-76985043D01*
X155575631Y-76985046D01*
X155610028Y-77077267D01*
X155675635Y-77253166D01*
X155812770Y-77504309D01*
X155812775Y-77504317D01*
X155984254Y-77733387D01*
X155984270Y-77733405D01*
X156186594Y-77935729D01*
X156186612Y-77935745D01*
X156415682Y-78107224D01*
X156415690Y-78107229D01*
X156666833Y-78244364D01*
X156666832Y-78244364D01*
X156666836Y-78244365D01*
X156666839Y-78244367D01*
X156934954Y-78344369D01*
X156934960Y-78344370D01*
X156934962Y-78344371D01*
X157214566Y-78405195D01*
X157214568Y-78405195D01*
X157214572Y-78405196D01*
X157468220Y-78423337D01*
X157499999Y-78425610D01*
X157500000Y-78425610D01*
X157500001Y-78425610D01*
X157528595Y-78423564D01*
X157785428Y-78405196D01*
X157888685Y-78382734D01*
X158065037Y-78344371D01*
X158065037Y-78344370D01*
X158065046Y-78344369D01*
X158333161Y-78244367D01*
X158584315Y-78107226D01*
X158813395Y-77935739D01*
X159015739Y-77733395D01*
X159187226Y-77504315D01*
X159324367Y-77253161D01*
X159424369Y-76985046D01*
X159485196Y-76705428D01*
X159505610Y-76420000D01*
X159505301Y-76415685D01*
X159498499Y-76320570D01*
X159485196Y-76134572D01*
X159452496Y-75984254D01*
X159424371Y-75854962D01*
X159424370Y-75854960D01*
X159424369Y-75854954D01*
X159324367Y-75586839D01*
X159318245Y-75575628D01*
X159187229Y-75335690D01*
X159187224Y-75335682D01*
X159015745Y-75106612D01*
X159015729Y-75106594D01*
X158813405Y-74904270D01*
X158813387Y-74904254D01*
X158584317Y-74732775D01*
X158584309Y-74732770D01*
X158333166Y-74595635D01*
X158333167Y-74595635D01*
X158176673Y-74537266D01*
X158065046Y-74495631D01*
X158065043Y-74495630D01*
X158065037Y-74495628D01*
X157785433Y-74434804D01*
X157500001Y-74414390D01*
X157499999Y-74414390D01*
X157214566Y-74434804D01*
X156934962Y-74495628D01*
X156666833Y-74595635D01*
X156415690Y-74732770D01*
X156415682Y-74732775D01*
X156186612Y-74904254D01*
X156186594Y-74904270D01*
X155984270Y-75106594D01*
X155984254Y-75106612D01*
X155812775Y-75335682D01*
X155812770Y-75335690D01*
X155675635Y-75586833D01*
X155575628Y-75854962D01*
X155514804Y-76134566D01*
X155494390Y-76419998D01*
X150000500Y-76419998D01*
X150000500Y-71339998D01*
X155494390Y-71339998D01*
X155494390Y-71340001D01*
X155514804Y-71625433D01*
X155575628Y-71905037D01*
X155575630Y-71905043D01*
X155575631Y-71905046D01*
X155610028Y-71997267D01*
X155675635Y-72173166D01*
X155812770Y-72424309D01*
X155812775Y-72424317D01*
X155984254Y-72653387D01*
X155984270Y-72653405D01*
X156186594Y-72855729D01*
X156186612Y-72855745D01*
X156415682Y-73027224D01*
X156415690Y-73027229D01*
X156666833Y-73164364D01*
X156666832Y-73164364D01*
X156666836Y-73164365D01*
X156666839Y-73164367D01*
X156934954Y-73264369D01*
X156934960Y-73264370D01*
X156934962Y-73264371D01*
X157214566Y-73325195D01*
X157214568Y-73325195D01*
X157214572Y-73325196D01*
X157468220Y-73343337D01*
X157499999Y-73345610D01*
X157500000Y-73345610D01*
X157500001Y-73345610D01*
X157528595Y-73343564D01*
X157785428Y-73325196D01*
X157888685Y-73302734D01*
X158065037Y-73264371D01*
X158065037Y-73264370D01*
X158065046Y-73264369D01*
X158333161Y-73164367D01*
X158584315Y-73027226D01*
X158813395Y-72855739D01*
X159015739Y-72653395D01*
X159018282Y-72649998D01*
X167354532Y-72649998D01*
X167354532Y-72650001D01*
X167374364Y-72876686D01*
X167374366Y-72876697D01*
X167433258Y-73096488D01*
X167433261Y-73096497D01*
X167529431Y-73302732D01*
X167529432Y-73302734D01*
X167659954Y-73489141D01*
X167820858Y-73650045D01*
X167820861Y-73650047D01*
X168007266Y-73780568D01*
X168065275Y-73807618D01*
X168117714Y-73853791D01*
X168136866Y-73920984D01*
X168116650Y-73987865D01*
X168065275Y-74032382D01*
X168007267Y-74059431D01*
X168007265Y-74059432D01*
X167820858Y-74189954D01*
X167659954Y-74350858D01*
X167529432Y-74537265D01*
X167529431Y-74537267D01*
X167433261Y-74743502D01*
X167433258Y-74743511D01*
X167374366Y-74963302D01*
X167374364Y-74963313D01*
X167354532Y-75189998D01*
X167354532Y-75190001D01*
X167374364Y-75416686D01*
X167374366Y-75416697D01*
X167433258Y-75636488D01*
X167433261Y-75636497D01*
X167529431Y-75842732D01*
X167529432Y-75842734D01*
X167659954Y-76029141D01*
X167820858Y-76190045D01*
X167820861Y-76190047D01*
X168007266Y-76320568D01*
X168065275Y-76347618D01*
X168117714Y-76393791D01*
X168136866Y-76460984D01*
X168116650Y-76527865D01*
X168065275Y-76572382D01*
X168007267Y-76599431D01*
X168007265Y-76599432D01*
X167820858Y-76729954D01*
X167659954Y-76890858D01*
X167529432Y-77077265D01*
X167529431Y-77077267D01*
X167433261Y-77283502D01*
X167433258Y-77283511D01*
X167374366Y-77503302D01*
X167374364Y-77503313D01*
X167354532Y-77729998D01*
X167354532Y-77730001D01*
X167374364Y-77956686D01*
X167374366Y-77956697D01*
X167433258Y-78176488D01*
X167433261Y-78176497D01*
X167529431Y-78382732D01*
X167529432Y-78382734D01*
X167659954Y-78569141D01*
X167820858Y-78730045D01*
X167820861Y-78730047D01*
X168007266Y-78860568D01*
X168065275Y-78887618D01*
X168117714Y-78933791D01*
X168136866Y-79000984D01*
X168116650Y-79067865D01*
X168065275Y-79112382D01*
X168007267Y-79139431D01*
X168007265Y-79139432D01*
X167820858Y-79269954D01*
X167659954Y-79430858D01*
X167529432Y-79617265D01*
X167529431Y-79617267D01*
X167433261Y-79823502D01*
X167433258Y-79823511D01*
X167374366Y-80043302D01*
X167374364Y-80043313D01*
X167354532Y-80269998D01*
X167354532Y-80270001D01*
X167374364Y-80496686D01*
X167374366Y-80496697D01*
X167433258Y-80716488D01*
X167433261Y-80716497D01*
X167529431Y-80922732D01*
X167529432Y-80922734D01*
X167659954Y-81109141D01*
X167820858Y-81270045D01*
X167820861Y-81270047D01*
X168007266Y-81400568D01*
X168065275Y-81427618D01*
X168117714Y-81473791D01*
X168136866Y-81540984D01*
X168116650Y-81607865D01*
X168065275Y-81652382D01*
X168007267Y-81679431D01*
X168007265Y-81679432D01*
X167820858Y-81809954D01*
X167659954Y-81970858D01*
X167529432Y-82157265D01*
X167529431Y-82157267D01*
X167433261Y-82363502D01*
X167433258Y-82363511D01*
X167374366Y-82583302D01*
X167374364Y-82583313D01*
X167354532Y-82809998D01*
X167354532Y-82810001D01*
X167374364Y-83036686D01*
X167374366Y-83036697D01*
X167433258Y-83256488D01*
X167433261Y-83256497D01*
X167529431Y-83462732D01*
X167529432Y-83462734D01*
X167659954Y-83649141D01*
X167820858Y-83810045D01*
X167820861Y-83810047D01*
X168007266Y-83940568D01*
X168065865Y-83967893D01*
X168118305Y-84014065D01*
X168137457Y-84081258D01*
X168117242Y-84148139D01*
X168065867Y-84192657D01*
X168007515Y-84219867D01*
X167821179Y-84350342D01*
X167660342Y-84511179D01*
X167529865Y-84697517D01*
X167433734Y-84903673D01*
X167433730Y-84903682D01*
X167381127Y-85099999D01*
X167381128Y-85100000D01*
X168344314Y-85100000D01*
X168339920Y-85104394D01*
X168287259Y-85195606D01*
X168260000Y-85297339D01*
X168260000Y-85402661D01*
X168287259Y-85504394D01*
X168339920Y-85595606D01*
X168344314Y-85600000D01*
X167381128Y-85600000D01*
X167433730Y-85796317D01*
X167433734Y-85796326D01*
X167529865Y-86002482D01*
X167660342Y-86188820D01*
X167821179Y-86349657D01*
X168007518Y-86480134D01*
X168007520Y-86480135D01*
X168065865Y-86507342D01*
X168118305Y-86553514D01*
X168137457Y-86620707D01*
X168117242Y-86687589D01*
X168065867Y-86732105D01*
X168007268Y-86759431D01*
X168007264Y-86759433D01*
X167820858Y-86889954D01*
X167659954Y-87050858D01*
X167529432Y-87237265D01*
X167529431Y-87237267D01*
X167433261Y-87443502D01*
X167433258Y-87443511D01*
X167374366Y-87663302D01*
X167374364Y-87663313D01*
X167354532Y-87889998D01*
X167354532Y-87890001D01*
X167374364Y-88116686D01*
X167374366Y-88116697D01*
X167433258Y-88336488D01*
X167433261Y-88336497D01*
X167529431Y-88542732D01*
X167529432Y-88542734D01*
X167659954Y-88729141D01*
X167820858Y-88890045D01*
X167820861Y-88890047D01*
X168007266Y-89020568D01*
X168213504Y-89116739D01*
X168433308Y-89175635D01*
X168595230Y-89189801D01*
X168659998Y-89195468D01*
X168660000Y-89195468D01*
X168660002Y-89195468D01*
X168716673Y-89190509D01*
X168886692Y-89175635D01*
X169106496Y-89116739D01*
X169312734Y-89020568D01*
X169499139Y-88890047D01*
X169660047Y-88729139D01*
X169790568Y-88542734D01*
X169886739Y-88336496D01*
X169945635Y-88116692D01*
X169965468Y-87890000D01*
X169945635Y-87663308D01*
X169886739Y-87443504D01*
X169790568Y-87237266D01*
X169660047Y-87050861D01*
X169660045Y-87050858D01*
X169499141Y-86889954D01*
X169312734Y-86759432D01*
X169312732Y-86759431D01*
X169301275Y-86754088D01*
X169254132Y-86732105D01*
X169201694Y-86685934D01*
X169182542Y-86618740D01*
X169202758Y-86551859D01*
X169254134Y-86507341D01*
X169312484Y-86480132D01*
X169498820Y-86349657D01*
X169659657Y-86188820D01*
X169790134Y-86002482D01*
X169886265Y-85796326D01*
X169886269Y-85796317D01*
X169938872Y-85600000D01*
X168975686Y-85600000D01*
X168980080Y-85595606D01*
X169032741Y-85504394D01*
X169060000Y-85402661D01*
X169060000Y-85297339D01*
X169032741Y-85195606D01*
X168980080Y-85104394D01*
X168975686Y-85100000D01*
X169938872Y-85100000D01*
X169938872Y-85099999D01*
X169886269Y-84903682D01*
X169886265Y-84903673D01*
X169790134Y-84697517D01*
X169659657Y-84511179D01*
X169498820Y-84350342D01*
X169312482Y-84219865D01*
X169254133Y-84192657D01*
X169201694Y-84146484D01*
X169182542Y-84079291D01*
X169202758Y-84012410D01*
X169254129Y-83967895D01*
X169312734Y-83940568D01*
X169499139Y-83810047D01*
X169660047Y-83649139D01*
X169790568Y-83462734D01*
X169886739Y-83256496D01*
X169945635Y-83036692D01*
X169965468Y-82810000D01*
X169945635Y-82583308D01*
X169886739Y-82363504D01*
X169790568Y-82157266D01*
X169660047Y-81970861D01*
X169660045Y-81970858D01*
X169499141Y-81809954D01*
X169312734Y-81679432D01*
X169312728Y-81679429D01*
X169254725Y-81652382D01*
X169202285Y-81606210D01*
X169183133Y-81539017D01*
X169203348Y-81472135D01*
X169254725Y-81427618D01*
X169312734Y-81400568D01*
X169499139Y-81270047D01*
X169660047Y-81109139D01*
X169790568Y-80922734D01*
X169886739Y-80716496D01*
X169945635Y-80496692D01*
X169965468Y-80270000D01*
X169945635Y-80043308D01*
X169886739Y-79823504D01*
X169790568Y-79617266D01*
X169660047Y-79430861D01*
X169660045Y-79430858D01*
X169499141Y-79269954D01*
X169312734Y-79139432D01*
X169312728Y-79139429D01*
X169254725Y-79112382D01*
X169202285Y-79066210D01*
X169183133Y-78999017D01*
X169203348Y-78932135D01*
X169254725Y-78887618D01*
X169312734Y-78860568D01*
X169499139Y-78730047D01*
X169660047Y-78569139D01*
X169790568Y-78382734D01*
X169886739Y-78176496D01*
X169945635Y-77956692D01*
X169965468Y-77730000D01*
X169945635Y-77503308D01*
X169886739Y-77283504D01*
X169790568Y-77077266D01*
X169660047Y-76890861D01*
X169660045Y-76890858D01*
X169499141Y-76729954D01*
X169312734Y-76599432D01*
X169312728Y-76599429D01*
X169254725Y-76572382D01*
X169202285Y-76526210D01*
X169183133Y-76459017D01*
X169203348Y-76392135D01*
X169254725Y-76347618D01*
X169312734Y-76320568D01*
X169499139Y-76190047D01*
X169660047Y-76029139D01*
X169790568Y-75842734D01*
X169886739Y-75636496D01*
X169945635Y-75416692D01*
X169965468Y-75190000D01*
X169945635Y-74963308D01*
X169886739Y-74743504D01*
X169790568Y-74537266D01*
X169660047Y-74350861D01*
X169660045Y-74350858D01*
X169499141Y-74189954D01*
X169312734Y-74059432D01*
X169312728Y-74059429D01*
X169254725Y-74032382D01*
X169202285Y-73986210D01*
X169183133Y-73919017D01*
X169203348Y-73852135D01*
X169254725Y-73807618D01*
X169312734Y-73780568D01*
X169499139Y-73650047D01*
X169660047Y-73489139D01*
X169790568Y-73302734D01*
X169886739Y-73096496D01*
X169945635Y-72876692D01*
X169965468Y-72650000D01*
X169945635Y-72423308D01*
X169886739Y-72203504D01*
X169790568Y-71997266D01*
X169660047Y-71810861D01*
X169660045Y-71810858D01*
X169499143Y-71649956D01*
X169473912Y-71632289D01*
X169430287Y-71577712D01*
X169423095Y-71508213D01*
X169454617Y-71445859D01*
X169514847Y-71410445D01*
X169531781Y-71407424D01*
X169567380Y-71403596D01*
X169702086Y-71353354D01*
X169702093Y-71353350D01*
X169817187Y-71267190D01*
X169817190Y-71267187D01*
X169903350Y-71152093D01*
X169903354Y-71152086D01*
X169953596Y-71017379D01*
X169953598Y-71017372D01*
X169959999Y-70957844D01*
X169960000Y-70957827D01*
X169960000Y-70360000D01*
X168975686Y-70360000D01*
X168980080Y-70355606D01*
X169032741Y-70264394D01*
X169060000Y-70162661D01*
X169060000Y-70109998D01*
X180054532Y-70109998D01*
X180054532Y-70110001D01*
X180074364Y-70336686D01*
X180074366Y-70336697D01*
X180133258Y-70556488D01*
X180133261Y-70556497D01*
X180229431Y-70762732D01*
X180229432Y-70762734D01*
X180359954Y-70949141D01*
X180520858Y-71110045D01*
X180520861Y-71110047D01*
X180707266Y-71240568D01*
X180764357Y-71267190D01*
X180765275Y-71267618D01*
X180817714Y-71313791D01*
X180836866Y-71380984D01*
X180816650Y-71447865D01*
X180765275Y-71492382D01*
X180707267Y-71519431D01*
X180707265Y-71519432D01*
X180520858Y-71649954D01*
X180359954Y-71810858D01*
X180229432Y-71997265D01*
X180229431Y-71997267D01*
X180133261Y-72203502D01*
X180133258Y-72203511D01*
X180074366Y-72423302D01*
X180074364Y-72423313D01*
X180054532Y-72649998D01*
X180054532Y-72650001D01*
X180074364Y-72876686D01*
X180074366Y-72876697D01*
X180133258Y-73096488D01*
X180133261Y-73096497D01*
X180229431Y-73302732D01*
X180229432Y-73302734D01*
X180359954Y-73489141D01*
X180520858Y-73650045D01*
X180520861Y-73650047D01*
X180707266Y-73780568D01*
X180765275Y-73807618D01*
X180817714Y-73853791D01*
X180836866Y-73920984D01*
X180816650Y-73987865D01*
X180765275Y-74032382D01*
X180707267Y-74059431D01*
X180707265Y-74059432D01*
X180520858Y-74189954D01*
X180359954Y-74350858D01*
X180229432Y-74537265D01*
X180229431Y-74537267D01*
X180133261Y-74743502D01*
X180133258Y-74743511D01*
X180074366Y-74963302D01*
X180074364Y-74963313D01*
X180054532Y-75189998D01*
X180054532Y-75190001D01*
X180074364Y-75416686D01*
X180074366Y-75416697D01*
X180133258Y-75636488D01*
X180133261Y-75636497D01*
X180229431Y-75842732D01*
X180229432Y-75842734D01*
X180359954Y-76029141D01*
X180520858Y-76190045D01*
X180520861Y-76190047D01*
X180707266Y-76320568D01*
X180765275Y-76347618D01*
X180817714Y-76393791D01*
X180836866Y-76460984D01*
X180816650Y-76527865D01*
X180765275Y-76572382D01*
X180707267Y-76599431D01*
X180707265Y-76599432D01*
X180520858Y-76729954D01*
X180359954Y-76890858D01*
X180229432Y-77077265D01*
X180229431Y-77077267D01*
X180133261Y-77283502D01*
X180133258Y-77283511D01*
X180074366Y-77503302D01*
X180074364Y-77503313D01*
X180054532Y-77729998D01*
X180054532Y-77730001D01*
X180074364Y-77956686D01*
X180074366Y-77956697D01*
X180133258Y-78176488D01*
X180133261Y-78176497D01*
X180229431Y-78382732D01*
X180229432Y-78382734D01*
X180359954Y-78569141D01*
X180520858Y-78730045D01*
X180520861Y-78730047D01*
X180707266Y-78860568D01*
X180765865Y-78887893D01*
X180818305Y-78934065D01*
X180837457Y-79001258D01*
X180817242Y-79068139D01*
X180765867Y-79112657D01*
X180707515Y-79139867D01*
X180521179Y-79270342D01*
X180360342Y-79431179D01*
X180229865Y-79617517D01*
X180133734Y-79823673D01*
X180133730Y-79823682D01*
X180081127Y-80019999D01*
X180081128Y-80020000D01*
X181044314Y-80020000D01*
X181039920Y-80024394D01*
X180987259Y-80115606D01*
X180960000Y-80217339D01*
X180960000Y-80322661D01*
X180987259Y-80424394D01*
X181039920Y-80515606D01*
X181044314Y-80520000D01*
X180081128Y-80520000D01*
X180133730Y-80716317D01*
X180133734Y-80716326D01*
X180229865Y-80922482D01*
X180360342Y-81108820D01*
X180521179Y-81269657D01*
X180707517Y-81400134D01*
X180766457Y-81427618D01*
X180818896Y-81473790D01*
X180838048Y-81540984D01*
X180817832Y-81607865D01*
X180766457Y-81652382D01*
X180707517Y-81679865D01*
X180521179Y-81810342D01*
X180360342Y-81971179D01*
X180229865Y-82157517D01*
X180133734Y-82363673D01*
X180133730Y-82363682D01*
X180081127Y-82559999D01*
X180081128Y-82560000D01*
X181044314Y-82560000D01*
X181039920Y-82564394D01*
X180987259Y-82655606D01*
X180960000Y-82757339D01*
X180960000Y-82862661D01*
X180987259Y-82964394D01*
X181039920Y-83055606D01*
X181044314Y-83060000D01*
X180081128Y-83060000D01*
X180133730Y-83256317D01*
X180133734Y-83256326D01*
X180229865Y-83462482D01*
X180360342Y-83648820D01*
X180521179Y-83809657D01*
X180707517Y-83940134D01*
X180766457Y-83967618D01*
X180818896Y-84013790D01*
X180838048Y-84080984D01*
X180817832Y-84147865D01*
X180766457Y-84192382D01*
X180707517Y-84219865D01*
X180521179Y-84350342D01*
X180360342Y-84511179D01*
X180229865Y-84697517D01*
X180133734Y-84903673D01*
X180133730Y-84903682D01*
X180081127Y-85099999D01*
X180081128Y-85100000D01*
X181044314Y-85100000D01*
X181039920Y-85104394D01*
X180987259Y-85195606D01*
X180960000Y-85297339D01*
X180960000Y-85402661D01*
X180987259Y-85504394D01*
X181039920Y-85595606D01*
X181044314Y-85600000D01*
X180081128Y-85600000D01*
X180133730Y-85796317D01*
X180133734Y-85796326D01*
X180229865Y-86002482D01*
X180360342Y-86188820D01*
X180521179Y-86349657D01*
X180707518Y-86480134D01*
X180707520Y-86480135D01*
X180765865Y-86507342D01*
X180818305Y-86553514D01*
X180837457Y-86620707D01*
X180817242Y-86687589D01*
X180765867Y-86732105D01*
X180707268Y-86759431D01*
X180707264Y-86759433D01*
X180520858Y-86889954D01*
X180359954Y-87050858D01*
X180229432Y-87237265D01*
X180229431Y-87237267D01*
X180133261Y-87443502D01*
X180133258Y-87443511D01*
X180074366Y-87663302D01*
X180074364Y-87663313D01*
X180054532Y-87889998D01*
X180054532Y-87890001D01*
X180074364Y-88116686D01*
X180074366Y-88116697D01*
X180133258Y-88336488D01*
X180133261Y-88336497D01*
X180229431Y-88542732D01*
X180229432Y-88542734D01*
X180359954Y-88729141D01*
X180520858Y-88890045D01*
X180520861Y-88890047D01*
X180707266Y-89020568D01*
X180913504Y-89116739D01*
X181133308Y-89175635D01*
X181295230Y-89189801D01*
X181359998Y-89195468D01*
X181360000Y-89195468D01*
X181360002Y-89195468D01*
X181416673Y-89190509D01*
X181586692Y-89175635D01*
X181806496Y-89116739D01*
X182012734Y-89020568D01*
X182199139Y-88890047D01*
X182360047Y-88729139D01*
X182490568Y-88542734D01*
X182586739Y-88336496D01*
X182645635Y-88116692D01*
X182665468Y-87890000D01*
X182645635Y-87663308D01*
X182586739Y-87443504D01*
X182490568Y-87237266D01*
X182360047Y-87050861D01*
X182360045Y-87050858D01*
X182199141Y-86889954D01*
X182012734Y-86759432D01*
X182012732Y-86759431D01*
X182001275Y-86754088D01*
X181954132Y-86732105D01*
X181901694Y-86685934D01*
X181882542Y-86618740D01*
X181902758Y-86551859D01*
X181954134Y-86507341D01*
X182012484Y-86480132D01*
X182198820Y-86349657D01*
X182359657Y-86188820D01*
X182490134Y-86002482D01*
X182586265Y-85796326D01*
X182586269Y-85796317D01*
X182638872Y-85600000D01*
X181675686Y-85600000D01*
X181680080Y-85595606D01*
X181732741Y-85504394D01*
X181760000Y-85402661D01*
X181760000Y-85297339D01*
X181732741Y-85195606D01*
X181680080Y-85104394D01*
X181675686Y-85100000D01*
X182638872Y-85100000D01*
X182638872Y-85099999D01*
X182586269Y-84903682D01*
X182586265Y-84903673D01*
X182490134Y-84697517D01*
X182359657Y-84511179D01*
X182198820Y-84350342D01*
X182012481Y-84219865D01*
X182012479Y-84219864D01*
X181953543Y-84192382D01*
X181901103Y-84146210D01*
X181881951Y-84079017D01*
X181902166Y-84012136D01*
X181953543Y-83967618D01*
X182012479Y-83940135D01*
X182012481Y-83940134D01*
X182198820Y-83809657D01*
X182359657Y-83648820D01*
X182490134Y-83462482D01*
X182586265Y-83256326D01*
X182586269Y-83256317D01*
X182638872Y-83060000D01*
X181675686Y-83060000D01*
X181680080Y-83055606D01*
X181732741Y-82964394D01*
X181760000Y-82862661D01*
X181760000Y-82757339D01*
X181732741Y-82655606D01*
X181689089Y-82579998D01*
X189994390Y-82579998D01*
X189994390Y-82580001D01*
X190014804Y-82865433D01*
X190075628Y-83145037D01*
X190075630Y-83145043D01*
X190075631Y-83145046D01*
X190175633Y-83413161D01*
X190175635Y-83413166D01*
X190312770Y-83664309D01*
X190312775Y-83664317D01*
X190484254Y-83893387D01*
X190484270Y-83893405D01*
X190686594Y-84095729D01*
X190686612Y-84095745D01*
X190915682Y-84267224D01*
X190915690Y-84267229D01*
X191166833Y-84404364D01*
X191166832Y-84404364D01*
X191166836Y-84404365D01*
X191166839Y-84404367D01*
X191434954Y-84504369D01*
X191434960Y-84504370D01*
X191434962Y-84504371D01*
X191714566Y-84565195D01*
X191714568Y-84565195D01*
X191714572Y-84565196D01*
X191968220Y-84583337D01*
X191999999Y-84585610D01*
X192000000Y-84585610D01*
X192000001Y-84585610D01*
X192028595Y-84583564D01*
X192285428Y-84565196D01*
X192565046Y-84504369D01*
X192833161Y-84404367D01*
X193084315Y-84267226D01*
X193313395Y-84095739D01*
X193515739Y-83893395D01*
X193687226Y-83664315D01*
X193824367Y-83413161D01*
X193924369Y-83145046D01*
X193985196Y-82865428D01*
X194005610Y-82580000D01*
X193985196Y-82294572D01*
X193924369Y-82014954D01*
X193824367Y-81746839D01*
X193787796Y-81679865D01*
X193687229Y-81495690D01*
X193687224Y-81495682D01*
X193515745Y-81266612D01*
X193515729Y-81266594D01*
X193313405Y-81064270D01*
X193313387Y-81064254D01*
X193084317Y-80892775D01*
X193084309Y-80892770D01*
X192833166Y-80755635D01*
X192833167Y-80755635D01*
X192725915Y-80715632D01*
X192565046Y-80655631D01*
X192565043Y-80655630D01*
X192565037Y-80655628D01*
X192285433Y-80594804D01*
X192000001Y-80574390D01*
X191999999Y-80574390D01*
X191714566Y-80594804D01*
X191434962Y-80655628D01*
X191166833Y-80755635D01*
X190915690Y-80892770D01*
X190915682Y-80892775D01*
X190686612Y-81064254D01*
X190686594Y-81064270D01*
X190484270Y-81266594D01*
X190484254Y-81266612D01*
X190312775Y-81495682D01*
X190312770Y-81495690D01*
X190175635Y-81746833D01*
X190075628Y-82014962D01*
X190014804Y-82294566D01*
X189994390Y-82579998D01*
X181689089Y-82579998D01*
X181680080Y-82564394D01*
X181675686Y-82560000D01*
X182638872Y-82560000D01*
X182638872Y-82559999D01*
X182586269Y-82363682D01*
X182586265Y-82363673D01*
X182490134Y-82157517D01*
X182359657Y-81971179D01*
X182198820Y-81810342D01*
X182012481Y-81679865D01*
X182012479Y-81679864D01*
X181953543Y-81652382D01*
X181901103Y-81606210D01*
X181881951Y-81539017D01*
X181902166Y-81472136D01*
X181953543Y-81427618D01*
X182012479Y-81400135D01*
X182012481Y-81400134D01*
X182198820Y-81269657D01*
X182359657Y-81108820D01*
X182490134Y-80922482D01*
X182586265Y-80716326D01*
X182586269Y-80716317D01*
X182638872Y-80520000D01*
X181675686Y-80520000D01*
X181680080Y-80515606D01*
X181732741Y-80424394D01*
X181760000Y-80322661D01*
X181760000Y-80217339D01*
X181732741Y-80115606D01*
X181680080Y-80024394D01*
X181675686Y-80020000D01*
X182638872Y-80020000D01*
X182638872Y-80019999D01*
X182586269Y-79823682D01*
X182586265Y-79823673D01*
X182490134Y-79617517D01*
X182359657Y-79431179D01*
X182198820Y-79270342D01*
X182012482Y-79139865D01*
X181954133Y-79112657D01*
X181901694Y-79066484D01*
X181882542Y-78999291D01*
X181902758Y-78932410D01*
X181954129Y-78887895D01*
X182012734Y-78860568D01*
X182199139Y-78730047D01*
X182360047Y-78569139D01*
X182490568Y-78382734D01*
X182586739Y-78176496D01*
X182645635Y-77956692D01*
X182665468Y-77730000D01*
X182645635Y-77503308D01*
X182644748Y-77499998D01*
X189994390Y-77499998D01*
X189994390Y-77500001D01*
X190014804Y-77785433D01*
X190075628Y-78065037D01*
X190075630Y-78065043D01*
X190075631Y-78065046D01*
X190175633Y-78333161D01*
X190175635Y-78333166D01*
X190312770Y-78584309D01*
X190312775Y-78584317D01*
X190484254Y-78813387D01*
X190484270Y-78813405D01*
X190686594Y-79015729D01*
X190686612Y-79015745D01*
X190915682Y-79187224D01*
X190915690Y-79187229D01*
X191166833Y-79324364D01*
X191166832Y-79324364D01*
X191166836Y-79324365D01*
X191166839Y-79324367D01*
X191434954Y-79424369D01*
X191434960Y-79424370D01*
X191434962Y-79424371D01*
X191714566Y-79485195D01*
X191714568Y-79485195D01*
X191714572Y-79485196D01*
X191968220Y-79503337D01*
X191999999Y-79505610D01*
X192000000Y-79505610D01*
X192000001Y-79505610D01*
X192028595Y-79503564D01*
X192285428Y-79485196D01*
X192535217Y-79430858D01*
X192565037Y-79424371D01*
X192565037Y-79424370D01*
X192565046Y-79424369D01*
X192833161Y-79324367D01*
X193084315Y-79187226D01*
X193313395Y-79015739D01*
X193515739Y-78813395D01*
X193687226Y-78584315D01*
X193824367Y-78333161D01*
X193924369Y-78065046D01*
X193985196Y-77785428D01*
X194005610Y-77500000D01*
X193985196Y-77214572D01*
X193924369Y-76934954D01*
X193824367Y-76666839D01*
X193787559Y-76599431D01*
X193687229Y-76415690D01*
X193687224Y-76415682D01*
X193515745Y-76186612D01*
X193515729Y-76186594D01*
X193313405Y-75984270D01*
X193313387Y-75984254D01*
X193084317Y-75812775D01*
X193084309Y-75812770D01*
X192833166Y-75675635D01*
X192833167Y-75675635D01*
X192725915Y-75635632D01*
X192565046Y-75575631D01*
X192565043Y-75575630D01*
X192565037Y-75575628D01*
X192285433Y-75514804D01*
X192000001Y-75494390D01*
X191999999Y-75494390D01*
X191714566Y-75514804D01*
X191434962Y-75575628D01*
X191166833Y-75675635D01*
X190915690Y-75812770D01*
X190915682Y-75812775D01*
X190686612Y-75984254D01*
X190686594Y-75984270D01*
X190484270Y-76186594D01*
X190484254Y-76186612D01*
X190312775Y-76415682D01*
X190312770Y-76415690D01*
X190175635Y-76666833D01*
X190075628Y-76934962D01*
X190014804Y-77214566D01*
X189994390Y-77499998D01*
X182644748Y-77499998D01*
X182586739Y-77283504D01*
X182490568Y-77077266D01*
X182360047Y-76890861D01*
X182360045Y-76890858D01*
X182199141Y-76729954D01*
X182012734Y-76599432D01*
X182012728Y-76599429D01*
X181954725Y-76572382D01*
X181902285Y-76526210D01*
X181883133Y-76459017D01*
X181903348Y-76392135D01*
X181954725Y-76347618D01*
X182012734Y-76320568D01*
X182199139Y-76190047D01*
X182360047Y-76029139D01*
X182490568Y-75842734D01*
X182586739Y-75636496D01*
X182645635Y-75416692D01*
X182665468Y-75190000D01*
X182645635Y-74963308D01*
X182586739Y-74743504D01*
X182490568Y-74537266D01*
X182360047Y-74350861D01*
X182360045Y-74350858D01*
X182199141Y-74189954D01*
X182012734Y-74059432D01*
X182012728Y-74059429D01*
X181954725Y-74032382D01*
X181902285Y-73986210D01*
X181883133Y-73919017D01*
X181903348Y-73852135D01*
X181954725Y-73807618D01*
X182012734Y-73780568D01*
X182199139Y-73650047D01*
X182360047Y-73489139D01*
X182490568Y-73302734D01*
X182586739Y-73096496D01*
X182645635Y-72876692D01*
X182665468Y-72650000D01*
X182645635Y-72423308D01*
X182586739Y-72203504D01*
X182490568Y-71997266D01*
X182360047Y-71810861D01*
X182360045Y-71810858D01*
X182199141Y-71649954D01*
X182012734Y-71519432D01*
X182012728Y-71519429D01*
X181954725Y-71492382D01*
X181902285Y-71446210D01*
X181883133Y-71379017D01*
X181903348Y-71312135D01*
X181954725Y-71267618D01*
X181955643Y-71267190D01*
X182012734Y-71240568D01*
X182199139Y-71110047D01*
X182360047Y-70949139D01*
X182413965Y-70872135D01*
X189999500Y-70872135D01*
X189999500Y-73967870D01*
X189999501Y-73967876D01*
X190005908Y-74027483D01*
X190056202Y-74162328D01*
X190056206Y-74162335D01*
X190142452Y-74277544D01*
X190142455Y-74277547D01*
X190257664Y-74363793D01*
X190257671Y-74363797D01*
X190392517Y-74414091D01*
X190392516Y-74414091D01*
X190399444Y-74414835D01*
X190452127Y-74420500D01*
X193547872Y-74420499D01*
X193607483Y-74414091D01*
X193742331Y-74363796D01*
X193857546Y-74277546D01*
X193943796Y-74162331D01*
X193994091Y-74027483D01*
X194000500Y-73967873D01*
X194000499Y-70872128D01*
X193994091Y-70812517D01*
X193975522Y-70762732D01*
X193943797Y-70677671D01*
X193943793Y-70677664D01*
X193857547Y-70562455D01*
X193857544Y-70562452D01*
X193742335Y-70476206D01*
X193742328Y-70476202D01*
X193607482Y-70425908D01*
X193607483Y-70425908D01*
X193547883Y-70419501D01*
X193547881Y-70419500D01*
X193547873Y-70419500D01*
X193547864Y-70419500D01*
X190452129Y-70419500D01*
X190452123Y-70419501D01*
X190392516Y-70425908D01*
X190257671Y-70476202D01*
X190257664Y-70476206D01*
X190142455Y-70562452D01*
X190142452Y-70562455D01*
X190056206Y-70677664D01*
X190056202Y-70677671D01*
X190005908Y-70812517D01*
X189999501Y-70872116D01*
X189999501Y-70872123D01*
X189999500Y-70872135D01*
X182413965Y-70872135D01*
X182490568Y-70762734D01*
X182586739Y-70556496D01*
X182645635Y-70336692D01*
X182665468Y-70110000D01*
X182645635Y-69883308D01*
X182586739Y-69663504D01*
X182490568Y-69457266D01*
X182360047Y-69270861D01*
X182360045Y-69270858D01*
X182199141Y-69109954D01*
X182012734Y-68979432D01*
X182012732Y-68979431D01*
X181806497Y-68883261D01*
X181806488Y-68883258D01*
X181586697Y-68824366D01*
X181586693Y-68824365D01*
X181586692Y-68824365D01*
X181586691Y-68824364D01*
X181586686Y-68824364D01*
X181360002Y-68804532D01*
X181359998Y-68804532D01*
X181133313Y-68824364D01*
X181133302Y-68824366D01*
X180913511Y-68883258D01*
X180913502Y-68883261D01*
X180707267Y-68979431D01*
X180707265Y-68979432D01*
X180520858Y-69109954D01*
X180359954Y-69270858D01*
X180229432Y-69457265D01*
X180229431Y-69457267D01*
X180133261Y-69663502D01*
X180133258Y-69663511D01*
X180074366Y-69883302D01*
X180074364Y-69883313D01*
X180054532Y-70109998D01*
X169060000Y-70109998D01*
X169060000Y-70057339D01*
X169032741Y-69955606D01*
X168980080Y-69864394D01*
X168975686Y-69860000D01*
X169960000Y-69860000D01*
X169960000Y-69262172D01*
X169959999Y-69262155D01*
X169953598Y-69202627D01*
X169953596Y-69202620D01*
X169903354Y-69067913D01*
X169903350Y-69067906D01*
X169817190Y-68952812D01*
X169817187Y-68952809D01*
X169702093Y-68866649D01*
X169702086Y-68866645D01*
X169567379Y-68816403D01*
X169567372Y-68816401D01*
X169507844Y-68810000D01*
X168910000Y-68810000D01*
X168910000Y-69794314D01*
X168905606Y-69789920D01*
X168814394Y-69737259D01*
X168712661Y-69710000D01*
X168607339Y-69710000D01*
X168505606Y-69737259D01*
X168414394Y-69789920D01*
X168410000Y-69794314D01*
X168410000Y-68810000D01*
X167812155Y-68810000D01*
X167752627Y-68816401D01*
X167752620Y-68816403D01*
X167617913Y-68866645D01*
X167617906Y-68866649D01*
X167502812Y-68952809D01*
X167502809Y-68952812D01*
X167416649Y-69067906D01*
X167416645Y-69067913D01*
X167366403Y-69202620D01*
X167366401Y-69202627D01*
X167360000Y-69262155D01*
X167360000Y-69860000D01*
X168344314Y-69860000D01*
X168339920Y-69864394D01*
X168287259Y-69955606D01*
X168260000Y-70057339D01*
X168260000Y-70162661D01*
X168287259Y-70264394D01*
X168339920Y-70355606D01*
X168344314Y-70360000D01*
X167360000Y-70360000D01*
X167360000Y-70957844D01*
X167366401Y-71017372D01*
X167366403Y-71017379D01*
X167416645Y-71152086D01*
X167416649Y-71152093D01*
X167502809Y-71267187D01*
X167502812Y-71267190D01*
X167617906Y-71353350D01*
X167617913Y-71353354D01*
X167752620Y-71403596D01*
X167752627Y-71403598D01*
X167788218Y-71407425D01*
X167852769Y-71434163D01*
X167892618Y-71491555D01*
X167895111Y-71561380D01*
X167859459Y-71621469D01*
X167846088Y-71632287D01*
X167820861Y-71649951D01*
X167659954Y-71810858D01*
X167529432Y-71997265D01*
X167529431Y-71997267D01*
X167433261Y-72203502D01*
X167433258Y-72203511D01*
X167374366Y-72423302D01*
X167374364Y-72423313D01*
X167354532Y-72649998D01*
X159018282Y-72649998D01*
X159187226Y-72424315D01*
X159324367Y-72173161D01*
X159424369Y-71905046D01*
X159479861Y-71649951D01*
X159485195Y-71625433D01*
X159485195Y-71625432D01*
X159485196Y-71625428D01*
X159505610Y-71340000D01*
X159485196Y-71054572D01*
X159464150Y-70957827D01*
X159424371Y-70774962D01*
X159424370Y-70774960D01*
X159424369Y-70774954D01*
X159324367Y-70506839D01*
X159311208Y-70482741D01*
X159187229Y-70255690D01*
X159187224Y-70255682D01*
X159015745Y-70026612D01*
X159015729Y-70026594D01*
X158813405Y-69824270D01*
X158813387Y-69824254D01*
X158584317Y-69652775D01*
X158584309Y-69652770D01*
X158333166Y-69515635D01*
X158333167Y-69515635D01*
X158176673Y-69457266D01*
X158065046Y-69415631D01*
X158065043Y-69415630D01*
X158065037Y-69415628D01*
X157785433Y-69354804D01*
X157500001Y-69334390D01*
X157499999Y-69334390D01*
X157214566Y-69354804D01*
X156934962Y-69415628D01*
X156666833Y-69515635D01*
X156415690Y-69652770D01*
X156415682Y-69652775D01*
X156186612Y-69824254D01*
X156186594Y-69824270D01*
X155984270Y-70026594D01*
X155984254Y-70026612D01*
X155812775Y-70255682D01*
X155812770Y-70255690D01*
X155675635Y-70506833D01*
X155575628Y-70774962D01*
X155514804Y-71054566D01*
X155494390Y-71339998D01*
X150000500Y-71339998D01*
X150000500Y-60742135D01*
X155449500Y-60742135D01*
X155449500Y-63837870D01*
X155449501Y-63837876D01*
X155455908Y-63897483D01*
X155506202Y-64032328D01*
X155506206Y-64032335D01*
X155592452Y-64147544D01*
X155592455Y-64147547D01*
X155707664Y-64233793D01*
X155707671Y-64233797D01*
X155842517Y-64284091D01*
X155842516Y-64284091D01*
X155849444Y-64284835D01*
X155902127Y-64290500D01*
X158997872Y-64290499D01*
X159057483Y-64284091D01*
X159192331Y-64233796D01*
X159307546Y-64147546D01*
X159393796Y-64032331D01*
X159444091Y-63897483D01*
X159450500Y-63837873D01*
X159450499Y-60742128D01*
X159444091Y-60682517D01*
X159393796Y-60547669D01*
X159393795Y-60547668D01*
X159393793Y-60547664D01*
X159307547Y-60432455D01*
X159307544Y-60432452D01*
X159192335Y-60346206D01*
X159192328Y-60346202D01*
X159057482Y-60295908D01*
X159057483Y-60295908D01*
X158997883Y-60289501D01*
X158997881Y-60289500D01*
X158997873Y-60289500D01*
X158997864Y-60289500D01*
X155902129Y-60289500D01*
X155902123Y-60289501D01*
X155842516Y-60295908D01*
X155707671Y-60346202D01*
X155707664Y-60346206D01*
X155592455Y-60432452D01*
X155592452Y-60432455D01*
X155506206Y-60547664D01*
X155506202Y-60547671D01*
X155455908Y-60682517D01*
X155449501Y-60742116D01*
X155449501Y-60742123D01*
X155449500Y-60742135D01*
X150000500Y-60742135D01*
X150000500Y-57209998D01*
X155444390Y-57209998D01*
X155444390Y-57210001D01*
X155464804Y-57495433D01*
X155525628Y-57775037D01*
X155525630Y-57775043D01*
X155525631Y-57775046D01*
X155603668Y-57984270D01*
X155625635Y-58043166D01*
X155762770Y-58294309D01*
X155762775Y-58294317D01*
X155934254Y-58523387D01*
X155934270Y-58523405D01*
X156136594Y-58725729D01*
X156136612Y-58725745D01*
X156365682Y-58897224D01*
X156365690Y-58897229D01*
X156616833Y-59034364D01*
X156616832Y-59034364D01*
X156616836Y-59034365D01*
X156616839Y-59034367D01*
X156884954Y-59134369D01*
X156884960Y-59134370D01*
X156884962Y-59134371D01*
X157164566Y-59195195D01*
X157164568Y-59195195D01*
X157164572Y-59195196D01*
X157418220Y-59213337D01*
X157449999Y-59215610D01*
X157450000Y-59215610D01*
X157450001Y-59215610D01*
X157478595Y-59213564D01*
X157735428Y-59195196D01*
X157813025Y-59178316D01*
X158015037Y-59134371D01*
X158015037Y-59134370D01*
X158015046Y-59134369D01*
X158283161Y-59034367D01*
X158534315Y-58897226D01*
X158763395Y-58725739D01*
X158965739Y-58523395D01*
X159137226Y-58294315D01*
X159274367Y-58043161D01*
X159345609Y-57852155D01*
X168710000Y-57852155D01*
X168710000Y-59150000D01*
X169990936Y-59150000D01*
X169979207Y-59178316D01*
X169950000Y-59325147D01*
X169950000Y-59474853D01*
X169979207Y-59621684D01*
X169990936Y-59650000D01*
X168710000Y-59650000D01*
X168710000Y-60947844D01*
X168716401Y-61007372D01*
X168716403Y-61007379D01*
X168766645Y-61142086D01*
X168766649Y-61142093D01*
X168852809Y-61257187D01*
X168852812Y-61257190D01*
X168967906Y-61343350D01*
X168967913Y-61343354D01*
X169102620Y-61393596D01*
X169102627Y-61393598D01*
X169162155Y-61399999D01*
X169162172Y-61400000D01*
X170460000Y-61400000D01*
X170460000Y-60119064D01*
X170488316Y-60130793D01*
X170635147Y-60160000D01*
X170784853Y-60160000D01*
X170931684Y-60130793D01*
X170960000Y-60119064D01*
X170960000Y-61400000D01*
X172257828Y-61400000D01*
X172257844Y-61399999D01*
X172317372Y-61393598D01*
X172317379Y-61393596D01*
X172452086Y-61343354D01*
X172452093Y-61343350D01*
X172567187Y-61257190D01*
X172567190Y-61257187D01*
X172653350Y-61142093D01*
X172653354Y-61142086D01*
X172703596Y-61007379D01*
X172703598Y-61007372D01*
X172709999Y-60947844D01*
X172710000Y-60947827D01*
X172710000Y-59650000D01*
X171429064Y-59650000D01*
X171440793Y-59621684D01*
X171470000Y-59474853D01*
X171470000Y-59399998D01*
X173784390Y-59399998D01*
X173784390Y-59400001D01*
X173804804Y-59685433D01*
X173865628Y-59965037D01*
X173865630Y-59965043D01*
X173865631Y-59965046D01*
X173912360Y-60090330D01*
X173965635Y-60233166D01*
X174102770Y-60484309D01*
X174102775Y-60484317D01*
X174274254Y-60713387D01*
X174274270Y-60713405D01*
X174476594Y-60915729D01*
X174476612Y-60915745D01*
X174705682Y-61087224D01*
X174705690Y-61087229D01*
X174956833Y-61224364D01*
X174956832Y-61224364D01*
X174956836Y-61224365D01*
X174956839Y-61224367D01*
X175224954Y-61324369D01*
X175224960Y-61324370D01*
X175224962Y-61324371D01*
X175504566Y-61385195D01*
X175504568Y-61385195D01*
X175504572Y-61385196D01*
X175758220Y-61403337D01*
X175789999Y-61405610D01*
X175790000Y-61405610D01*
X175790001Y-61405610D01*
X175818595Y-61403564D01*
X176075428Y-61385196D01*
X176355046Y-61324369D01*
X176623161Y-61224367D01*
X176874315Y-61087226D01*
X177103395Y-60915739D01*
X177305739Y-60713395D01*
X177477226Y-60484315D01*
X177614367Y-60233161D01*
X177714369Y-59965046D01*
X177775196Y-59685428D01*
X177795610Y-59400000D01*
X177775196Y-59114572D01*
X177753650Y-59015528D01*
X177714371Y-58834962D01*
X177714370Y-58834960D01*
X177714369Y-58834954D01*
X177614367Y-58566839D01*
X177590640Y-58523387D01*
X177477229Y-58315690D01*
X177477224Y-58315682D01*
X177305745Y-58086612D01*
X177305729Y-58086594D01*
X177171290Y-57952155D01*
X183020000Y-57952155D01*
X183020000Y-59250000D01*
X184300936Y-59250000D01*
X184289207Y-59278316D01*
X184260000Y-59425147D01*
X184260000Y-59574853D01*
X184289207Y-59721684D01*
X184300936Y-59750000D01*
X183020000Y-59750000D01*
X183020000Y-61047844D01*
X183026401Y-61107372D01*
X183026403Y-61107379D01*
X183076645Y-61242086D01*
X183076649Y-61242093D01*
X183162809Y-61357187D01*
X183162812Y-61357190D01*
X183277906Y-61443350D01*
X183277913Y-61443354D01*
X183412620Y-61493596D01*
X183412627Y-61493598D01*
X183472155Y-61499999D01*
X183472172Y-61500000D01*
X184770000Y-61500000D01*
X184770000Y-60219064D01*
X184798316Y-60230793D01*
X184945147Y-60260000D01*
X185094853Y-60260000D01*
X185241684Y-60230793D01*
X185270000Y-60219064D01*
X185270000Y-61500000D01*
X186567828Y-61500000D01*
X186567844Y-61499999D01*
X186627372Y-61493598D01*
X186627379Y-61493596D01*
X186762086Y-61443354D01*
X186762093Y-61443350D01*
X186877187Y-61357190D01*
X186877190Y-61357187D01*
X186963350Y-61242093D01*
X186963354Y-61242086D01*
X187013596Y-61107379D01*
X187013598Y-61107372D01*
X187019999Y-61047844D01*
X187020000Y-61047827D01*
X187020000Y-59750000D01*
X185739064Y-59750000D01*
X185750793Y-59721684D01*
X185780000Y-59574853D01*
X185780000Y-59499998D01*
X188094390Y-59499998D01*
X188094390Y-59500001D01*
X188114804Y-59785433D01*
X188175628Y-60065037D01*
X188175630Y-60065043D01*
X188175631Y-60065046D01*
X188237452Y-60230793D01*
X188275635Y-60333166D01*
X188412770Y-60584309D01*
X188412775Y-60584317D01*
X188584254Y-60813387D01*
X188584270Y-60813405D01*
X188786594Y-61015729D01*
X188786612Y-61015745D01*
X189015682Y-61187224D01*
X189015690Y-61187229D01*
X189266833Y-61324364D01*
X189266832Y-61324364D01*
X189266836Y-61324365D01*
X189266839Y-61324367D01*
X189534954Y-61424369D01*
X189534960Y-61424370D01*
X189534962Y-61424371D01*
X189814566Y-61485195D01*
X189814568Y-61485195D01*
X189814572Y-61485196D01*
X190068220Y-61503337D01*
X190099999Y-61505610D01*
X190100000Y-61505610D01*
X190100001Y-61505610D01*
X190128595Y-61503564D01*
X190385428Y-61485196D01*
X190665046Y-61424369D01*
X190933161Y-61324367D01*
X191184315Y-61187226D01*
X191413395Y-61015739D01*
X191615739Y-60813395D01*
X191787226Y-60584315D01*
X191924367Y-60333161D01*
X192024369Y-60065046D01*
X192085196Y-59785428D01*
X192105610Y-59500000D01*
X192103811Y-59474853D01*
X192089755Y-59278316D01*
X192085196Y-59214572D01*
X192071149Y-59150000D01*
X192024371Y-58934962D01*
X192024370Y-58934960D01*
X192024369Y-58934954D01*
X191924367Y-58666839D01*
X191869759Y-58566833D01*
X191787229Y-58415690D01*
X191787224Y-58415682D01*
X191615745Y-58186612D01*
X191615729Y-58186594D01*
X191413405Y-57984270D01*
X191413387Y-57984254D01*
X191184317Y-57812775D01*
X191184309Y-57812770D01*
X190933166Y-57675635D01*
X190933167Y-57675635D01*
X190825915Y-57635632D01*
X190665046Y-57575631D01*
X190665043Y-57575630D01*
X190665037Y-57575628D01*
X190385433Y-57514804D01*
X190100001Y-57494390D01*
X190099999Y-57494390D01*
X189814566Y-57514804D01*
X189534962Y-57575628D01*
X189266833Y-57675635D01*
X189015690Y-57812770D01*
X189015682Y-57812775D01*
X188786612Y-57984254D01*
X188786594Y-57984270D01*
X188584270Y-58186594D01*
X188584254Y-58186612D01*
X188412775Y-58415682D01*
X188412770Y-58415690D01*
X188275635Y-58666833D01*
X188175628Y-58934962D01*
X188114804Y-59214566D01*
X188094390Y-59499998D01*
X185780000Y-59499998D01*
X185780000Y-59425147D01*
X185750793Y-59278316D01*
X185739064Y-59250000D01*
X187020000Y-59250000D01*
X187020000Y-57952172D01*
X187019999Y-57952155D01*
X187013598Y-57892627D01*
X187013596Y-57892620D01*
X186963354Y-57757913D01*
X186963350Y-57757906D01*
X186877190Y-57642812D01*
X186877187Y-57642809D01*
X186762093Y-57556649D01*
X186762086Y-57556645D01*
X186627379Y-57506403D01*
X186627372Y-57506401D01*
X186567844Y-57500000D01*
X185270000Y-57500000D01*
X185270000Y-58780935D01*
X185241684Y-58769207D01*
X185094853Y-58740000D01*
X184945147Y-58740000D01*
X184798316Y-58769207D01*
X184770000Y-58780935D01*
X184770000Y-57500000D01*
X183472155Y-57500000D01*
X183412627Y-57506401D01*
X183412620Y-57506403D01*
X183277913Y-57556645D01*
X183277906Y-57556649D01*
X183162812Y-57642809D01*
X183162809Y-57642812D01*
X183076649Y-57757906D01*
X183076645Y-57757913D01*
X183026403Y-57892620D01*
X183026401Y-57892627D01*
X183020000Y-57952155D01*
X177171290Y-57952155D01*
X177103405Y-57884270D01*
X177103387Y-57884254D01*
X176874317Y-57712775D01*
X176874309Y-57712770D01*
X176623166Y-57575635D01*
X176623167Y-57575635D01*
X176515915Y-57535632D01*
X176355046Y-57475631D01*
X176355043Y-57475630D01*
X176355037Y-57475628D01*
X176075433Y-57414804D01*
X175790001Y-57394390D01*
X175789999Y-57394390D01*
X175504566Y-57414804D01*
X175224962Y-57475628D01*
X174956833Y-57575635D01*
X174705690Y-57712770D01*
X174705682Y-57712775D01*
X174476612Y-57884254D01*
X174476594Y-57884270D01*
X174274270Y-58086594D01*
X174274254Y-58086612D01*
X174102775Y-58315682D01*
X174102770Y-58315690D01*
X173965635Y-58566833D01*
X173865628Y-58834962D01*
X173804804Y-59114566D01*
X173784390Y-59399998D01*
X171470000Y-59399998D01*
X171470000Y-59325147D01*
X171440793Y-59178316D01*
X171429064Y-59150000D01*
X172710000Y-59150000D01*
X172710000Y-57852172D01*
X172709999Y-57852155D01*
X172703598Y-57792627D01*
X172703596Y-57792620D01*
X172653354Y-57657913D01*
X172653350Y-57657906D01*
X172567190Y-57542812D01*
X172567187Y-57542809D01*
X172452093Y-57456649D01*
X172452086Y-57456645D01*
X172317379Y-57406403D01*
X172317372Y-57406401D01*
X172257844Y-57400000D01*
X170960000Y-57400000D01*
X170960000Y-58680935D01*
X170931684Y-58669207D01*
X170784853Y-58640000D01*
X170635147Y-58640000D01*
X170488316Y-58669207D01*
X170460000Y-58680935D01*
X170460000Y-57400000D01*
X169162155Y-57400000D01*
X169102627Y-57406401D01*
X169102620Y-57406403D01*
X168967913Y-57456645D01*
X168967906Y-57456649D01*
X168852812Y-57542809D01*
X168852809Y-57542812D01*
X168766649Y-57657906D01*
X168766645Y-57657913D01*
X168716403Y-57792620D01*
X168716401Y-57792627D01*
X168710000Y-57852155D01*
X159345609Y-57852155D01*
X159374369Y-57775046D01*
X159387916Y-57712770D01*
X159435195Y-57495433D01*
X159435195Y-57495432D01*
X159435196Y-57495428D01*
X159455610Y-57210000D01*
X159435196Y-56924572D01*
X159374369Y-56644954D01*
X159274367Y-56376839D01*
X159137226Y-56125685D01*
X159137224Y-56125682D01*
X158965745Y-55896612D01*
X158965729Y-55896594D01*
X158763405Y-55694270D01*
X158763387Y-55694254D01*
X158534317Y-55522775D01*
X158534309Y-55522770D01*
X158283166Y-55385635D01*
X158283167Y-55385635D01*
X158175915Y-55345632D01*
X158015046Y-55285631D01*
X158015043Y-55285630D01*
X158015037Y-55285628D01*
X157735433Y-55224804D01*
X157450001Y-55204390D01*
X157449999Y-55204390D01*
X157164566Y-55224804D01*
X156884962Y-55285628D01*
X156616833Y-55385635D01*
X156365690Y-55522770D01*
X156365682Y-55522775D01*
X156136612Y-55694254D01*
X156136594Y-55694270D01*
X155934270Y-55896594D01*
X155934254Y-55896612D01*
X155762775Y-56125682D01*
X155762770Y-56125690D01*
X155625635Y-56376833D01*
X155525628Y-56644962D01*
X155464804Y-56924566D01*
X155444390Y-57209998D01*
X150000500Y-57209998D01*
X150000500Y-53124500D01*
X150020185Y-53057461D01*
X150072989Y-53011706D01*
X150124500Y-53000500D01*
X197875500Y-53000500D01*
X197942539Y-53020185D01*
G37*
%TD.AperFunction*%
%TD*%
M02*
